{
.appVersion = "1192";
DisplayStrings = (
"µ/dvKSsRa/Upsilon/gamma/theta/nu",
"E ! /Alphawithtonos ! /Alphalenis ! /Alphaasper ! /Alphalenisgrave \012! /Alphaaspergrave \012! /Alphalenisacute ! /Alphaasperacute ! /Alphalenistilde ! /Alphaaspertilde ! /Alphagrave \012! /Alphaacute ! /Alphalenisiotasub ! /Alphaasperiotasub ! /Alphalenisgraveiotasub ! /Alphaaspergraveiotasub \012! /Alphalenisacuteiotasub ! /Alphaasperacuteiotasub ! /Alphalenistildeiotasub ! /Alphaaspertildeiotasub \012E ! /Epsilonwithtonos ! /Etawithtonos ! /Iotawithtonos  ! /Omicronwithtonos \012E ! /Upsilonwithtonos \012! /Omegawithtonos ! /Epsilonlenis ! /Epsilonasper ! /Epsilonlenisgrave ! /Epsilonaspergrave \012! /Epsilonlenisacute ! /Epsilonasperacute ! /Epsilongrave ! /Epsilonacute ! /Etalenis \012! /Etaasper ! /Etalenisgrave ! /Etaaspergrave ! /Etalenisacute \012! /Etaasperacute \012! /Etalenistilde ! /Etaaspertilde ! /Etagrave ! /Etaacute \012! /Etalenisiotasub \012! /Etaasperiotasub ! /Etalenisgraveiotasub ! /Etaaspergraveiotasub ! /Etalenisacuteiotasub \012! /Etaasperacuteiotasub \012! /Etalenistildeiotasub ! /Etaaspertildeiotasub ! /Iotalenis ! /Iotaasper ! /Iotalenisgrave \012! /Iotaaspergrave \012! /Iotalenisacute ! /Iotaasperacute ! /Iotalenistilde ! /Iotaaspertilde ! /Iotagrave ! /Iotaacute \012! /Omicronlenis \012! /Omicronasper  /Omicronlenisgrave ! /Omicronaspergrave ! /Omicronlenisacute ! /Omicronasperacute \012! /Omicrongrave \012! /Omicronacute ! /Rhoasper ! /Upsilonasper ! /Upsilonaspergrave ! /Upsilonasperacute \012! /Upsilonaspertilde ! /Upsilongrave ! /Upsilonacute ! /Omegalenis ! /Omegaasper \012! /Omegalenisgrave ! /Omegaaspergrave ! /Omegalenisacute ! /Omegaasperacute \012! /Omegalenistilde ! /Omegaaspertilde ! /Omegagrave ! /Omegaacute ! /Omegalenisiotasub \012! /Omegaasperiotasub ! /Omegalenisgraveiotasub ! /Omegaaspergraveiotasub ! /Omegalenisacuteiotasub \012! /Omegaasperacuteiotasub ! /Omegalenistildeiotasub ! /Omegaaspertildeiotasub"
);

glyphs = (
{
glyphname = .notdef;
lastChange = "2018-12-16 01:01:00 +0000";
layers = (
{
layerId = "E25E64E2-9639-43F9-BB85-44020EE7B81E";
paths = (
{
closed = 1;
nodes = (
"465 23 LINE",
"465 458 LINE",
"47 458 LINE",
"47 23 LINE"
);
},
{
closed = 1;
nodes = (
"170 328 LINE",
"344 328 LINE",
"344 154 LINE",
"170 154 LINE"
);
}
);
width = 512;
}
);
},
{
color = 3;
glyphname = exclam;
lastChange = "2019-02-26 16:52:46 +0000";
layers = (
{
layerId = "E25E64E2-9639-43F9-BB85-44020EE7B81E";
paths = (
{
closed = 1;
nodes = (
"251 266 LINE",
"301 715 LINE",
"242 742 OFFCURVE",
"132 740 OFFCURVE",
"66 717 CURVE",
"114 266 LINE"
);
},
{
closed = 1;
nodes = (
"243 4 OFFCURVE",
"274 42 OFFCURVE",
"289 90 CURVE",
"274 139 OFFCURVE",
"230 179 OFFCURVE",
"179 202 CURVE",
"127 173 OFFCURVE",
"89 132 OFFCURVE",
"81 73 CURVE",
"105 27 OFFCURVE",
"143 -3 OFFCURVE",
"196 -20 CURVE"
);
}
);
width = 366;
}
);
rightKerningGroup = space;
unicode = 0021;
},
{
color = 3;
glyphname = quotedbl;
lastChange = "2019-02-26 16:52:46 +0000";
layers = (
{
layerId = "E25E64E2-9639-43F9-BB85-44020EE7B81E";
paths = (
{
closed = 1;
nodes = (
"430 461 OFFCURVE",
"481 604 OFFCURVE",
"473 669 CURVE",
"349 693 LINE",
"296 636 LINE",
"302 593 OFFCURVE",
"285 497 OFFCURVE",
"255 424 CURVE",
"363 384 LINE"
);
},
{
closed = 1;
nodes = (
"181 461 OFFCURVE",
"232 604 OFFCURVE",
"224 669 CURVE",
"100 693 LINE",
"47 636 LINE",
"53 593 OFFCURVE",
"36 497 OFFCURVE",
"6 424 CURVE",
"114 384 LINE"
);
}
);
width = 475;
}
);
rightKerningGroup = space;
unicode = 0022;
},
{
color = 3;
glyphname = numbersign;
lastChange = "2019-02-26 16:52:46 +0000";
layers = (
{
layerId = "E25E64E2-9639-43F9-BB85-44020EE7B81E";
paths = (
{
closed = 1;
nodes = (
"501 519 LINE",
"402 530 LINE",
"321 0 LINE",
"420 -12 LINE"
);
},
{
closed = 1;
nodes = (
"540 117 LINE",
"540 212 LINE",
"52 212 LINE",
"52 117 LINE"
);
},
{
closed = 1;
nodes = (
"305 519 LINE",
"206 530 LINE",
"125 0 LINE",
"224 -12 LINE"
);
},
{
closed = 1;
nodes = (
"569 313 LINE",
"569 407 LINE",
"81 407 LINE",
"81 313 LINE"
);
}
);
width = 621;
}
);
leftMetricsKey = minus;
rightKerningGroup = space;
rightMetricsKey = minus;
unicode = 0023;
},
{
color = 3;
glyphname = dollar;
lastChange = "2019-02-26 16:52:46 +0000";
layers = (
{
components = (
{
name = S;
}
);
layerId = "E25E64E2-9639-43F9-BB85-44020EE7B81E";
paths = (
{
closed = 1;
nodes = (
"391 -145 LINE",
"391 35 LINE",
"248 35 LINE",
"248 -145 LINE"
);
},
{
closed = 1;
nodes = (
"390 633 LINE",
"390 785 LINE",
"248 785 LINE",
"248 633 LINE"
);
}
);
width = 622;
}
);
leftKerningGroup = S;
leftMetricsKey = S;
rightKerningGroup = S;
rightMetricsKey = S;
unicode = 0024;
},
{
color = 3;
glyphname = percent;
lastChange = "2019-02-26 16:52:46 +0000";
layers = (
{
layerId = "E25E64E2-9639-43F9-BB85-44020EE7B81E";
paths = (
{
closed = 1;
nodes = (
"679 545 LINE",
"600 608 LINE",
"142 34 LINE",
"221 -30 LINE"
);
},
{
closed = 1;
nodes = (
"299 258 OFFCURVE",
"367 337 OFFCURVE",
"367 431 CURVE SMOOTH",
"367 529 OFFCURVE",
"293 613 OFFCURVE",
"201 613 CURVE SMOOTH",
"108 613 OFFCURVE",
"36 528 OFFCURVE",
"36 433 CURVE SMOOTH",
"36 336 OFFCURVE",
"114 258 OFFCURVE",
"206 258 CURVE SMOOTH"
);
},
{
closed = 1;
nodes = (
"172 350 OFFCURVE",
"150 391 OFFCURVE",
"150 434 CURVE SMOOTH",
"150 461 OFFCURVE",
"159 489 OFFCURVE",
"174 507 CURVE",
"225 524 OFFCURVE",
"249 480 OFFCURVE",
"249 433 CURVE SMOOTH",
"249 405 OFFCURVE",
"240 375 OFFCURVE",
"223 358 CURVE"
);
},
{
closed = 1;
nodes = (
"729 -20 OFFCURVE",
"797 59 OFFCURVE",
"797 153 CURVE SMOOTH",
"797 250 OFFCURVE",
"723 334 OFFCURVE",
"631 334 CURVE SMOOTH",
"538 334 OFFCURVE",
"466 249 OFFCURVE",
"466 155 CURVE SMOOTH",
"466 57 OFFCURVE",
"544 -20 OFFCURVE",
"636 -20 CURVE SMOOTH"
);
},
{
closed = 1;
nodes = (
"602 72 OFFCURVE",
"580 112 OFFCURVE",
"580 155 CURVE SMOOTH",
"580 183 OFFCURVE",
"589 210 OFFCURVE",
"604 229 CURVE",
"655 245 OFFCURVE",
"679 202 OFFCURVE",
"679 155 CURVE SMOOTH",
"679 126 OFFCURVE",
"670 97 OFFCURVE",
"653 79 CURVE"
);
}
);
width = 833;
}
);
rightKerningGroup = space;
unicode = 0025;
},
{
color = 3;
glyphname = ampersand;
lastChange = "2019-02-26 16:52:46 +0000";
layers = (
{
layerId = "E25E64E2-9639-43F9-BB85-44020EE7B81E";
paths = (
{
closed = 1;
nodes = (
"519 -29 OFFCURVE",
"631 83 OFFCURVE",
"631 226 CURVE SMOOTH",
"631 291 OFFCURVE",
"608 364 OFFCURVE",
"556 419 CURVE",
"402 371 LINE",
"449 337 OFFCURVE",
"473 277 OFFCURVE",
"473 220 CURVE SMOOTH",
"473 175 OFFCURVE",
"458 133 OFFCURVE",
"425 105 CURVE",
"400 89 OFFCURVE",
"358 81 OFFCURVE",
"326 81 CURVE SMOOTH",
"256 81 OFFCURVE",
"190 116 OFFCURVE",
"190 184 CURVE SMOOTH",
"190 241 OFFCURVE",
"238 280 OFFCURVE",
"316 278 CURVE",
"335 360 LINE",
"201 413 LINE",
"195 386 LINE",
"105 382 OFFCURVE",
"9 322 OFFCURVE",
"9 207 CURVE SMOOTH",
"9 67 OFFCURVE",
"148 -29 OFFCURVE",
"327 -29 CURVE SMOOTH"
);
},
{
closed = 1;
nodes = (
"269 373 LINE",
"225 395 OFFCURVE",
"207 435 OFFCURVE",
"207 466 CURVE SMOOTH",
"207 504 OFFCURVE",
"234 539 OFFCURVE",
"263 550 CURVE",
"441 469 LINE",
"502 622 LINE",
"437 653 OFFCURVE",
"351 668 OFFCURVE",
"283 668 CURVE SMOOTH",
"116 668 OFFCURVE",
"30 577 OFFCURVE",
"30 491 CURVE SMOOTH",
"30 420 OFFCURVE",
"88 351 OFFCURVE",
"215 339 CURVE"
);
},
{
closed = 1;
nodes = (
"557 388 OFFCURVE",
"626 355 OFFCURVE",
"707 300 CURVE",
"756 433 LINE",
"674 521 OFFCURVE",
"541 474 OFFCURVE",
"359 359 CURVE",
"401 281 LINE"
);
}
);
width = 712;
}
);
rightKerningGroup = space;
unicode = 0026;
},
{
color = 3;
glyphname = quotesingle;
lastChange = "2019-02-26 16:52:46 +0000";
layers = (
{
layerId = "E25E64E2-9639-43F9-BB85-44020EE7B81E";
paths = (
{
closed = 1;
nodes = (
"134 520 OFFCURVE",
"179 654 OFFCURVE",
"173 735 CURVE",
"49 751 LINE",
"-3 694 LINE",
"3 651 OFFCURVE",
"2 563 OFFCURVE",
"-28 490 CURVE",
"79 450 LINE"
);
}
);
width = 192;
}
);
rightKerningGroup = space;
unicode = 0027;
},
{
color = 3;
glyphname = parenleft;
lastChange = "2019-02-26 16:52:46 +0000";
layers = (
{
layerId = "E25E64E2-9639-43F9-BB85-44020EE7B81E";
paths = (
{
closed = 1;
nodes = (
"344 -88 LINE",
"278 50 OFFCURVE",
"235 177 OFFCURVE",
"235 310 CURVE SMOOTH",
"235 430 OFFCURVE",
"272 544 OFFCURVE",
"345 666 CURVE",
"229 732 LINE",
"95 601 OFFCURVE",
"33 461 OFFCURVE",
"33 306 CURVE SMOOTH",
"33 137 OFFCURVE",
"105 -16 OFFCURVE",
"226 -155 CURVE"
);
}
);
width = 386;
}
);
rightKerningGroup = parenthesis;
unicode = 0028;
},
{
color = 3;
glyphname = parenright;
lastChange = "2019-02-26 16:52:46 +0000";
layers = (
{
layerId = "E25E64E2-9639-43F9-BB85-44020EE7B81E";
paths = (
{
closed = 1;
nodes = (
"281 -16 OFFCURVE",
"353 137 OFFCURVE",
"353 306 CURVE SMOOTH",
"353 461 OFFCURVE",
"291 601 OFFCURVE",
"157 732 CURVE",
"41 666 LINE",
"114 544 OFFCURVE",
"151 430 OFFCURVE",
"151 310 CURVE SMOOTH",
"151 177 OFFCURVE",
"108 50 OFFCURVE",
"42 -88 CURVE",
"160 -155 LINE"
);
}
);
width = 386;
}
);
leftKerningGroup = parenthesis;
unicode = 0029;
},
{
color = 3;
glyphname = asterisk;
lastChange = "2019-02-26 16:52:46 +0000";
layers = (
{
layerId = "E25E64E2-9639-43F9-BB85-44020EE7B81E";
paths = (
{
closed = 1;
nodes = (
"213 541 LINE",
"153 589 LINE",
"-11 513 LINE",
"122 416 LINE"
);
},
{
closed = 1;
nodes = (
"154 649 LINE",
"25 781 LINE",
"-19 622 LINE",
"127 577 LINE"
);
},
{
closed = 1;
nodes = (
"365 479 LINE",
"275 602 LINE",
"211 560 LINE",
"235 379 LINE"
);
},
{
closed = 1;
nodes = (
"302 821 LINE",
"138 818 LINE",
"137 665 LINE",
"214 660 LINE"
);
},
{
closed = 1;
nodes = (
"373 730 LINE",
"228 680 LINE",
"250 607 LINE",
"429 577 LINE"
);
}
);
width = 434;
}
);
rightKerningGroup = space;
unicode = 002A;
},
{
color = 3;
glyphname = plus;
lastChange = "2018-12-16 01:01:00 +0000";
layers = (
{
layerId = "E25E64E2-9639-43F9-BB85-44020EE7B81E";
paths = (
{
closed = 1;
nodes = (
"343 32 LINE",
"343 210 LINE",
"517 210 LINE",
"517 320 LINE",
"343 320 LINE",
"343 499 LINE",
"226 499 LINE",
"226 320 LINE",
"52 320 LINE",
"52 210 LINE",
"226 210 LINE",
"226 32 LINE"
);
}
);
width = 569;
}
);
leftMetricsKey = minus;
rightMetricsKey = minus;
unicode = 002B;
},
{
color = 3;
glyphname = comma;
lastChange = "2019-02-26 16:52:46 +0000";
layers = (
{
layerId = "E25E64E2-9639-43F9-BB85-44020EE7B81E";
paths = (
{
closed = 1;
nodes = (
"186 -104 OFFCURVE",
"270 -12 OFFCURVE",
"270 70 CURVE SMOOTH",
"270 123 OFFCURVE",
"237 172 OFFCURVE",
"163 201 CURVE",
"114 174 OFFCURVE",
"75 133 OFFCURVE",
"66 74 CURVE",
"120 27 LINE",
"118 -5 OFFCURVE",
"90 -52 OFFCURVE",
"51 -85 CURVE",
"98 -140 LINE"
);
}
);
width = 329;
}
);
rightKerningGroup = space;
unicode = 002C;
},
{
color = 3;
glyphname = hyphen;
lastChange = "2019-02-26 16:52:46 +0000";
layers = (
{
layerId = "E25E64E2-9639-43F9-BB85-44020EE7B81E";
paths = (
{
closed = 1;
nodes = (
"419 213 LINE",
"444 262 LINE",
"379 365 LINE",
"59 365 LINE",
"34 316 LINE",
"99 213 LINE"
);
}
);
width = 500;
}
);
rightKerningGroup = space;
unicode = 002D;
},
{
color = 3;
glyphname = period;
lastChange = "2019-02-26 16:52:46 +0000";
layers = (
{
layerId = "E25E64E2-9639-43F9-BB85-44020EE7B81E";
paths = (
{
closed = 1;
nodes = (
"263 -19 OFFCURVE",
"303 33 OFFCURVE",
"320 77 CURVE",
"296 109 OFFCURVE",
"245 155 OFFCURVE",
"201 173 CURVE",
"163 151 OFFCURVE",
"125 99 OFFCURVE",
"101 51 CURVE",
"127 15 OFFCURVE",
"186 -29 OFFCURVE",
"225 -45 CURVE"
);
}
);
width = 320;
}
);
rightKerningGroup = space;
unicode = 002E;
},
{
color = 3;
glyphname = slash;
lastChange = "2019-02-26 16:52:46 +0000";
layers = (
{
layerId = "E25E64E2-9639-43F9-BB85-44020EE7B81E";
paths = (
{
closed = 1;
nodes = (
"431 688 LINE",
"315 739 LINE",
"7 -70 LINE",
"125 -119 LINE"
);
}
);
width = 428;
}
);
rightKerningGroup = space;
unicode = 002F;
},
{
color = 3;
glyphname = zero;
lastChange = "2019-02-26 16:52:46 +0000";
layers = (
{
layerId = "E25E64E2-9639-43F9-BB85-44020EE7B81E";
paths = (
{
closed = 1;
nodes = (
"492 -17 OFFCURVE",
"596 132 OFFCURVE",
"596 327 CURVE SMOOTH",
"596 546 OFFCURVE",
"460 668 OFFCURVE",
"308 668 CURVE SMOOTH",
"146 668 OFFCURVE",
"17 530 OFFCURVE",
"17 326 CURVE SMOOTH",
"17 140 OFFCURVE",
"124 -17 OFFCURVE",
"310 -17 CURVE SMOOTH"
);
},
{
closed = 1;
nodes = (
"254 88 OFFCURVE",
"227 220 OFFCURVE",
"227 336 CURVE SMOOTH",
"227 426 OFFCURVE",
"243 524 OFFCURVE",
"272 562 CURVE",
"280 563 OFFCURVE",
"287 564 OFFCURVE",
"293 564 CURVE SMOOTH",
"361 564 OFFCURVE",
"389 435 OFFCURVE",
"389 313 CURVE SMOOTH",
"389 222 OFFCURVE",
"374 133 OFFCURVE",
"346 92 CURVE",
"338 89 OFFCURVE",
"330 88 OFFCURVE",
"324 88 CURVE SMOOTH"
);
}
);
width = 614;
}
);
rightKerningGroup = space;
unicode = 0030;
},
{
color = 3;
glyphname = one;
lastChange = "2019-02-26 16:52:46 +0000";
layers = (
{
layerId = "E25E64E2-9639-43F9-BB85-44020EE7B81E";
paths = (
{
closed = 1;
nodes = (
"360 0 LINE",
"360 609 LINE",
"159 591 LINE",
"159 0 LINE"
);
},
{
closed = 1;
nodes = (
"172 0 LINE",
"174 94 LINE",
"124 81 OFFCURVE",
"56 56 OFFCURVE",
"23 32 CURVE",
"29 0 LINE"
);
},
{
closed = 1;
nodes = (
"475 0 LINE",
"477 55 LINE",
"339 80 LINE",
"336 0 LINE"
);
},
{
closed = 1;
nodes = (
"276 529 LINE",
"296 619 LINE",
"277 670 LINE",
"5 510 LINE",
"42 438 LINE"
);
},
{
closed = 1;
nodes = (
"360 609 LINE",
"277 670 LINE",
"260 584 LINE"
);
}
);
width = 469;
}
);
rightKerningGroup = space;
unicode = 0031;
},
{
color = 3;
glyphname = two;
lastChange = "2019-02-26 16:52:46 +0000";
layers = (
{
layerId = "E25E64E2-9639-43F9-BB85-44020EE7B81E";
paths = (
{
closed = 1;
nodes = (
"521 0 LINE",
"521 133 LINE",
"265 80 LINE",
"261 87 LINE",
"381 204 LINE",
"496 315 OFFCURVE",
"543 386 OFFCURVE",
"543 464 CURVE SMOOTH",
"543 577 OFFCURVE",
"447 669 OFFCURVE",
"295 670 CURVE SMOOTH",
"213 671 OFFCURVE",
"119 644 OFFCURVE",
"46 601 CURVE",
"179 566 LINE",
"199 573 OFFCURVE",
"219 576 OFFCURVE",
"236 576 CURVE SMOOTH",
"305 576 OFFCURVE",
"339 539 OFFCURVE",
"339 489 CURVE SMOOTH",
"339 438 OFFCURVE",
"303 382 OFFCURVE",
"189 263 CURVE SMOOTH",
"33 98 LINE",
"55 0 LINE"
);
},
{
closed = 1;
nodes = (
"568 81 OFFCURVE",
"579 161 OFFCURVE",
"581 221 CURVE",
"497 244 LINE",
"333 8 LINE",
"544 0 LINE"
);
},
{
closed = 1;
nodes = (
"194 388 LINE",
"259 598 LINE",
"46 601 LINE",
"41 551 OFFCURVE",
"53 437 OFFCURVE",
"67 388 CURVE"
);
}
);
width = 617;
}
);
rightKerningGroup = space;
unicode = 0032;
},
{
color = 3;
glyphname = three;
lastChange = "2019-02-26 16:52:46 +0000";
layers = (
{
layerId = "E25E64E2-9639-43F9-BB85-44020EE7B81E";
paths = (
{
closed = 1;
nodes = (
"454 -20 OFFCURVE",
"572 59 OFFCURVE",
"572 175 CURVE SMOOTH",
"572 271 OFFCURVE",
"491 348 OFFCURVE",
"385 342 CURVE",
"382 359 LINE",
"194 355 LINE",
"182 355 LINE",
"187 263 LINE",
"238 264 LINE",
"315 264 OFFCURVE",
"359 214 OFFCURVE",
"359 161 CURVE SMOOTH",
"359 135 OFFCURVE",
"348 108 OFFCURVE",
"326 86 CURVE",
"255 104 OFFCURVE",
"170 168 OFFCURVE",
"93 216 CURVE",
"36 33 LINE",
"113 -1 OFFCURVE",
"208 -20 OFFCURVE",
"289 -20 CURVE SMOOTH"
);
},
{
closed = 1;
nodes = (
"184 413 LINE",
"248 614 LINE",
"55 606 LINE",
"50 556 OFFCURVE",
"54 463 OFFCURVE",
"68 413 CURVE"
);
},
{
closed = 1;
nodes = (
"394 319 LINE",
"394 335 LINE",
"497 364 OFFCURVE",
"546 430 OFFCURVE",
"546 496 CURVE SMOOTH",
"546 583 OFFCURVE",
"463 670 OFFCURVE",
"295 670 CURVE SMOOTH",
"211 670 OFFCURVE",
"117 648 OFFCURVE",
"54 606 CURVE",
"91 534 LINE",
"140 562 OFFCURVE",
"178 572 OFFCURVE",
"214 572 CURVE SMOOTH",
"288 572 OFFCURVE",
"340 530 OFFCURVE",
"340 471 CURVE SMOOTH",
"340 417 OFFCURVE",
"290 360 OFFCURVE",
"194 355 CURVE",
"202 266 LINE"
);
}
);
width = 611;
}
);
rightKerningGroup = space;
unicode = 0033;
},
{
color = 3;
glyphname = four;
lastChange = "2019-02-26 16:52:46 +0000";
layers = (
{
layerId = "E25E64E2-9639-43F9-BB85-44020EE7B81E";
paths = (
{
closed = 1;
nodes = (
"583 151 LINE",
"615 182 LINE",
"610 272 LINE",
"103 261 LINE",
"157 233 LINE",
"397 578 LINE",
"431 553 LINE",
"423 652 LINE",
"354 670 LINE",
"9 256 LINE",
"48 151 LINE"
);
},
{
closed = 1;
nodes = (
"320 0 LINE",
"322 94 LINE",
"280 79 OFFCURVE",
"219 56 OFFCURVE",
"187 32 CURVE",
"193 0 LINE"
);
},
{
closed = 1;
nodes = (
"570 0 LINE",
"572 55 LINE",
"434 80 LINE",
"431 0 LINE"
);
},
{
closed = 1;
nodes = (
"502 0 LINE",
"502 652 LINE",
"352 663 LINE",
"318 517 LINE",
"309 373 LINE",
"309 0 LINE"
);
}
);
width = 630;
}
);
rightKerningGroup = space;
unicode = 0034;
},
{
color = 3;
glyphname = five;
lastChange = "2019-02-26 16:52:46 +0000";
layers = (
{
layerId = "E25E64E2-9639-43F9-BB85-44020EE7B81E";
paths = (
{
closed = 1;
nodes = (
"458 -24 OFFCURVE",
"551 81 OFFCURVE",
"551 198 CURVE SMOOTH",
"551 337 OFFCURVE",
"420 406 OFFCURVE",
"307 408 CURVE SMOOTH",
"284 408 OFFCURVE",
"259 408 OFFCURVE",
"239 401 CURVE",
"251 554 LINE",
"447 542 LINE",
"456 650 LINE",
"90 650 LINE",
"61 319 LINE",
"116 259 LINE",
"146 268 OFFCURVE",
"172 271 OFFCURVE",
"194 271 CURVE SMOOTH",
"296 271 OFFCURVE",
"370 236 OFFCURVE",
"370 162 CURVE SMOOTH",
"370 140 OFFCURVE",
"364 114 OFFCURVE",
"336 85 CURVE",
"264 103 OFFCURVE",
"165 158 OFFCURVE",
"87 227 CURVE",
"30 45 LINE",
"109 -2 OFFCURVE",
"210 -24 OFFCURVE",
"287 -24 CURVE SMOOTH"
);
},
{
closed = 1;
nodes = (
"498 435 LINE",
"512 484 OFFCURVE",
"524 601 OFFCURVE",
"520 650 CURVE",
"325 648 LINE",
"375 435 LINE"
);
}
);
width = 582;
}
);
rightKerningGroup = space;
unicode = 0035;
},
{
color = 3;
glyphname = six;
lastChange = "2019-02-26 16:52:46 +0000";
layers = (
{
layerId = "E25E64E2-9639-43F9-BB85-44020EE7B81E";
paths = (
{
closed = 1;
nodes = (
"486 -20 OFFCURVE",
"576 86 OFFCURVE",
"576 206 CURVE SMOOTH",
"576 330 OFFCURVE",
"482 399 OFFCURVE",
"386 399 CURVE SMOOTH",
"343 399 OFFCURVE",
"293 385 OFFCURVE",
"254 349 CURVE",
"276 262 LINE",
"292 273 OFFCURVE",
"307 279 OFFCURVE",
"321 279 CURVE SMOOTH",
"360 279 OFFCURVE",
"390 232 OFFCURVE",
"390 175 CURVE SMOOTH",
"390 136 OFFCURVE",
"376 95 OFFCURVE",
"345 71 CURVE",
"267 68 OFFCURVE",
"229 169 OFFCURVE",
"229 281 CURVE SMOOTH",
"229 382 OFFCURVE",
"261 489 OFFCURVE",
"323 524 CURVE",
"522 471 LINE",
"523 657 LINE",
"180 672 OFFCURVE",
"32 458 OFFCURVE",
"32 264 CURVE SMOOTH",
"32 72 OFFCURVE",
"178 -20 OFFCURVE",
"326 -20 CURVE SMOOTH"
);
}
);
width = 599;
}
);
rightKerningGroup = space;
unicode = 0036;
},
{
color = 3;
glyphname = seven;
lastChange = "2019-02-26 16:52:46 +0000";
layers = (
{
layerId = "E25E64E2-9639-43F9-BB85-44020EE7B81E";
paths = (
{
closed = 1;
nodes = (
"346 179 OFFCURVE",
"436 363 OFFCURVE",
"537 548 CURVE",
"488 650 LINE",
"34 650 LINE",
"80 527 LINE",
"352 537 LINE",
"359 529 LINE",
"249 372 OFFCURVE",
"162 211 OFFCURVE",
"75 40 CURVE",
"263 -26 LINE"
);
},
{
closed = 1;
nodes = (
"175 418 LINE",
"216 648 LINE",
"22 650 LINE",
"17 601 OFFCURVE",
"29 467 OFFCURVE",
"43 418 CURVE"
);
}
);
width = 527;
}
);
rightKerningGroup = space;
unicode = 0037;
},
{
color = 3;
glyphname = eight;
lastChange = "2019-02-26 16:52:46 +0000";
layers = (
{
layerId = "E25E64E2-9639-43F9-BB85-44020EE7B81E";
paths = (
{
closed = 1;
nodes = (
"441 -22 OFFCURVE",
"555 47 OFFCURVE",
"555 170 CURVE SMOOTH",
"555 280 OFFCURVE",
"466 340 OFFCURVE",
"368 393 CURVE SMOOTH",
"295 433 OFFCURVE",
"233 460 OFFCURVE",
"233 514 CURVE SMOOTH",
"233 530 OFFCURVE",
"239 551 OFFCURVE",
"254 567 CURVE",
"267 573 OFFCURVE",
"280 575 OFFCURVE",
"292 575 CURVE SMOOTH",
"337 575 OFFCURVE",
"369 542 OFFCURVE",
"369 495 CURVE SMOOTH",
"369 464 OFFCURVE",
"355 424 OFFCURVE",
"312 396 CURVE",
"401 337 LINE",
"489 366 OFFCURVE",
"528 435 OFFCURVE",
"528 496 CURVE SMOOTH",
"528 584 OFFCURVE",
"445 668 OFFCURVE",
"298 668 CURVE SMOOTH",
"143 668 OFFCURVE",
"58 575 OFFCURVE",
"58 476 CURVE SMOOTH",
"58 405 OFFCURVE",
"102 355 OFFCURVE",
"165 315 CURVE",
"229 277 LINE",
"335 218 OFFCURVE",
"373 191 OFFCURVE",
"373 129 CURVE SMOOTH",
"373 106 OFFCURVE",
"368 92 OFFCURVE",
"354 70 CURVE",
"338 65 OFFCURVE",
"323 63 OFFCURVE",
"311 63 CURVE SMOOTH",
"253 63 OFFCURVE",
"221 104 OFFCURVE",
"221 153 CURVE SMOOTH",
"221 199 OFFCURVE",
"249 251 OFFCURVE",
"311 280 CURVE",
"239 364 LINE",
"110 342 OFFCURVE",
"36 255 OFFCURVE",
"36 164 CURVE SMOOTH",
"36 48 OFFCURVE",
"154 -22 OFFCURVE",
"299 -22 CURVE SMOOTH"
);
}
);
width = 591;
}
);
rightKerningGroup = space;
unicode = 0038;
},
{
color = 3;
glyphname = nine;
lastChange = "2019-02-26 16:52:46 +0000";
layers = (
{
layerId = "E25E64E2-9639-43F9-BB85-44020EE7B81E";
paths = (
{
closed = 1;
nodes = (
"373 -33 OFFCURVE",
"566 135 OFFCURVE",
"566 364 CURVE SMOOTH",
"566 535 OFFCURVE",
"459 670 OFFCURVE",
"280 670 CURVE SMOOTH",
"125 670 OFFCURVE",
"26 568 OFFCURVE",
"26 441 CURVE SMOOTH",
"26 276 OFFCURVE",
"194 180 OFFCURVE",
"339 244 CURVE",
"329 348 LINE",
"262 335 OFFCURVE",
"227 394 OFFCURVE",
"227 459 CURVE SMOOTH",
"227 506 OFFCURVE",
"243 552 OFFCURVE",
"272 564 CURVE",
"347 573 OFFCURVE",
"377 469 OFFCURVE",
"377 365 CURVE SMOOTH",
"377 262 OFFCURVE",
"348 155 OFFCURVE",
"285 120 CURVE",
"80 178 LINE",
"111 -10 LINE"
);
}
);
width = 592;
}
);
rightKerningGroup = space;
unicode = 0039;
},
{
color = 3;
glyphname = colon;
lastChange = "2019-02-26 16:52:46 +0000";
layers = (
{
layerId = "E25E64E2-9639-43F9-BB85-44020EE7B81E";
paths = (
{
closed = 1;
nodes = (
"263 314 OFFCURVE",
"294 351 OFFCURVE",
"309 400 CURVE",
"294 449 OFFCURVE",
"250 488 OFFCURVE",
"199 511 CURVE",
"147 483 OFFCURVE",
"109 441 OFFCURVE",
"101 382 CURVE",
"125 337 OFFCURVE",
"163 307 OFFCURVE",
"216 289 CURVE"
);
},
{
closed = 1;
nodes = (
"263 4 OFFCURVE",
"294 42 OFFCURVE",
"309 90 CURVE",
"294 139 OFFCURVE",
"250 179 OFFCURVE",
"199 202 CURVE",
"147 173 OFFCURVE",
"109 132 OFFCURVE",
"101 73 CURVE",
"125 27 OFFCURVE",
"163 -3 OFFCURVE",
"216 -20 CURVE"
);
}
);
width = 309;
}
);
leftMetricsKey = period;
rightKerningGroup = space;
rightMetricsKey = period;
unicode = 003A;
},
{
color = 3;
glyphname = semicolon;
lastChange = "2019-02-26 16:52:46 +0000";
layers = (
{
layerId = "E25E64E2-9639-43F9-BB85-44020EE7B81E";
paths = (
{
closed = 1;
nodes = (
"186 -104 OFFCURVE",
"270 -12 OFFCURVE",
"270 70 CURVE SMOOTH",
"270 123 OFFCURVE",
"237 172 OFFCURVE",
"163 201 CURVE",
"114 174 OFFCURVE",
"75 133 OFFCURVE",
"66 74 CURVE",
"120 27 LINE",
"118 -5 OFFCURVE",
"90 -52 OFFCURVE",
"51 -85 CURVE",
"98 -140 LINE"
);
},
{
closed = 1;
nodes = (
"229 314 OFFCURVE",
"260 351 OFFCURVE",
"275 400 CURVE",
"260 449 OFFCURVE",
"216 488 OFFCURVE",
"165 511 CURVE",
"113 483 OFFCURVE",
"75 441 OFFCURVE",
"67 382 CURVE",
"91 337 OFFCURVE",
"129 307 OFFCURVE",
"182 289 CURVE"
);
}
);
width = 334;
}
);
leftMetricsKey = comma;
rightKerningGroup = space;
rightMetricsKey = comma;
unicode = 003B;
},
{
color = 3;
glyphname = less;
lastChange = "2018-12-16 01:01:00 +0000";
layers = (
{
layerId = "E25E64E2-9639-43F9-BB85-44020EE7B81E";
paths = (
{
closed = 1;
nodes = (
"521 97 LINE",
"230 240 LINE",
"229 246 LINE",
"517 401 LINE",
"466 500 LINE",
"56 272 LINE",
"58 202 LINE",
"467 -6 LINE"
);
}
);
width = 578;
}
);
unicode = 003C;
},
{
color = 3;
glyphname = equal;
lastChange = "2018-12-16 01:01:00 +0000";
layers = (
{
layerId = "E25E64E2-9639-43F9-BB85-44020EE7B81E";
paths = (
{
closed = 1;
nodes = (
"524 304 LINE",
"524 401 LINE",
"52 401 LINE",
"52 304 LINE"
);
},
{
closed = 1;
nodes = (
"524 116 LINE",
"524 213 LINE",
"52 213 LINE",
"52 116 LINE"
);
}
);
width = 576;
}
);
leftMetricsKey = minus;
rightMetricsKey = minus;
unicode = 003D;
},
{
color = 3;
glyphname = greater;
lastChange = "2018-12-16 01:01:00 +0000";
layers = (
{
layerId = "E25E64E2-9639-43F9-BB85-44020EE7B81E";
paths = (
{
closed = 1;
nodes = (
"520 202 LINE",
"522 272 LINE",
"112 500 LINE",
"61 401 LINE",
"349 246 LINE",
"348 240 LINE",
"57 97 LINE",
"111 -6 LINE"
);
}
);
width = 578;
}
);
unicode = 003E;
},
{
color = 3;
glyphname = question;
lastChange = "2019-02-26 16:52:46 +0000";
layers = (
{
layerId = "E25E64E2-9639-43F9-BB85-44020EE7B81E";
paths = (
{
closed = 1;
nodes = (
"396 254 LINE",
"423 380 OFFCURVE",
"575 384 OFFCURVE",
"575 527 CURVE SMOOTH",
"575 646 OFFCURVE",
"472 735 OFFCURVE",
"316 735 CURVE SMOOTH",
"203 735 OFFCURVE",
"130 689 OFFCURVE",
"85 649 CURVE",
"124 519 LINE",
"196 578 OFFCURVE",
"242 609 OFFCURVE",
"309 609 CURVE",
"350 594 OFFCURVE",
"367 557 OFFCURVE",
"367 525 CURVE SMOOTH",
"367 436 OFFCURVE",
"230 406 OFFCURVE",
"230 254 CURVE"
);
},
{
closed = 1;
nodes = (
"384 4 OFFCURVE",
"415 42 OFFCURVE",
"430 90 CURVE",
"415 139 OFFCURVE",
"371 179 OFFCURVE",
"320 202 CURVE",
"268 173 OFFCURVE",
"230 132 OFFCURVE",
"222 73 CURVE",
"246 27 OFFCURVE",
"284 -3 OFFCURVE",
"337 -20 CURVE"
);
},
{
closed = 1;
nodes = (
"224 454 LINE",
"312 657 LINE",
"86 648 LINE",
"82 609 OFFCURVE",
"95 508 OFFCURVE",
"109 454 CURVE"
);
}
);
width = 661;
}
);
rightKerningGroup = space;
unicode = 003F;
},
{
color = 3;
glyphname = at;
lastChange = "2019-02-26 16:52:46 +0000";
layers = (
{
layerId = "E25E64E2-9639-43F9-BB85-44020EE7B81E";
paths = (
{
closed = 1;
nodes = (
"311 6 LINE",
"252 90 OFFCURVE",
"222 183 OFFCURVE",
"222 270 CURVE SMOOTH",
"222 447 OFFCURVE",
"343 599 OFFCURVE",
"569 599 CURVE SMOOTH",
"768 599 OFFCURVE",
"890 481 OFFCURVE",
"890 313 CURVE SMOOTH",
"890 243 OFFCURVE",
"869 162 OFFCURVE",
"834 126 CURVE SMOOTH",
"815 106 OFFCURVE",
"789 100 OFFCURVE",
"789 135 CURVE SMOOTH",
"789 322 LINE SMOOTH",
"789 378 OFFCURVE",
"787 408 OFFCURVE",
"777 424 CURVE SMOOTH",
"745 471 OFFCURVE",
"682 497 OFFCURVE",
"623 497 CURVE SMOOTH",
"559 497 OFFCURVE",
"441 478 OFFCURVE",
"349 447 CURVE",
"342 395 OFFCURVE",
"349 336 OFFCURVE",
"363 284 CURVE",
"477 285 LINE",
"506 399 LINE",
"515 404 OFFCURVE",
"529 407 OFFCURVE",
"543 408 CURVE",
"563 398 OFFCURVE",
"588 374 OFFCURVE",
"588 311 CURVE SMOOTH",
"588 70 LINE",
"607 69 LINE",
"635 13 OFFCURVE",
"679 -25 OFFCURVE",
"804 -17 CURVE",
"983 16 OFFCURVE",
"1078 165 OFFCURVE",
"1078 322 CURVE SMOOTH",
"1078 528 OFFCURVE",
"915 750 OFFCURVE",
"563 750 CURVE SMOOTH",
"219 750 OFFCURVE",
"33 540 OFFCURVE",
"33 311 CURVE SMOOTH",
"33 184 OFFCURVE",
"90 51 OFFCURVE",
"209 -56 CURVE"
);
},
{
closed = 1;
nodes = (
"633 68 LINE",
"616 110 LINE",
"591 103 OFFCURVE",
"557 93 OFFCURVE",
"526 89 CURVE",
"516 100 OFFCURVE",
"511 118 OFFCURVE",
"511 131 CURVE SMOOTH",
"511 166 OFFCURVE",
"549 177 OFFCURVE",
"590 177 CURVE",
"622 177 LINE",
"620 243 LINE",
"400 238 LINE",
"340 209 OFFCURVE",
"315 158 OFFCURVE",
"315 116 CURVE SMOOTH",
"315 45 OFFCURVE",
"387 -32 OFFCURVE",
"510 -12 CURVE"
);
}
);
width = 1098;
}
);
rightKerningGroup = space;
unicode = 0040;
},
{
color = 3;
glyphname = A;
lastChange = "2019-02-26 16:52:46 +0000";
layers = (
{
anchors = (
{
name = ogonek;
position = "{718, 0}";
},
{
name = top;
position = "{360, 650}";
}
);
layerId = "E25E64E2-9639-43F9-BB85-44020EE7B81E";
paths = (
{
closed = 1;
nodes = (
"713 0 LINE",
"436 690 LINE",
"254 645 LINE",
"492 0 LINE"
);
},
{
closed = 1;
nodes = (
"80 0 LINE",
"79 91 LINE",
"41 73 OFFCURVE",
"8 54 OFFCURVE",
"-20 32 CURVE",
"-14 0 LINE"
);
},
{
closed = 1;
nodes = (
"273 0 LINE",
"274 55 LINE",
"136 79 LINE",
"133 0 LINE"
);
},
{
closed = 1;
nodes = (
"498 0 LINE",
"487 91 LINE",
"449 73 OFFCURVE",
"416 54 OFFCURVE",
"388 32 CURVE",
"394 0 LINE"
);
},
{
closed = 1;
nodes = (
"168 0 LINE",
"400 628 LINE",
"291 646 LINE",
"30 0 LINE"
);
},
{
closed = 1;
nodes = (
"517 162 LINE",
"517 254 LINE",
"184 254 LINE",
"184 162 LINE"
);
},
{
closed = 1;
nodes = (
"756 0 LINE",
"757 55 LINE",
"619 79 LINE",
"616 0 LINE"
);
}
);
width = 741;
}
);
leftKerningGroup = A;
rightKerningGroup = A;
unicode = 0041;
},
{
color = 3;
glyphname = B;
lastChange = "2019-02-26 16:52:46 +0000";
layers = (
{
layerId = "E25E64E2-9639-43F9-BB85-44020EE7B81E";
paths = (
{
closed = 1;
nodes = (
"372 321 LINE",
"503 344 LINE",
"611 350 OFFCURVE",
"661 436 OFFCURVE",
"661 501 CURVE SMOOTH",
"661 585 OFFCURVE",
"574 674 OFFCURVE",
"400 674 CURVE",
"310 674 OFFCURVE",
"136 671 OFFCURVE",
"37 666 CURVE",
"313 561 LINE",
"399 577 LINE",
"434 565 OFFCURVE",
"455 516 OFFCURVE",
"455 476 CURVE SMOOTH",
"455 430 OFFCURVE",
"427 384 OFFCURVE",
"360 384 CURVE SMOOTH",
"290 384 LINE",
"290 313 LINE"
);
},
{
closed = 1;
nodes = (
"122 0 LINE",
"121 91 LINE",
"83 73 OFFCURVE",
"50 54 OFFCURVE",
"22 32 CURVE",
"28 0 LINE"
);
},
{
closed = 1;
nodes = (
"317 0 LINE",
"317 666 LINE",
"107 666 LINE",
"107 0 LINE"
);
},
{
closed = 1;
nodes = (
"404 0 LINE SMOOTH",
"618 0 OFFCURVE",
"689 94 OFFCURVE",
"689 185 CURVE SMOOTH",
"689 284 OFFCURVE",
"607 368 OFFCURVE",
"446 356 CURVE",
"314 340 LINE",
"297 306 LINE",
"384 306 LINE SMOOTH",
"439 306 OFFCURVE",
"476 245 OFFCURVE",
"476 191 CURVE SMOOTH",
"476 140 OFFCURVE",
"445 85 OFFCURVE",
"378 93 CURVE SMOOTH",
"297 103 LINE",
"294 0 LINE"
);
},
{
closed = 1;
nodes = (
"168 666 LINE",
"37 666 LINE",
"36 611 LINE",
"166 589 LINE"
);
}
);
width = 717;
}
);
leftKerningGroup = I;
leftMetricsKey = I;
unicode = 0042;
},
{
color = 3;
glyphname = C;
lastChange = "2019-02-26 16:52:46 +0000";
layers = (
{
anchors = (
{
name = bottom;
position = "{342, 0}";
},
{
name = top;
position = "{342, 650}";
}
);
layerId = "E25E64E2-9639-43F9-BB85-44020EE7B81E";
paths = (
{
closed = 1;
nodes = (
"608 71 LINE",
"577 164 LINE",
"402 110 LINE",
"277 111 OFFCURVE",
"216 216 OFFCURVE",
"216 350 CURVE SMOOTH",
"216 436 OFFCURVE",
"241 526 OFFCURVE",
"293 582 CURVE",
"404 571 OFFCURVE",
"483 528 OFFCURVE",
"556 467 CURVE",
"589 620 LINE",
"542 652 OFFCURVE",
"478 686 OFFCURVE",
"371 686 CURVE SMOOTH",
"124 686 OFFCURVE",
"8 505 OFFCURVE",
"8 324 CURVE SMOOTH",
"8 168 OFFCURVE",
"94 -31 OFFCURVE",
"394 -17 CURVE"
);
},
{
closed = 1;
nodes = (
"563 415 LINE",
"578 471 OFFCURVE",
"593 574 OFFCURVE",
"589 620 CURVE",
"387 622 LINE",
"439 415 LINE"
);
}
);
width = 612;
}
);
leftKerningGroup = O;
leftMetricsKey = O;
rightKerningGroup = C;
unicode = 0043;
},
{
color = 3;
glyphname = D;
lastChange = "2019-02-26 16:52:46 +0000";
layers = (
{
anchors = (
{
name = bottom;
position = "{60, 0}";
},
{
name = center;
position = "{388, 325}";
},
{
name = top;
position = "{381, 650}";
}
);
layerId = "E25E64E2-9639-43F9-BB85-44020EE7B81E";
paths = (
{
closed = 1;
nodes = (
"390 0 LINE SMOOTH",
"632 0 OFFCURVE",
"749 163 OFFCURVE",
"749 339 CURVE SMOOTH",
"749 499 OFFCURVE",
"629 674 OFFCURVE",
"382 674 CURVE SMOOTH",
"265 674 OFFCURVE",
"154 672 OFFCURVE",
"37 666 CURVE",
"311 561 LINE",
"424 577 LINE",
"492 530 OFFCURVE",
"532 426 OFFCURVE",
"532 327 CURVE SMOOTH",
"532 217 OFFCURVE",
"483 100 OFFCURVE",
"376 100 CURVE SMOOTH",
"350 100 OFFCURVE",
"321 106 OFFCURVE",
"288 121 CURVE",
"300 0 LINE"
);
},
{
closed = 1;
nodes = (
"122 0 LINE",
"121 91 LINE",
"83 73 OFFCURVE",
"50 54 OFFCURVE",
"22 32 CURVE",
"28 0 LINE"
);
},
{
closed = 1;
nodes = (
"317 0 LINE",
"317 666 LINE",
"107 666 LINE",
"107 0 LINE"
);
},
{
closed = 1;
nodes = (
"168 666 LINE",
"37 666 LINE",
"36 611 LINE",
"166 589 LINE"
);
}
);
width = 757;
}
);
leftKerningGroup = I;
leftMetricsKey = I;
rightKerningGroup = O;
rightMetricsKey = O;
unicode = 0044;
},
{
color = 3;
glyphname = E;
lastChange = "2019-02-26 16:52:46 +0000";
layers = (
{
anchors = (
{
name = bottom;
position = "{332, 0}";
},
{
name = ogonek;
position = "{654, 0}";
},
{
name = top;
position = "{332, 650}";
}
);
layerId = "E25E64E2-9639-43F9-BB85-44020EE7B81E";
paths = (
{
closed = 1;
nodes = (
"317 0 LINE",
"317 666 LINE",
"107 666 LINE",
"107 0 LINE"
);
},
{
closed = 1;
nodes = (
"122 0 LINE",
"121 91 LINE",
"83 73 OFFCURVE",
"50 54 OFFCURVE",
"22 32 CURVE",
"28 0 LINE"
);
},
{
closed = 1;
nodes = (
"607 0 LINE",
"606 127 LINE",
"282 98 LINE",
"207 0 LINE"
);
},
{
closed = 1;
nodes = (
"616 64 OFFCURVE",
"622 159 OFFCURVE",
"620 218 CURVE",
"505 227 LINE",
"429 8 LINE",
"608 0 LINE"
);
},
{
closed = 1;
nodes = (
"163 666 LINE",
"32 666 LINE",
"31 611 LINE",
"161 589 LINE"
);
},
{
closed = 1;
nodes = (
"520 393 LINE",
"280 373 LINE",
"280 288 LINE",
"520 278 LINE"
);
},
{
closed = 1;
nodes = (
"617 666 LINE",
"200 666 LINE",
"275 570 LINE",
"604 547 LINE"
);
},
{
closed = 1;
nodes = (
"596 451 LINE",
"611 520 OFFCURVE",
"619 620 OFFCURVE",
"617 666 CURVE",
"442 657 LINE",
"481 451 LINE"
);
}
);
width = 670;
}
);
leftKerningGroup = I;
leftMetricsKey = I;
rightKerningGroup = E;
unicode = 0045;
},
{
color = 3;
glyphname = F;
lastChange = "2019-02-26 16:52:46 +0000";
layers = (
{
anchors = (
{
name = bottom;
position = "{56, 0}";
},
{
name = top;
position = "{56, 130}";
}
);
layerId = "E25E64E2-9639-43F9-BB85-44020EE7B81E";
paths = (
{
closed = 1;
nodes = (
"309 0 LINE",
"309 666 LINE",
"99 666 LINE",
"99 0 LINE"
);
},
{
closed = 1;
nodes = (
"122 0 LINE",
"121 91 LINE",
"83 73 OFFCURVE",
"50 54 OFFCURVE",
"22 32 CURVE",
"28 0 LINE"
);
},
{
closed = 1;
nodes = (
"432 0 LINE",
"433 55 LINE",
"295 79 LINE",
"292 0 LINE"
);
},
{
closed = 1;
nodes = (
"155 666 LINE",
"24 666 LINE",
"23 611 LINE",
"153 589 LINE"
);
},
{
closed = 1;
nodes = (
"528 373 LINE",
"288 356 LINE",
"288 262 LINE",
"528 250 LINE"
);
},
{
closed = 1;
nodes = (
"609 666 LINE",
"208 666 LINE",
"283 570 LINE",
"574 549 LINE"
);
},
{
closed = 1;
nodes = (
"588 443 LINE",
"603 512 OFFCURVE",
"611 620 OFFCURVE",
"609 666 CURVE",
"434 657 LINE",
"473 443 LINE"
);
}
);
width = 659;
}
);
leftKerningGroup = I;
leftMetricsKey = I;
rightMetricsKey = E;
unicode = 0046;
},
{
color = 3;
glyphname = G;
lastChange = "2019-02-26 16:52:46 +0000";
layers = (
{
anchors = (
{
name = bottom;
position = "{358, 0}";
},
{
name = top;
position = "{358, 650}";
}
);
layerId = "E25E64E2-9639-43F9-BB85-44020EE7B81E";
paths = (
{
closed = 1;
nodes = (
"631 67 LINE",
"586 130 LINE",
"542 117 OFFCURVE",
"458 98 OFFCURVE",
"398 101 CURVE SMOOTH",
"273 108 OFFCURVE",
"215 228 OFFCURVE",
"215 353 CURVE SMOOTH",
"215 440 OFFCURVE",
"241 529 OFFCURVE",
"295 582 CURVE",
"443 579 OFFCURVE",
"530 522 OFFCURVE",
"588 474 CURVE",
"619 625 LINE",
"582 649 OFFCURVE",
"505 686 OFFCURVE",
"394 686 CURVE SMOOTH",
"146 686 OFFCURVE",
"8 511 OFFCURVE",
"8 321 CURVE SMOOTH",
"8 169 OFFCURVE",
"97 -36 OFFCURVE",
"400 -20 CURVE"
);
},
{
closed = 1;
nodes = (
"459 305 LINE",
"361 305 LINE",
"355 272 LINE",
"385 249 OFFCURVE",
"422 229 OFFCURVE",
"461 211 CURVE"
);
},
{
closed = 1;
nodes = (
"631 67 LINE",
"631 305 LINE",
"445 305 LINE",
"445 65 LINE"
);
},
{
closed = 1;
nodes = (
"707 258 LINE",
"706 305 LINE",
"558 305 LINE",
"567 217 LINE"
);
},
{
closed = 1;
nodes = (
"595 430 LINE",
"611 489 OFFCURVE",
"623 579 OFFCURVE",
"619 625 CURVE",
"417 627 LINE",
"472 430 LINE"
);
}
);
width = 721;
}
);
leftKerningGroup = O;
leftMetricsKey = O;
rightKerningGroup = G;
unicode = 0047;
},
{
color = 3;
glyphname = H;
lastChange = "2019-02-26 16:52:46 +0000";
layers = (
{
anchors = (
{
name = center;
position = "{428, 325}";
},
{
name = top;
position = "{428, 650}";
}
);
layerId = "E25E64E2-9639-43F9-BB85-44020EE7B81E";
paths = (
{
closed = 1;
nodes = (
"744 0 LINE",
"744 666 LINE",
"534 666 LINE",
"534 0 LINE"
);
},
{
closed = 1;
nodes = (
"122 0 LINE",
"121 91 LINE",
"83 73 OFFCURVE",
"50 54 OFFCURVE",
"22 32 CURVE",
"28 0 LINE"
);
},
{
closed = 1;
nodes = (
"405 0 LINE",
"406 55 LINE",
"268 79 LINE",
"265 0 LINE"
);
},
{
closed = 1;
nodes = (
"549 0 LINE",
"548 91 LINE",
"510 73 OFFCURVE",
"477 54 OFFCURVE",
"449 32 CURVE",
"455 0 LINE"
);
},
{
closed = 1;
nodes = (
"317 0 LINE",
"317 666 LINE",
"107 666 LINE",
"107 0 LINE"
);
},
{
closed = 1;
nodes = (
"171 666 LINE",
"31 666 LINE",
"30 611 LINE",
"168 587 LINE"
);
},
{
closed = 1;
nodes = (
"602 281 LINE",
"602 383 LINE",
"258 383 LINE",
"258 281 LINE"
);
},
{
closed = 1;
nodes = (
"832 0 LINE",
"833 55 LINE",
"695 79 LINE",
"692 0 LINE"
);
},
{
closed = 1;
nodes = (
"341 593 OFFCURVE",
"374 612 OFFCURVE",
"402 634 CURVE",
"396 666 LINE",
"302 666 LINE",
"303 575 LINE"
);
},
{
closed = 1;
nodes = (
"598 666 LINE",
"458 666 LINE",
"457 611 LINE",
"595 587 LINE"
);
},
{
closed = 1;
nodes = (
"768 593 OFFCURVE",
"801 612 OFFCURVE",
"829 634 CURVE",
"823 666 LINE",
"729 666 LINE",
"730 575 LINE"
);
}
);
width = 855;
}
);
leftKerningGroup = I;
leftMetricsKey = I;
rightKerningGroup = I;
rightMetricsKey = I;
unicode = 0048;
},
{
color = 3;
glyphname = I;
lastChange = "2019-02-26 16:52:46 +0000";
layers = (
{
anchors = (
{
name = ogonek;
position = "{350, 0}";
},
{
name = top;
position = "{213, 650}";
}
);
layerId = "E25E64E2-9639-43F9-BB85-44020EE7B81E";
paths = (
{
closed = 1;
nodes = (
"317 0 LINE",
"317 666 LINE",
"107 666 LINE",
"107 0 LINE"
);
},
{
closed = 1;
nodes = (
"122 0 LINE",
"121 91 LINE",
"83 73 OFFCURVE",
"50 54 OFFCURVE",
"22 32 CURVE",
"28 0 LINE"
);
},
{
closed = 1;
nodes = (
"405 0 LINE",
"406 55 LINE",
"268 79 LINE",
"265 0 LINE"
);
},
{
closed = 1;
nodes = (
"171 666 LINE",
"31 666 LINE",
"30 611 LINE",
"168 587 LINE"
);
},
{
closed = 1;
nodes = (
"341 593 OFFCURVE",
"374 612 OFFCURVE",
"402 634 CURVE",
"396 666 LINE",
"302 666 LINE",
"303 575 LINE"
);
}
);
width = 428;
}
);
leftKerningGroup = I;
rightKerningGroup = I;
unicode = 0049;
},
{
color = 3;
glyphname = J;
lastChange = "2018-12-16 01:01:00 +0000";
layers = (
{
anchors = (
{
name = top;
position = "{221, 650}";
}
);
layerId = "E25E64E2-9639-43F9-BB85-44020EE7B81E";
paths = (
{
closed = 1;
nodes = (
"196 -132 OFFCURVE",
"321 -47 OFFCURVE",
"321 177 CURVE SMOOTH",
"321 666 LINE",
"112 666 LINE",
"112 152 LINE SMOOTH",
"112 -16 OFFCURVE",
"53 -78 OFFCURVE",
"-31 -131 CURVE",
"3 -190 LINE"
);
},
{
closed = 1;
nodes = (
"172 666 LINE",
"32 666 LINE",
"31 611 LINE",
"169 587 LINE"
);
},
{
closed = 1;
nodes = (
"346 593 OFFCURVE",
"379 612 OFFCURVE",
"407 634 CURVE",
"401 666 LINE",
"307 666 LINE",
"308 575 LINE"
);
}
);
width = 425;
}
);
unicode = 004A;
},
{
color = 3;
glyphname = K;
lastChange = "2019-02-26 16:52:46 +0000";
layers = (
{
anchors = (
{
name = bottom;
position = "{408, 0}";
},
{
name = top;
position = "{400, 650}";
}
);
layerId = "E25E64E2-9639-43F9-BB85-44020EE7B81E";
paths = (
{
closed = 1;
nodes = (
"667 613 LINE",
"675 666 LINE",
"575 666 LINE",
"246 313 LINE",
"268 194 LINE"
);
},
{
closed = 1;
nodes = (
"122 0 LINE",
"121 91 LINE",
"83 73 OFFCURVE",
"50 54 OFFCURVE",
"22 32 CURVE",
"28 0 LINE"
);
},
{
closed = 1;
nodes = (
"389 0 LINE",
"390 55 LINE",
"252 79 LINE",
"249 0 LINE"
);
},
{
closed = 1;
nodes = (
"317 0 LINE",
"317 666 LINE",
"107 666 LINE",
"107 0 LINE"
);
},
{
closed = 1;
nodes = (
"171 666 LINE",
"31 666 LINE",
"30 611 LINE",
"168 587 LINE"
);
},
{
closed = 1;
nodes = (
"770 0 LINE",
"468 409 LINE",
"324 277 LINE",
"518 0 LINE"
);
},
{
closed = 1;
nodes = (
"781 0 LINE",
"782 55 LINE",
"652 85 LINE",
"650 0 LINE"
);
},
{
closed = 1;
nodes = (
"341 593 OFFCURVE",
"374 612 OFFCURVE",
"402 634 CURVE",
"396 666 LINE",
"302 666 LINE",
"303 575 LINE"
);
},
{
closed = 1;
nodes = (
"592 666 LINE",
"452 666 LINE",
"451 611 LINE",
"589 587 LINE"
);
},
{
closed = 1;
nodes = (
"653 591 OFFCURVE",
"710 612 OFFCURVE",
"738 634 CURVE",
"732 666 LINE",
"614 666 LINE",
"615 575 LINE"
);
}
);
width = 787;
}
);
leftKerningGroup = I;
leftMetricsKey = I;
rightKerningGroup = K;
unicode = 004B;
},
{
color = 3;
glyphname = L;
lastChange = "2019-02-26 16:52:46 +0000";
layers = (
{
anchors = (
{
name = bottom;
position = "{332, 0}";
},
{
name = top;
position = "{230, 650}";
},
{
name = topright;
position = "{625, 650}";
}
);
layerId = "E25E64E2-9639-43F9-BB85-44020EE7B81E";
paths = (
{
closed = 1;
nodes = (
"317 0 LINE",
"317 666 LINE",
"107 666 LINE",
"107 0 LINE"
);
},
{
closed = 1;
nodes = (
"122 0 LINE",
"121 91 LINE",
"83 73 OFFCURVE",
"50 54 OFFCURVE",
"22 32 CURVE",
"28 0 LINE"
);
},
{
closed = 1;
nodes = (
"628 0 LINE",
"611 135 LINE",
"290 98 LINE",
"215 0 LINE"
);
},
{
closed = 1;
nodes = (
"642 73 OFFCURVE",
"646 189 OFFCURVE",
"644 261 CURVE",
"525 272 LINE",
"438 8 LINE",
"629 0 LINE"
);
},
{
closed = 1;
nodes = (
"171 666 LINE",
"31 666 LINE",
"30 611 LINE",
"168 587 LINE"
);
},
{
closed = 1;
nodes = (
"341 593 OFFCURVE",
"374 612 OFFCURVE",
"402 634 CURVE",
"396 666 LINE",
"302 666 LINE",
"303 575 LINE"
);
}
);
width = 643;
}
);
leftKerningGroup = I;
leftMetricsKey = I;
rightKerningGroup = L;
unicode = 004C;
},
{
color = 3;
glyphname = M;
lastChange = "2019-02-26 16:52:46 +0000";
layers = (
{
layerId = "E25E64E2-9639-43F9-BB85-44020EE7B81E";
paths = (
{
closed = 1;
nodes = (
"544 16 LINE",
"544 136 LINE",
"361 650 LINE",
"181 605 LINE",
"402 -7 LINE"
);
},
{
closed = 1;
nodes = (
"122 0 LINE",
"121 91 LINE",
"83 73 OFFCURVE",
"50 54 OFFCURVE",
"22 32 CURVE",
"28 0 LINE"
);
},
{
closed = 1;
nodes = (
"336 0 LINE",
"337 47 LINE SMOOTH",
"199 87 LINE",
"196 0 LINE"
);
},
{
closed = 1;
nodes = (
"251 0 LINE",
"253 264 LINE",
"233 519 LINE",
"362 650 LINE",
"121 650 LINE",
"108 0 LINE"
);
},
{
closed = 1;
nodes = (
"711 0 LINE",
"710 91 LINE",
"672 73 OFFCURVE",
"639 54 OFFCURVE",
"611 32 CURVE",
"617 0 LINE"
);
},
{
closed = 1;
nodes = (
"175 650 LINE",
"35 650 LINE",
"34 603 LINE",
"172 563 LINE"
);
},
{
closed = 1;
nodes = (
"773 613 LINE",
"689 650 LINE",
"457 36 LINE",
"544 16 LINE"
);
},
{
closed = 1;
nodes = (
"985 0 LINE",
"986 47 LINE",
"848 87 LINE",
"845 0 LINE"
);
},
{
closed = 1;
nodes = (
"897 0 LINE",
"887 650 LINE",
"689 650 LINE",
"715 523 LINE",
"695 264 LINE",
"696 0 LINE"
);
},
{
closed = 1;
nodes = (
"917 577 OFFCURVE",
"950 596 OFFCURVE",
"978 618 CURVE",
"972 650 LINE",
"878 650 LINE",
"879 559 LINE"
);
}
);
width = 1008;
}
);
leftKerningGroup = I;
leftMetricsKey = I;
rightKerningGroup = I;
rightMetricsKey = I;
unicode = 004D;
},
{
color = 3;
glyphname = N;
lastChange = "2019-02-26 16:52:46 +0000";
layers = (
{
anchors = (
{
name = bottom;
position = "{395, 0}";
},
{
name = top;
position = "{381, 650}";
}
);
layerId = "E25E64E2-9639-43F9-BB85-44020EE7B81E";
paths = (
{
closed = 1;
nodes = (
"646 13 LINE",
"672 99 LINE",
"298 666 LINE",
"122 666 LINE",
"121 568 LINE",
"516 -14 LINE"
);
},
{
closed = 1;
nodes = (
"122 0 LINE",
"121 91 LINE",
"83 73 OFFCURVE",
"50 54 OFFCURVE",
"22 32 CURVE",
"28 0 LINE"
);
},
{
closed = 1;
nodes = (
"336 0 LINE",
"337 55 LINE",
"199 79 LINE",
"196 0 LINE"
);
},
{
closed = 1;
nodes = (
"249 0 LINE",
"249 280 LINE",
"221 534 LINE",
"299 666 LINE",
"107 666 LINE",
"107 0 LINE"
);
},
{
closed = 1;
nodes = (
"157 666 LINE",
"33 666 LINE",
"32 611 LINE",
"154 587 LINE"
);
},
{
closed = 1;
nodes = (
"695 0 LINE",
"703 666 LINE",
"561 666 LINE",
"561 370 LINE",
"597 42 LINE",
"516 -14 LINE"
);
},
{
closed = 1;
nodes = (
"604 666 LINE",
"464 666 LINE",
"463 611 LINE",
"601 587 LINE"
);
},
{
closed = 1;
nodes = (
"719 593 OFFCURVE",
"752 612 OFFCURVE",
"780 634 CURVE",
"774 666 LINE",
"680 666 LINE",
"681 575 LINE"
);
}
);
width = 802;
}
);
leftKerningGroup = I;
leftMetricsKey = I;
rightKerningGroup = I;
rightMetricsKey = I;
unicode = 004E;
},
{
color = 3;
glyphname = O;
lastChange = "2019-02-26 16:52:46 +0000";
layers = (
{
anchors = (
{
name = top;
position = "{350, 650}";
}
);
layerId = "E25E64E2-9639-43F9-BB85-44020EE7B81E";
paths = (
{
closed = 1;
nodes = (
"532 -20 OFFCURVE",
"690 94 OFFCURVE",
"690 323 CURVE SMOOTH",
"690 554 OFFCURVE",
"531 686 OFFCURVE",
"347 686 CURVE SMOOTH",
"159 686 OFFCURVE",
"8 548 OFFCURVE",
"8 328 CURVE SMOOTH",
"8 99 OFFCURVE",
"171 -20 OFFCURVE",
"354 -20 CURVE SMOOTH"
);
},
{
closed = 1;
nodes = (
"282 85 OFFCURVE",
"227 186 OFFCURVE",
"227 350 CURVE SMOOTH",
"227 460 OFFCURVE",
"252 536 OFFCURVE",
"283 568 CURVE",
"298 574 OFFCURVE",
"316 579 OFFCURVE",
"334 579 CURVE SMOOTH",
"429 579 OFFCURVE",
"471 453 OFFCURVE",
"471 321 CURVE SMOOTH",
"471 220 OFFCURVE",
"446 133 OFFCURVE",
"409 93 CURVE",
"399 89 OFFCURVE",
"389 85 OFFCURVE",
"372 85 CURVE SMOOTH"
);
}
);
width = 698;
}
);
leftKerningGroup = O;
rightKerningGroup = O;
unicode = 004F;
},
{
color = 3;
glyphname = P;
lastChange = "2019-02-26 16:52:46 +0000";
layers = (
{
layerId = "E25E64E2-9639-43F9-BB85-44020EE7B81E";
paths = (
{
closed = 1;
nodes = (
"400 230 LINE SMOOTH",
"558 231 OFFCURVE",
"671 321 OFFCURVE",
"671 446 CURVE SMOOTH",
"671 563 OFFCURVE",
"574 676 OFFCURVE",
"391 674 CURVE SMOOTH",
"24 666 LINE",
"299 561 LINE",
"416 577 LINE",
"445 556 OFFCURVE",
"460 494 OFFCURVE",
"460 448 CURVE SMOOTH",
"460 387 OFFCURVE",
"430 333 OFFCURVE",
"363 333 CURVE SMOOTH",
"343 333 OFFCURVE",
"314 337 OFFCURVE",
"285 349 CURVE",
"282 229 LINE"
);
},
{
closed = 1;
nodes = (
"122 0 LINE",
"121 91 LINE",
"83 73 OFFCURVE",
"50 54 OFFCURVE",
"22 32 CURVE",
"28 0 LINE"
);
},
{
closed = 1;
nodes = (
"432 0 LINE",
"433 55 LINE",
"295 79 LINE",
"292 0 LINE"
);
},
{
closed = 1;
nodes = (
"309 0 LINE",
"309 666 LINE",
"99 666 LINE",
"99 0 LINE"
);
},
{
closed = 1;
nodes = (
"155 666 LINE",
"24 666 LINE",
"23 611 LINE",
"153 589 LINE"
);
}
);
width = 680;
}
);
leftKerningGroup = I;
leftMetricsKey = I;
unicode = 0050;
},
{
color = 3;
glyphname = Q;
lastChange = "2019-02-26 16:52:46 +0000";
layers = (
{
components = (
{
name = O;
}
);
layerId = "E25E64E2-9639-43F9-BB85-44020EE7B81E";
paths = (
{
closed = 1;
nodes = (
"735 -32 LINE",
"371 50 LINE",
"336 -3 LINE",
"640 -202 LINE"
);
}
);
width = 735;
}
);
leftKerningGroup = O;
leftMetricsKey = O;
rightKerningGroup = O;
unicode = 0051;
},
{
color = 3;
glyphname = R;
lastChange = "2019-02-26 16:52:46 +0000";
layers = (
{
anchors = (
{
name = bottom;
position = "{370, 0}";
},
{
name = top;
position = "{357, 650}";
}
);
layerId = "E25E64E2-9639-43F9-BB85-44020EE7B81E";
paths = (
{
closed = 1;
nodes = (
"416 249 LINE SMOOTH",
"563 249 OFFCURVE",
"678 341 OFFCURVE",
"678 460 CURVE SMOOTH",
"678 577 OFFCURVE",
"566 674 OFFCURVE",
"391 674 CURVE",
"32 666 LINE",
"308 561 LINE",
"424 577 LINE",
"452 547 OFFCURVE",
"466 499 OFFCURVE",
"466 455 CURVE SMOOTH",
"466 385 OFFCURVE",
"431 343 OFFCURVE",
"364 343 CURVE SMOOTH",
"339 343 OFFCURVE",
"308 350 OFFCURVE",
"277 365 CURVE",
"290 248 LINE"
);
},
{
closed = 1;
nodes = (
"122 0 LINE",
"121 91 LINE",
"83 73 OFFCURVE",
"50 54 OFFCURVE",
"22 32 CURVE",
"28 0 LINE"
);
},
{
closed = 1;
nodes = (
"391 0 LINE",
"392 55 LINE",
"254 79 LINE",
"251 0 LINE"
);
},
{
closed = 1;
nodes = (
"317 0 LINE",
"317 666 LINE",
"107 666 LINE",
"107 0 LINE"
);
},
{
closed = 1;
nodes = (
"724 0 LINE",
"540 297 LINE",
"345 288 LINE",
"494 0 LINE"
);
},
{
closed = 1;
nodes = (
"742 0 LINE",
"743 55 LINE",
"605 78 LINE",
"602 0 LINE"
);
},
{
closed = 1;
nodes = (
"163 666 LINE",
"32 666 LINE",
"31 611 LINE",
"161 589 LINE"
);
}
);
width = 746;
}
);
leftKerningGroup = I;
leftMetricsKey = I;
rightKerningGroup = R;
unicode = 0052;
},
{
color = 3;
glyphname = S;
lastChange = "2019-02-26 16:52:46 +0000";
layers = (
{
anchors = (
{
name = bottom;
position = "{312, 0}";
},
{
name = top;
position = "{323, 650}";
}
);
layerId = "E25E64E2-9639-43F9-BB85-44020EE7B81E";
paths = (
{
closed = 1;
nodes = (
"464 -19 OFFCURVE",
"589 55 OFFCURVE",
"589 190 CURVE SMOOTH",
"589 315 OFFCURVE",
"494 369 OFFCURVE",
"404 411 CURVE SMOOTH",
"320 450 OFFCURVE",
"243 475 OFFCURVE",
"243 526 CURVE SMOOTH",
"243 548 OFFCURVE",
"256 578 OFFCURVE",
"287 596 CURVE",
"370 590 OFFCURVE",
"442 561 OFFCURVE",
"503 495 CURVE",
"559 645 LINE",
"501 668 OFFCURVE",
"405 686 OFFCURVE",
"329 686 CURVE SMOOTH",
"159 686 OFFCURVE",
"48 597 OFFCURVE",
"48 473 CURVE SMOOTH",
"48 355 OFFCURVE",
"148 300 OFFCURVE",
"238 258 CURVE SMOOTH",
"317 222 OFFCURVE",
"383 196 OFFCURVE",
"383 140 CURVE SMOOTH",
"383 117 OFFCURVE",
"369 91 OFFCURVE",
"331 74 CURVE",
"249 81 OFFCURVE",
"164 112 OFFCURVE",
"101 177 CURVE",
"50 39 LINE",
"126 2 OFFCURVE",
"235 -19 OFFCURVE",
"315 -19 CURVE SMOOTH"
);
},
{
closed = 1;
nodes = (
"161 241 LINE",
"71 241 LINE",
"57 190 OFFCURVE",
"46 85 OFFCURVE",
"51 39 CURVE",
"276 28 LINE"
);
},
{
closed = 1;
nodes = (
"535 447 LINE",
"550 506 OFFCURVE",
"556 583 OFFCURVE",
"559 645 CURVE",
"358 638 LINE",
"430 447 LINE"
);
}
);
width = 622;
}
);
leftKerningGroup = S;
rightKerningGroup = S;
unicode = 0053;
},
{
color = 3;
glyphname = T;
lastChange = "2019-02-26 16:52:46 +0000";
layers = (
{
anchors = (
{
name = bottom;
position = "{346, 0}";
},
{
name = center;
position = "{346, 325}";
},
{
name = top;
position = "{346, 650}";
}
);
layerId = "E25E64E2-9639-43F9-BB85-44020EE7B81E";
paths = (
{
closed = 1;
nodes = (
"452 0 LINE",
"452 666 LINE",
"242 666 LINE",
"242 0 LINE"
);
},
{
closed = 1;
nodes = (
"250 0 LINE",
"249 91 LINE",
"211 73 OFFCURVE",
"175 54 OFFCURVE",
"147 32 CURVE",
"153 0 LINE"
);
},
{
closed = 1;
nodes = (
"543 0 LINE",
"544 55 LINE",
"406 79 LINE",
"403 0 LINE"
);
},
{
closed = 1;
nodes = (
"135 419 LINE",
"160 658 LINE",
"7 672 LINE",
"2 626 OFFCURVE",
"14 486 OFFCURVE",
"29 419 CURVE"
);
},
{
closed = 1;
nodes = (
"347 595 LINE",
"668 558 LINE",
"685 672 LINE",
"396 666 OFFCURVE",
"302 666 OFFCURVE",
"7 672 CURVE",
"24 558 LINE"
);
},
{
closed = 1;
nodes = (
"664 419 LINE",
"678 486 OFFCURVE",
"690 626 OFFCURVE",
"686 672 CURVE",
"532 658 LINE",
"557 419 LINE SMOOTH"
);
}
);
width = 692;
}
);
leftKerningGroup = T;
rightKerningGroup = T;
unicode = 0054;
},
{
color = 3;
glyphname = U;
lastChange = "2019-02-26 16:52:46 +0000";
layers = (
{
anchors = (
{
name = ogonek;
position = "{551, 0}";
},
{
name = top;
position = "{385, 650}";
}
);
layerId = "E25E64E2-9639-43F9-BB85-44020EE7B81E";
paths = (
{
closed = 1;
nodes = (
"552 -20 OFFCURVE",
"682 51 OFFCURVE",
"682 289 CURVE SMOOTH",
"682 666 LINE",
"540 666 LINE",
"540 295 LINE SMOOTH",
"540 210 OFFCURVE",
"529 146 OFFCURVE",
"506 114 CURVE",
"486 97 OFFCURVE",
"460 87 OFFCURVE",
"427 87 CURVE SMOOTH",
"353 87 OFFCURVE",
"293 134 OFFCURVE",
"293 257 CURVE SMOOTH",
"293 666 LINE",
"83 666 LINE",
"83 307 LINE SMOOTH",
"83 81 OFFCURVE",
"225 -20 OFFCURVE",
"404 -20 CURVE SMOOTH"
);
},
{
closed = 1;
nodes = (
"147 666 LINE",
"7 666 LINE",
"6 611 LINE",
"144 587 LINE"
);
},
{
closed = 1;
nodes = (
"317 593 OFFCURVE",
"350 612 OFFCURVE",
"378 634 CURVE",
"372 666 LINE",
"278 666 LINE",
"279 575 LINE"
);
},
{
closed = 1;
nodes = (
"601 666 LINE",
"461 666 LINE",
"460 611 LINE",
"598 587 LINE"
);
},
{
closed = 1;
nodes = (
"706 593 OFFCURVE",
"739 612 OFFCURVE",
"767 634 CURVE",
"761 666 LINE",
"667 666 LINE",
"668 575 LINE"
);
}
);
width = 773;
}
);
leftKerningGroup = U;
rightKerningGroup = U;
unicode = 0055;
},
{
color = 3;
glyphname = V;
lastChange = "2019-02-26 16:52:46 +0000";
layers = (
{
layerId = "E25E64E2-9639-43F9-BB85-44020EE7B81E";
paths = (
{
closed = 1;
nodes = (
"352 -13 OFFCURVE",
"418 -6 OFFCURVE",
"468 2 CURVE",
"412 143 LINE",
"383 144 LINE",
"371 287 LINE",
"255 666 LINE",
"42 666 LINE",
"286 -18 LINE"
);
},
{
closed = 1;
nodes = (
"137 666 LINE",
"-3 666 LINE",
"-4 611 LINE",
"134 587 LINE"
);
},
{
closed = 1;
nodes = (
"692 666 LINE",
"561 666 LINE",
"357 37 LINE",
"467 2 LINE"
);
},
{
closed = 1;
nodes = (
"295 593 OFFCURVE",
"328 612 OFFCURVE",
"356 634 CURVE",
"350 666 LINE",
"252 666 LINE",
"257 575 LINE"
);
},
{
closed = 1;
nodes = (
"593 666 LINE",
"453 666 LINE",
"452 611 LINE",
"590 587 LINE"
);
},
{
closed = 1;
nodes = (
"681 593 OFFCURVE",
"714 612 OFFCURVE",
"742 634 CURVE",
"736 666 LINE",
"638 666 LINE",
"643 575 LINE"
);
}
);
width = 738;
}
);
leftKerningGroup = V;
rightKerningGroup = V;
unicode = 0056;
},
{
color = 3;
glyphname = W;
lastChange = "2019-02-26 16:52:46 +0000";
layers = (
{
anchors = (
{
name = top;
position = "{518, 650}";
}
);
layerId = "E25E64E2-9639-43F9-BB85-44020EE7B81E";
paths = (
{
closed = 1;
nodes = (
"335 -13 OFFCURVE",
"393 -7 OFFCURVE",
"443 2 CURVE",
"397 143 LINE",
"360 144 LINE",
"355 294 LINE",
"254 666 LINE",
"41 666 LINE",
"268 -18 LINE"
);
},
{
closed = 1;
nodes = (
"137 666 LINE",
"-3 666 LINE",
"-4 611 LINE",
"134 587 LINE"
);
},
{
closed = 1;
nodes = (
"499 185 LINE",
"526 314 LINE",
"544 315 LINE",
"594 487 LINE",
"478 535 LINE",
"336 37 LINE",
"443 2 LINE"
);
},
{
closed = 1;
nodes = (
"293 593 OFFCURVE",
"326 612 OFFCURVE",
"354 634 CURVE",
"348 666 LINE",
"250 666 LINE",
"255 575 LINE"
);
},
{
closed = 1;
nodes = (
"695 -13 OFFCURVE",
"753 -7 OFFCURVE",
"803 2 CURVE",
"765 143 LINE",
"723 144 LINE",
"715 315 LINE",
"615 664 LINE",
"420 623 LINE",
"628 -18 LINE"
);
},
{
closed = 1;
nodes = (
"995 666 LINE",
"865 666 LINE",
"695 37 LINE",
"803 2 LINE"
);
},
{
closed = 1;
nodes = (
"894 666 LINE",
"754 666 LINE",
"753 611 LINE",
"891 587 LINE"
);
},
{
closed = 1;
nodes = (
"984 593 OFFCURVE",
"1017 612 OFFCURVE",
"1045 634 CURVE",
"1039 666 LINE",
"941 666 LINE",
"946 575 LINE"
);
}
);
width = 1041;
}
);
leftKerningGroup = V;
leftMetricsKey = V;
rightKerningGroup = V;
rightMetricsKey = V;
unicode = 0057;
},
{
color = 3;
glyphname = X;
lastChange = "2018-12-16 01:01:00 +0000";
layers = (
{
layerId = "E25E64E2-9639-43F9-BB85-44020EE7B81E";
paths = (
{
closed = 1;
nodes = (
"723 0 LINE",
"267 666 LINE",
"35 666 LINE",
"490 0 LINE"
);
},
{
closed = 1;
nodes = (
"98 0 LINE",
"93 91 LINE",
"55 73 OFFCURVE",
"22 54 OFFCURVE",
"-6 32 CURVE",
"0 0 LINE"
);
},
{
closed = 1;
nodes = (
"300 0 LINE",
"301 55 LINE",
"163 79 LINE",
"160 0 LINE"
);
},
{
closed = 1;
nodes = (
"180 0 LINE",
"408 348 LINE",
"302 400 LINE",
"23 0 LINE"
);
},
{
closed = 1;
nodes = (
"496 0 LINE",
"491 91 LINE",
"453 73 OFFCURVE",
"420 54 OFFCURVE",
"392 32 CURVE",
"398 0 LINE"
);
},
{
closed = 1;
nodes = (
"157 666 LINE",
"17 666 LINE",
"16 611 LINE",
"154 587 LINE"
);
},
{
closed = 1;
nodes = (
"748 0 LINE",
"749 55 LINE",
"607 79 LINE",
"608 0 LINE"
);
},
{
closed = 1;
nodes = (
"299 593 OFFCURVE",
"332 612 OFFCURVE",
"360 634 CURVE",
"354 666 LINE",
"256 666 LINE",
"261 575 LINE"
);
},
{
closed = 1;
nodes = (
"688 666 LINE",
"549 666 LINE",
"368 377 LINE",
"477 345 LINE"
);
},
{
closed = 1;
nodes = (
"571 666 LINE",
"431 666 LINE",
"430 611 LINE",
"568 587 LINE"
);
},
{
closed = 1;
nodes = (
"658 593 OFFCURVE",
"691 612 OFFCURVE",
"719 634 CURVE",
"713 666 LINE",
"615 666 LINE",
"620 575 LINE"
);
}
);
width = 727;
}
);
unicode = 0058;
},
{
color = 3;
glyphname = Y;
lastChange = "2019-02-26 16:52:46 +0000";
layers = (
{
anchors = (
{
name = top;
position = "{370, 650}";
}
);
layerId = "E25E64E2-9639-43F9-BB85-44020EE7B81E";
paths = (
{
closed = 1;
nodes = (
"419 322 LINE",
"398 364 LINE",
"372 363 LINE",
"344 452 LINE",
"230 666 LINE",
"25 666 LINE",
"254 234 LINE"
);
},
{
closed = 1;
nodes = (
"266 0 LINE",
"265 91 LINE",
"227 73 OFFCURVE",
"194 54 OFFCURVE",
"166 32 CURVE",
"172 0 LINE"
);
},
{
closed = 1;
nodes = (
"536 0 LINE",
"537 55 LINE",
"399 79 LINE",
"396 0 LINE"
);
},
{
closed = 1;
nodes = (
"452 0 LINE",
"452 334 LINE",
"250 334 LINE",
"250 0 LINE"
);
},
{
closed = 1;
nodes = (
"137 666 LINE",
"-3 666 LINE",
"-4 611 LINE",
"134 587 LINE"
);
},
{
closed = 1;
nodes = (
"250 593 OFFCURVE",
"283 612 OFFCURVE",
"311 634 CURVE",
"305 666 LINE",
"207 666 LINE",
"212 575 LINE"
);
},
{
closed = 1;
nodes = (
"661 666 LINE",
"532 666 LINE",
"344 293 LINE",
"437 248 LINE"
);
},
{
closed = 1;
nodes = (
"571 666 LINE",
"431 666 LINE",
"430 611 LINE",
"568 587 LINE"
);
},
{
closed = 1;
nodes = (
"645 593 OFFCURVE",
"678 612 OFFCURVE",
"706 634 CURVE",
"700 666 LINE",
"602 666 LINE",
"607 575 LINE"
);
}
);
width = 702;
}
);
leftKerningGroup = Y;
leftMetricsKey = V;
rightKerningGroup = Y;
rightMetricsKey = V;
unicode = 0059;
},
{
color = 3;
glyphname = Z;
lastChange = "2019-02-26 16:52:46 +0000";
layers = (
{
layerId = "E25E64E2-9639-43F9-BB85-44020EE7B81E";
paths = (
{
closed = 1;
nodes = (
"147 39 LINE",
"241 47 LINE",
"648 578 LINE",
"603 666 LINE",
"537 623 LINE",
"432 611 LINE",
"31 90 LINE",
"89 -1 LINE"
);
},
{
closed = 1;
nodes = (
"627 0 LINE",
"610 118 LINE",
"154 97 LINE",
"89 -1 LINE"
);
},
{
closed = 1;
nodes = (
"641 86 OFFCURVE",
"650 151 OFFCURVE",
"653 235 CURVE",
"531 252 LINE",
"432 17 LINE",
"627 0 LINE"
);
},
{
closed = 1;
nodes = (
"187 416 LINE",
"251 602 LINE",
"67 666 LINE",
"60 588 OFFCURVE",
"60 491 OFFCURVE",
"73 416 CURVE"
);
},
{
closed = 1;
nodes = (
"574 588 LINE",
"603 666 LINE",
"67 666 LINE",
"104 548 LINE"
);
}
);
width = 689;
}
);
leftKerningGroup = Z;
rightKerningGroup = Z;
unicode = 005A;
},
{
color = 3;
glyphname = bracketleft;
lastChange = "2019-02-26 16:52:46 +0000";
layers = (
{
layerId = "E25E64E2-9639-43F9-BB85-44020EE7B81E";
paths = (
{
closed = 1;
nodes = (
"408 -122 LINE",
"414 -58 LINE",
"284 -20 LINE",
"284 610 LINE",
"414 648 LINE",
"408 712 LINE",
"84 712 LINE",
"84 -122 LINE"
);
}
);
width = 440;
}
);
rightKerningGroup = parenthesis;
unicode = 005B;
},
{
color = 3;
glyphname = backslash;
lastChange = "2019-02-26 16:52:46 +0000";
layers = (
{
layerId = "E25E64E2-9639-43F9-BB85-44020EE7B81E";
paths = (
{
closed = 1;
nodes = (
"415 -70 LINE",
"107 739 LINE",
"-39 681 LINE",
"267 -126 LINE"
);
}
);
width = 417;
}
);
rightKerningGroup = space;
unicode = 005C;
},
{
color = 3;
glyphname = bracketright;
lastChange = "2019-02-26 16:52:46 +0000";
layers = (
{
layerId = "E25E64E2-9639-43F9-BB85-44020EE7B81E";
paths = (
{
closed = 1;
nodes = (
"356 -122 LINE",
"356 712 LINE",
"32 712 LINE",
"26 648 LINE",
"156 610 LINE",
"156 -20 LINE",
"26 -58 LINE",
"32 -122 LINE"
);
}
);
width = 440;
}
);
leftKerningGroup = parenthesis;
unicode = 005D;
},
{
color = 3;
glyphname = asciicircum;
lastChange = "2018-12-16 01:01:00 +0000";
layers = (
{
layerId = "E25E64E2-9639-43F9-BB85-44020EE7B81E";
paths = (
{
closed = 1;
nodes = (
"238 520 LINE",
"245 520 LINE",
"384 320 LINE",
"477 380 LINE",
"289 650 LINE",
"191 650 LINE",
"8 379 LINE",
"106 319 LINE"
);
}
);
width = 483;
}
);
unicode = 005E;
},
{
color = 3;
glyphname = underscore;
lastChange = "2019-02-26 16:52:46 +0000";
layers = (
{
layerId = "E25E64E2-9639-43F9-BB85-44020EE7B81E";
paths = (
{
closed = 1;
nodes = (
"522 -221 LINE",
"522 -124 LINE",
"10 -124 LINE",
"10 -221 LINE"
);
}
);
width = 532;
}
);
rightKerningGroup = space;
unicode = 005F;
},
{
color = 3;
glyphname = a;
lastChange = "2019-02-26 16:52:46 +0000";
layers = (
{
anchors = (
{
name = top;
position = "{271, 468}";
}
);
layerId = "E25E64E2-9639-43F9-BB85-44020EE7B81E";
paths = (
{
closed = 1;
nodes = (
"578 65 LINE",
"575 110 LINE",
"551 109 OFFCURVE",
"538 108 OFFCURVE",
"522 108 CURVE SMOOTH",
"506 108 OFFCURVE",
"498 120 OFFCURVE",
"498 134 CURVE",
"498 329 LINE",
"498 385 OFFCURVE",
"496 415 OFFCURVE",
"486 431 CURVE SMOOTH",
"445 485 OFFCURVE",
"392 505 OFFCURVE",
"333 505 CURVE SMOOTH",
"273 505 OFFCURVE",
"150 486 OFFCURVE",
"59 454 CURVE",
"51 402 OFFCURVE",
"57 342 OFFCURVE",
"72 293 CURVE",
"186 294 LINE",
"215 406 LINE",
"224 411 OFFCURVE",
"239 415 OFFCURVE",
"252 416 CURVE",
"273 405 OFFCURVE",
"297 381 OFFCURVE",
"297 318 CURVE SMOOTH",
"297 73 LINE",
"316 70 LINE",
"343 14 OFFCURVE",
"389 -17 OFFCURVE",
"435 -17 CURVE"
);
},
{
closed = 1;
nodes = (
"342 69 LINE",
"325 111 LINE",
"300 104 OFFCURVE",
"266 94 OFFCURVE",
"235 90 CURVE",
"225 101 OFFCURVE",
"220 119 OFFCURVE",
"220 132 CURVE SMOOTH",
"220 167 OFFCURVE",
"258 178 OFFCURVE",
"299 178 CURVE",
"331 178 LINE",
"331 244 LINE",
"109 239 LINE",
"49 209 OFFCURVE",
"24 159 OFFCURVE",
"24 117 CURVE SMOOTH",
"24 46 OFFCURVE",
"96 -32 OFFCURVE",
"219 -12 CURVE"
);
}
);
width = 581;
}
);
leftKerningGroup = a;
rightKerningGroup = a;
unicode = 0061;
},
{
color = 3;
glyphname = b;
lastChange = "2019-02-26 16:52:46 +0000";
layers = (
{
layerId = "E25E64E2-9639-43F9-BB85-44020EE7B81E";
paths = (
{
closed = 1;
nodes = (
"484 -18 OFFCURVE",
"576 125 OFFCURVE",
"576 266 CURVE SMOOTH",
"576 398 OFFCURVE",
"496 516 OFFCURVE",
"356 494 CURVE",
"178 360 LINE",
"187 328 LINE",
"222 349 OFFCURVE",
"251 363 OFFCURVE",
"278 363 CURVE SMOOTH",
"337 363 OFFCURVE",
"369 302 OFFCURVE",
"369 232 CURVE SMOOTH",
"369 177 OFFCURVE",
"350 119 OFFCURVE",
"316 84 CURVE",
"256 76 OFFCURVE",
"203 96 OFFCURVE",
"160 145 CURVE",
"52 19 LINE",
"125 -4 OFFCURVE",
"208 -18 OFFCURVE",
"274 -18 CURVE SMOOTH"
);
},
{
closed = 1;
nodes = (
"254 40 LINE",
"254 683 LINE",
"195 737 LINE",
"53 679 LINE",
"53 19 LINE"
);
},
{
closed = 1;
nodes = (
"190 651 LINE",
"195 737 LINE",
"115 733 OFFCURVE",
"40 720 OFFCURVE",
"-24 698 CURVE",
"-22 648 LINE",
"103 617 LINE"
);
}
);
width = 589;
}
);
leftKerningGroup = b;
rightKerningGroup = o;
rightMetricsKey = o;
unicode = 0062;
},
{
color = 3;
glyphname = c;
lastChange = "2019-02-26 16:52:46 +0000";
layers = (
{
anchors = (
{
name = bottom;
position = "{255, 0}";
},
{
name = top;
position = "{271, 468}";
}
);
layerId = "E25E64E2-9639-43F9-BB85-44020EE7B81E";
paths = (
{
closed = 1;
nodes = (
"470 81 LINE",
"444 140 LINE",
"404 120 OFFCURVE",
"369 108 OFFCURVE",
"333 108 CURVE SMOOTH",
"245 108 OFFCURVE",
"199 176 OFFCURVE",
"199 269 CURVE SMOOTH",
"199 306 OFFCURVE",
"207 366 OFFCURVE",
"243 403 CURVE",
"276 376 OFFCURVE",
"298 333 OFFCURVE",
"319 274 CURVE",
"484 353 LINE",
"464 455 OFFCURVE",
"367 504 OFFCURVE",
"269 504 CURVE SMOOTH",
"123 504 OFFCURVE",
"8 399 OFFCURVE",
"8 240 CURVE SMOOTH",
"8 55 OFFCURVE",
"167 -43 OFFCURVE",
"322 -12 CURVE"
);
}
);
width = 479;
}
);
leftKerningGroup = o;
leftMetricsKey = o;
rightKerningGroup = c;
unicode = 0063;
},
{
color = 3;
glyphname = d;
lastChange = "2019-02-26 16:52:46 +0000";
layers = (
{
anchors = (
{
name = center;
position = "{54, 47}";
},
{
name = topright;
position = "{104, 130}";
}
);
layerId = "E25E64E2-9639-43F9-BB85-44020EE7B81E";
paths = (
{
closed = 1;
nodes = (
"407 119 LINE",
"415 168 LINE",
"372 137 OFFCURVE",
"330 124 OFFCURVE",
"303 124 CURVE SMOOTH",
"245 124 OFFCURVE",
"217 184 OFFCURVE",
"217 254 CURVE SMOOTH",
"217 310 OFFCURVE",
"235 369 OFFCURVE",
"268 401 CURVE",
"332 397 OFFCURVE",
"386 365 OFFCURVE",
"423 315 CURVE",
"445 456 LINE",
"388 485 OFFCURVE",
"335 499 OFFCURVE",
"279 499 CURVE SMOOTH",
"94 499 OFFCURVE",
"8 367 OFFCURVE",
"8 234 CURVE SMOOTH",
"8 102 OFFCURVE",
"89 -19 OFFCURVE",
"229 -17 CURVE"
);
},
{
closed = 1;
nodes = (
"607 65 LINE",
"604 110 LINE",
"580 109 OFFCURVE",
"567 108 OFFCURVE",
"551 108 CURVE SMOOTH",
"536 108 OFFCURVE",
"527 120 OFFCURVE",
"527 134 CURVE SMOOTH",
"527 683 LINE",
"468 737 LINE",
"326 679 LINE",
"326 73 LINE",
"345 70 LINE",
"372 14 OFFCURVE",
"417 -17 OFFCURVE",
"463 -17 CURVE"
);
},
{
closed = 1;
nodes = (
"463 651 LINE",
"468 737 LINE",
"388 733 OFFCURVE",
"313 720 OFFCURVE",
"249 698 CURVE",
"251 648 LINE",
"376 617 LINE"
);
}
);
width = 609;
}
);
leftKerningGroup = o;
leftMetricsKey = o;
rightKerningGroup = l;
unicode = 0064;
},
{
color = 3;
glyphname = e;
lastChange = "2019-02-26 16:52:46 +0000";
layers = (
{
anchors = (
{
name = bottom;
position = "{272, 0}";
},
{
name = ogonek;
position = "{481, 18}";
},
{
name = top;
position = "{267, 468}";
}
);
layerId = "E25E64E2-9639-43F9-BB85-44020EE7B81E";
paths = (
{
closed = 1;
nodes = (
"489 85 LINE",
"461 147 LINE",
"413 121 OFFCURVE",
"376 108 OFFCURVE",
"334 108 CURVE SMOOTH",
"251 108 OFFCURVE",
"192 159 OFFCURVE",
"192 257 CURVE SMOOTH",
"192 313 OFFCURVE",
"211 385 OFFCURVE",
"252 413 CURVE",
"303 407 OFFCURVE",
"333 331 OFFCURVE",
"323 271 CURVE",
"503 278 LINE",
"504 448 OFFCURVE",
"370 504 OFFCURVE",
"272 504 CURVE SMOOTH",
"138 504 OFFCURVE",
"8 401 OFFCURVE",
"8 236 CURVE SMOOTH",
"8 55 OFFCURVE",
"167 -42 OFFCURVE",
"331 -11 CURVE"
);
},
{
closed = 1;
nodes = (
"503 278 LINE",
"395 318 LINE",
"118 299 LINE",
"134 220 LINE",
"444 219 LINE"
);
}
);
width = 516;
}
);
leftKerningGroup = o;
leftMetricsKey = o;
rightKerningGroup = e;
unicode = 0065;
},
{
color = 3;
glyphname = f;
lastChange = "2019-02-26 16:52:46 +0000";
layers = (
{
layerId = "E25E64E2-9639-43F9-BB85-44020EE7B81E";
paths = (
{
closed = 1;
nodes = (
"287 0 LINE",
"287 437 LINE",
"288 467 LINE",
"211 634 LINE",
"270 603 OFFCURVE",
"319 568 OFFCURVE",
"361 527 CURVE",
"463 702 LINE",
"410 734 OFFCURVE",
"349 751 OFFCURVE",
"302 751 CURVE SMOOTH",
"182 751 OFFCURVE",
"85 651 OFFCURVE",
"85 526 CURVE SMOOTH",
"85 0 LINE"
);
},
{
closed = 1;
nodes = (
"143 0 LINE",
"151 88 LINE",
"109 79 OFFCURVE",
"61 61 OFFCURVE",
"19 35 CURVE",
"20 0 LINE"
);
},
{
closed = 1;
nodes = (
"377 0 LINE",
"378 49 LINE",
"336 76 OFFCURVE",
"291 94 OFFCURVE",
"247 107 CURVE",
"214 0 LINE"
);
},
{
closed = 1;
nodes = (
"228 351 LINE",
"231 426 LINE",
"149 499 LINE",
"102 469 OFFCURVE",
"54 439 OFFCURVE",
"6 406 CURVE",
"7 350 LINE"
);
},
{
closed = 1;
nodes = (
"348 349 LINE",
"400 418 LINE",
"399 474 LINE",
"230 474 LINE",
"230 349 LINE"
);
}
);
width = 408;
}
);
leftKerningGroup = f;
leftMetricsKey = n;
rightKerningGroup = f;
unicode = 0066;
},
{
color = 3;
glyphname = g;
lastChange = "2019-02-26 16:52:46 +0000";
layers = (
{
anchors = (
{
name = top;
position = "{268, 468}";
}
);
layerId = "E25E64E2-9639-43F9-BB85-44020EE7B81E";
paths = (
{
closed = 1;
nodes = (
"455 -252 OFFCURVE",
"612 -65 OFFCURVE",
"541 75 CURVE",
"441 104 OFFCURVE",
"319 126 OFFCURVE",
"201 127 CURVE",
"221 146 OFFCURVE",
"245 164 OFFCURVE",
"273 180 CURVE",
"206 197 LINE",
"141 167 OFFCURVE",
"90 129 OFFCURVE",
"39 78 CURVE",
"61 -4 LINE",
"195 -11 OFFCURVE",
"327 -32 OFFCURVE",
"416 -62 CURVE",
"388 -92 OFFCURVE",
"326 -109 OFFCURVE",
"270 -109 CURVE SMOOTH",
"210 -109 OFFCURVE",
"158 -91 OFFCURVE",
"158 -49 CURVE SMOOTH",
"158 -20 OFFCURVE",
"190 12 OFFCURVE",
"260 51 CURVE",
"164 44 LINE",
"7 -94 LINE",
"23 -216 OFFCURVE",
"141 -252 OFFCURVE",
"236 -252 CURVE SMOOTH"
);
},
{
closed = 1;
nodes = (
"429 156 OFFCURVE",
"516 241 OFFCURVE",
"516 331 CURVE SMOOTH",
"516 425 OFFCURVE",
"422 506 OFFCURVE",
"272 506 CURVE SMOOTH",
"111 506 OFFCURVE",
"25 413 OFFCURVE",
"25 326 CURVE SMOOTH",
"25 245 OFFCURVE",
"98 156 OFFCURVE",
"266 156 CURVE SMOOTH"
);
},
{
closed = 1;
nodes = (
"242 224 OFFCURVE",
"218 274 OFFCURVE",
"218 329 CURVE SMOOTH",
"218 366 OFFCURVE",
"227 410 OFFCURVE",
"241 419 CURVE",
"294 435 OFFCURVE",
"323 374 OFFCURVE",
"323 320 CURVE SMOOTH",
"323 283 OFFCURVE",
"312 246 OFFCURVE",
"295 236 CURVE"
);
},
{
closed = 1;
nodes = (
"435 375 LINE",
"475 411 OFFCURVE",
"526 424 OFFCURVE",
"587 413 CURVE",
"556 567 LINE",
"409 564 OFFCURVE",
"388 439 OFFCURVE",
"413 352 CURVE"
);
}
);
width = 591;
}
);
leftKerningGroup = g;
rightKerningGroup = g;
unicode = 0067;
},
{
color = 9;
glyphname = h;
lastChange = "2019-02-26 16:52:46 +0000";
layers = (
{
layerId = "E25E64E2-9639-43F9-BB85-44020EE7B81E";
paths = (
{
closed = 1;
nodes = (
"582 0 LINE",
"582 294 LINE SMOOTH",
"582 383 OFFCURVE",
"580 408 OFFCURVE",
"570 425 CURVE SMOOTH",
"529 489 OFFCURVE",
"455 500 OFFCURVE",
"416 498 CURVE",
"331 468 OFFCURVE",
"242 405 OFFCURVE",
"162 315 CURVE",
"163 294 LINE",
"211 330 OFFCURVE",
"264 366 OFFCURVE",
"311 369 CURVE SMOOTH",
"357 372 OFFCURVE",
"381 336 OFFCURVE",
"381 281 CURVE SMOOTH",
"381 0 LINE"
);
},
{
closed = 1;
nodes = (
"132 0 LINE",
"140 88 LINE",
"98 79 OFFCURVE",
"50 61 OFFCURVE",
"8 35 CURVE",
"9 0 LINE"
);
},
{
closed = 1;
nodes = (
"336 0 LINE",
"337 49 LINE",
"295 80 OFFCURVE",
"250 102 OFFCURVE",
"206 115 CURVE",
"173 0 LINE"
);
},
{
closed = 1;
nodes = (
"284 0 LINE",
"284 683 LINE",
"225 737 LINE",
"83 679 LINE",
"83 0 LINE"
);
},
{
closed = 1;
nodes = (
"645 0 LINE",
"646 49 LINE",
"604 80 OFFCURVE",
"559 102 OFFCURVE",
"515 115 CURVE",
"482 0 LINE"
);
},
{
closed = 1;
nodes = (
"220 651 LINE",
"225 737 LINE",
"145 733 OFFCURVE",
"70 720 OFFCURVE",
"6 698 CURVE",
"8 648 LINE",
"133 617 LINE"
);
}
);
width = 657;
}
);
leftKerningGroup = l;
leftMetricsKey = n;
rightKerningGroup = n;
rightMetricsKey = n;
unicode = 0068;
},
{
color = 3;
glyphname = i;
lastChange = "2019-02-26 16:52:46 +0000";
layers = (
{
anchors = (
{
name = ogonek;
position = "{48, 0}";
}
);
layerId = "E25E64E2-9639-43F9-BB85-44020EE7B81E";
paths = (
{
closed = 1;
nodes = (
"284 0 LINE",
"284 450 LINE",
"225 503 LINE",
"83 445 LINE",
"83 0 LINE"
);
},
{
closed = 1;
nodes = (
"131 0 LINE",
"139 88 LINE",
"97 79 OFFCURVE",
"49 61 OFFCURVE",
"7 35 CURVE",
"8 0 LINE"
);
},
{
closed = 1;
nodes = (
"355 0 LINE",
"356 49 LINE",
"314 80 OFFCURVE",
"253 102 OFFCURVE",
"209 115 CURVE",
"176 0 LINE"
);
},
{
closed = 1;
nodes = (
"220 417 LINE",
"225 503 LINE",
"145 500 OFFCURVE",
"70 487 OFFCURVE",
"6 464 CURVE",
"8 415 LINE",
"133 383 LINE"
);
},
{
closed = 1;
nodes = (
"237 574 OFFCURVE",
"273 616 OFFCURVE",
"298 664 CURVE",
"266 711 OFFCURVE",
"222 752 OFFCURVE",
"172 780 CURVE",
"126 745 OFFCURVE",
"89 699 OFFCURVE",
"61 645 CURVE",
"95 603 OFFCURVE",
"142 567 OFFCURVE",
"194 543 CURVE"
);
}
);
width = 367;
}
);
leftKerningGroup = n;
leftMetricsKey = n;
rightKerningGroup = i;
rightMetricsKey = n;
unicode = 0069;
},
{
color = 3;
glyphname = j;
lastChange = "2019-02-26 16:52:46 +0000";
layers = (
{
anchors = (
{
name = top;
position = "{30, 100}";
}
);
layerId = "E25E64E2-9639-43F9-BB85-44020EE7B81E";
paths = (
{
closed = 1;
nodes = (
"210 -210 OFFCURVE",
"283 -114 OFFCURVE",
"283 -39 CURVE SMOOTH",
"283 450 LINE",
"224 503 LINE",
"82 445 LINE",
"82 -69 LINE SMOOTH",
"82 -133 OFFCURVE",
"37 -164 OFFCURVE",
"-13 -181 CURVE",
"4 -222 LINE"
);
},
{
closed = 1;
nodes = (
"219 417 LINE",
"224 503 LINE",
"144 500 OFFCURVE",
"69 487 OFFCURVE",
"5 464 CURVE",
"7 415 LINE",
"132 383 LINE"
);
},
{
closed = 1;
nodes = (
"236 574 OFFCURVE",
"272 615 OFFCURVE",
"297 664 CURVE",
"265 710 OFFCURVE",
"221 751 OFFCURVE",
"171 780 CURVE",
"125 745 OFFCURVE",
"88 699 OFFCURVE",
"60 645 CURVE",
"94 603 OFFCURVE",
"141 567 OFFCURVE",
"193 543 CURVE"
);
}
);
width = 346;
}
);
leftKerningGroup = j;
rightKerningGroup = j;
unicode = 006A;
},
{
color = 9;
glyphname = k;
lastChange = "2019-02-26 16:52:46 +0000";
layers = (
{
anchors = (
{
name = bottom;
position = "{329, 0}";
}
);
layerId = "E25E64E2-9639-43F9-BB85-44020EE7B81E";
paths = (
{
closed = 1;
nodes = (
"285 0 LINE",
"285 683 LINE",
"226 737 LINE",
"84 679 LINE",
"84 0 LINE"
);
},
{
closed = 1;
nodes = (
"132 0 LINE",
"140 88 LINE",
"98 79 OFFCURVE",
"50 61 OFFCURVE",
"8 35 CURVE",
"9 0 LINE"
);
},
{
closed = 1;
nodes = (
"624 -3 LINE",
"628 45 LINE",
"610 55 OFFCURVE",
"595 66 OFFCURVE",
"582 76 CURVE SMOOTH",
"444 268 LINE",
"270 208 LINE",
"370 49 LINE SMOOTH",
"384 28 OFFCURVE",
"395 11 OFFCURVE",
"410 -3 CURVE"
);
},
{
closed = 1;
nodes = (
"597 430 LINE",
"546 503 LINE",
"412 444 LINE",
"251 225 LINE",
"387 166 LINE"
);
},
{
closed = 1;
nodes = (
"220 651 LINE",
"225 737 LINE",
"145 733 OFFCURVE",
"70 720 OFFCURVE",
"6 698 CURVE",
"8 648 LINE",
"133 617 LINE"
);
},
{
closed = 1;
nodes = (
"541 418 LINE",
"546 503 LINE",
"466 500 OFFCURVE",
"389 487 OFFCURVE",
"325 464 CURVE",
"327 415 LINE",
"454 384 LINE"
);
}
);
width = 645;
}
);
leftKerningGroup = l;
leftMetricsKey = n;
rightKerningGroup = k;
unicode = 006B;
},
{
color = 3;
glyphname = l;
lastChange = "2019-02-26 16:52:46 +0000";
layers = (
{
anchors = (
{
name = bottom;
position = "{195, 0}";
},
{
name = top;
position = "{177, 735}";
},
{
name = topright;
position = "{358, 468}";
}
);
layerId = "E25E64E2-9639-43F9-BB85-44020EE7B81E";
paths = (
{
closed = 1;
nodes = (
"284 0 LINE",
"284 683 LINE",
"225 737 LINE",
"83 679 LINE",
"83 0 LINE"
);
},
{
closed = 1;
nodes = (
"131 0 LINE",
"139 88 LINE",
"97 79 OFFCURVE",
"49 61 OFFCURVE",
"7 35 CURVE",
"8 0 LINE"
);
},
{
closed = 1;
nodes = (
"355 0 LINE",
"356 49 LINE",
"314 80 OFFCURVE",
"253 102 OFFCURVE",
"209 115 CURVE",
"176 0 LINE"
);
},
{
closed = 1;
nodes = (
"220 651 LINE",
"225 737 LINE",
"145 733 OFFCURVE",
"70 720 OFFCURVE",
"6 698 CURVE",
"8 648 LINE",
"133 617 LINE"
);
}
);
width = 371;
}
);
leftKerningGroup = l;
leftMetricsKey = n;
rightKerningGroup = l;
unicode = 006C;
},
{
color = 9;
glyphname = m;
lastChange = "2019-02-26 16:52:46 +0000";
layers = (
{
layerId = "E25E64E2-9639-43F9-BB85-44020EE7B81E";
paths = (
{
closed = 1;
nodes = (
"878 0 LINE",
"878 294 LINE SMOOTH",
"878 383 OFFCURVE",
"876 408 OFFCURVE",
"866 425 CURVE SMOOTH",
"825 489 OFFCURVE",
"751 500 OFFCURVE",
"712 498 CURVE",
"627 468 OFFCURVE",
"538 405 OFFCURVE",
"458 315 CURVE",
"459 294 LINE",
"507 330 OFFCURVE",
"560 366 OFFCURVE",
"607 369 CURVE SMOOTH",
"653 372 OFFCURVE",
"677 336 OFFCURVE",
"677 281 CURVE SMOOTH",
"677 0 LINE"
);
},
{
closed = 1;
nodes = (
"132 0 LINE",
"140 88 LINE",
"98 79 OFFCURVE",
"50 61 OFFCURVE",
"8 35 CURVE",
"9 0 LINE"
);
},
{
closed = 1;
nodes = (
"338 0 LINE",
"339 49 LINE",
"297 80 OFFCURVE",
"252 102 OFFCURVE",
"208 115 CURVE",
"175 0 LINE"
);
},
{
closed = 1;
nodes = (
"284 0 LINE",
"284 442 LINE",
"225 503 LINE",
"83 445 LINE",
"83 0 LINE"
);
},
{
closed = 1;
nodes = (
"220 417 LINE",
"225 503 LINE",
"145 500 OFFCURVE",
"70 487 OFFCURVE",
"6 464 CURVE",
"8 415 LINE",
"133 383 LINE"
);
},
{
closed = 1;
nodes = (
"635 0 LINE",
"637 49 LINE",
"595 80 OFFCURVE",
"549 102 OFFCURVE",
"505 115 CURVE",
"472 0 LINE"
);
},
{
closed = 1;
nodes = (
"581 0 LINE",
"581 294 LINE SMOOTH",
"581 383 OFFCURVE",
"579 408 OFFCURVE",
"569 425 CURVE SMOOTH",
"528 489 OFFCURVE",
"454 500 OFFCURVE",
"415 498 CURVE",
"330 468 OFFCURVE",
"241 405 OFFCURVE",
"161 315 CURVE",
"162 294 LINE",
"210 330 OFFCURVE",
"263 366 OFFCURVE",
"310 369 CURVE SMOOTH",
"356 372 OFFCURVE",
"380 336 OFFCURVE",
"380 281 CURVE SMOOTH",
"380 0 LINE"
);
},
{
closed = 1;
nodes = (
"955 0 LINE",
"957 49 LINE",
"915 80 OFFCURVE",
"853 102 OFFCURVE",
"809 115 CURVE",
"776 0 LINE"
);
}
);
width = 968;
}
);
leftKerningGroup = n;
leftMetricsKey = n;
rightKerningGroup = n;
rightMetricsKey = n;
unicode = 006D;
},
{
color = 9;
glyphname = n;
lastChange = "2019-02-26 16:52:46 +0000";
layers = (
{
anchors = (
{
name = bottom;
position = "{337, 0}";
},
{
name = top;
position = "{333, 468}";
}
);
layerId = "E25E64E2-9639-43F9-BB85-44020EE7B81E";
paths = (
{
closed = 1;
nodes = (
"583 0 LINE",
"583 294 LINE SMOOTH",
"583 383 OFFCURVE",
"581 408 OFFCURVE",
"571 425 CURVE SMOOTH",
"530 489 OFFCURVE",
"456 500 OFFCURVE",
"417 498 CURVE",
"332 468 OFFCURVE",
"243 405 OFFCURVE",
"163 315 CURVE",
"164 294 LINE",
"212 330 OFFCURVE",
"265 366 OFFCURVE",
"312 369 CURVE SMOOTH",
"358 372 OFFCURVE",
"382 336 OFFCURVE",
"382 281 CURVE SMOOTH",
"382 0 LINE"
);
},
{
closed = 1;
nodes = (
"132 0 LINE",
"140 88 LINE",
"98 79 OFFCURVE",
"50 61 OFFCURVE",
"8 35 CURVE",
"9 0 LINE"
);
},
{
closed = 1;
nodes = (
"338 0 LINE",
"339 49 LINE",
"297 80 OFFCURVE",
"252 102 OFFCURVE",
"208 115 CURVE",
"175 0 LINE"
);
},
{
closed = 1;
nodes = (
"284 0 LINE",
"284 442 LINE",
"225 503 LINE",
"83 445 LINE",
"83 0 LINE"
);
},
{
closed = 1;
nodes = (
"220 417 LINE",
"225 503 LINE",
"145 500 OFFCURVE",
"70 487 OFFCURVE",
"6 464 CURVE",
"8 415 LINE",
"133 383 LINE"
);
},
{
closed = 1;
nodes = (
"653 0 LINE",
"655 49 LINE",
"613 80 OFFCURVE",
"551 102 OFFCURVE",
"507 115 CURVE",
"474 0 LINE"
);
}
);
width = 666;
}
);
leftKerningGroup = n;
rightKerningGroup = n;
unicode = 006E;
},
{
color = 3;
glyphname = o;
lastChange = "2019-02-26 16:52:46 +0000";
layers = (
{
anchors = (
{
name = top;
position = "{267, 468}";
}
);
layerId = "E25E64E2-9639-43F9-BB85-44020EE7B81E";
paths = (
{
closed = 1;
nodes = (
"407 -20 OFFCURVE",
"526 74 OFFCURVE",
"526 241 CURVE SMOOTH",
"526 413 OFFCURVE",
"399 504 OFFCURVE",
"267 504 CURVE SMOOTH",
"133 504 OFFCURVE",
"8 412 OFFCURVE",
"8 245 CURVE SMOOTH",
"8 76 OFFCURVE",
"137 -20 OFFCURVE",
"272 -20 CURVE SMOOTH"
);
},
{
closed = 1;
nodes = (
"227 78 OFFCURVE",
"210 148 OFFCURVE",
"210 239 CURVE SMOOTH",
"210 309 OFFCURVE",
"219 366 OFFCURVE",
"234 389 CURVE",
"241 394 OFFCURVE",
"251 396 OFFCURVE",
"261 396 CURVE SMOOTH",
"307 396 OFFCURVE",
"324 322 OFFCURVE",
"324 229 CURVE SMOOTH",
"324 158 OFFCURVE",
"316 99 OFFCURVE",
"296 82 CURVE",
"288 79 OFFCURVE",
"282 78 OFFCURVE",
"275 78 CURVE SMOOTH"
);
}
);
width = 539;
}
);
leftKerningGroup = o;
rightKerningGroup = o;
unicode = 006F;
},
{
color = 3;
glyphname = p;
lastChange = "2019-02-26 16:52:46 +0000";
layers = (
{
layerId = "E25E64E2-9639-43F9-BB85-44020EE7B81E";
paths = (
{
closed = 1;
nodes = (
"524 -1 OFFCURVE",
"605 132 OFFCURVE",
"605 265 CURVE SMOOTH",
"605 398 OFFCURVE",
"525 516 OFFCURVE",
"385 494 CURVE",
"207 359 LINE",
"216 327 LINE",
"251 349 OFFCURVE",
"281 363 OFFCURVE",
"307 363 CURVE SMOOTH",
"364 363 OFFCURVE",
"391 300 OFFCURVE",
"391 232 CURVE SMOOTH",
"391 176 OFFCURVE",
"373 119 OFFCURVE",
"345 87 CURVE",
"287 87 OFFCURVE",
"216 107 OFFCURVE",
"180 136 CURVE",
"102 65 LINE",
"177 25 OFFCURVE",
"276 -1 OFFCURVE",
"351 -1 CURVE SMOOTH"
);
},
{
closed = 1;
nodes = (
"140 -201 LINE",
"148 -113 LINE",
"106 -130 OFFCURVE",
"58 -148 OFFCURVE",
"16 -165 CURVE",
"17 -201 LINE"
);
},
{
closed = 1;
nodes = (
"381 -201 LINE",
"382 -152 LINE",
"340 -129 OFFCURVE",
"295 -107 OFFCURVE",
"251 -86 CURVE",
"218 -201 LINE"
);
},
{
closed = 1;
nodes = (
"283 -201 LINE",
"283 450 LINE",
"224 503 LINE",
"82 445 LINE",
"82 -201 LINE"
);
},
{
closed = 1;
nodes = (
"229 455 LINE",
"225 503 LINE",
"145 500 OFFCURVE",
"70 487 OFFCURVE",
"6 464 CURVE",
"8 415 LINE",
"133 383 LINE"
);
}
);
width = 618;
}
);
leftKerningGroup = n;
leftMetricsKey = n;
rightKerningGroup = o;
rightMetricsKey = o;
unicode = 0070;
},
{
color = 9;
glyphname = q;
lastChange = "2019-02-26 16:52:46 +0000";
layers = (
{
layerId = "E25E64E2-9639-43F9-BB85-44020EE7B81E";
paths = (
{
closed = 1;
nodes = (
"407 126 LINE",
"415 174 LINE",
"372 143 OFFCURVE",
"330 130 OFFCURVE",
"303 130 CURVE SMOOTH",
"246 130 OFFCURVE",
"217 190 OFFCURVE",
"217 260 CURVE SMOOTH",
"217 316 OFFCURVE",
"235 376 OFFCURVE",
"268 407 CURVE",
"332 404 OFFCURVE",
"386 371 OFFCURVE",
"423 322 CURVE",
"528 462 LINE",
"464 486 OFFCURVE",
"373 504 OFFCURVE",
"302 504 CURVE SMOOTH",
"102 504 OFFCURVE",
"8 377 OFFCURVE",
"8 239 CURVE SMOOTH",
"8 110 OFFCURVE",
"89 -13 OFFCURVE",
"229 -10 CURVE"
);
},
{
closed = 1;
nodes = (
"350 -201 LINE",
"355 -113 LINE",
"313 -122 OFFCURVE",
"265 -140 OFFCURVE",
"223 -165 CURVE",
"224 -201 LINE"
);
},
{
closed = 1;
nodes = (
"580 -201 LINE",
"581 -152 LINE",
"539 -121 OFFCURVE",
"494 -99 OFFCURVE",
"450 -86 CURVE",
"417 -201 LINE"
);
},
{
closed = 1;
nodes = (
"528 -201 LINE",
"528 462 LINE",
"356 424 LINE",
"327 418 LINE",
"327 -201 LINE"
);
}
);
width = 593;
}
);
leftKerningGroup = o;
leftMetricsKey = o;
unicode = 0071;
},
{
color = 9;
glyphname = r;
lastChange = "2019-02-26 16:52:46 +0000";
layers = (
{
anchors = (
{
name = bottom;
position = "{197, 0}";
},
{
name = top;
position = "{277, 468}";
}
);
layerId = "E25E64E2-9639-43F9-BB85-44020EE7B81E";
paths = (
{
closed = 1;
nodes = (
"284 0 LINE",
"284 414 LINE",
"225 503 LINE",
"83 445 LINE",
"83 0 LINE"
);
},
{
closed = 1;
nodes = (
"132 0 LINE",
"140 88 LINE",
"98 79 OFFCURVE",
"50 61 OFFCURVE",
"8 35 CURVE",
"9 0 LINE"
);
},
{
closed = 1;
nodes = (
"394 0 LINE",
"395 49 LINE",
"353 76 OFFCURVE",
"304 94 OFFCURVE",
"260 107 CURVE",
"227 0 LINE"
);
},
{
closed = 1;
nodes = (
"220 417 LINE",
"225 503 LINE",
"145 500 OFFCURVE",
"70 487 OFFCURVE",
"6 464 CURVE",
"8 415 LINE",
"133 383 LINE"
);
},
{
closed = 1;
nodes = (
"281 336 LINE",
"327 329 OFFCURVE",
"369 293 OFFCURVE",
"404 263 CURVE",
"529 416 LINE",
"509 484 OFFCURVE",
"422 518 OFFCURVE",
"354 497 CURVE",
"195 311 LINE",
"159 246 LINE"
);
}
);
width = 517;
}
);
leftKerningGroup = n;
leftMetricsKey = n;
rightKerningGroup = r;
unicode = 0072;
},
{
color = 3;
glyphname = s;
lastChange = "2019-02-26 16:52:46 +0000";
layers = (
{
layerId = "E25E64E2-9639-43F9-BB85-44020EE7B81E";
paths = (
{
closed = 1;
nodes = (
"371 -20 OFFCURVE",
"450 49 OFFCURVE",
"450 138 CURVE SMOOTH",
"450 291 OFFCURVE",
"211 309 OFFCURVE",
"211 384 CURVE SMOOTH",
"211 398 OFFCURVE",
"218 414 OFFCURVE",
"254 421 CURVE",
"295 419 OFFCURVE",
"350 403 OFFCURVE",
"390 379 CURVE",
"427 470 LINE",
"380 494 OFFCURVE",
"316 504 OFFCURVE",
"263 504 CURVE SMOOTH",
"124 504 OFFCURVE",
"32 436 OFFCURVE",
"32 342 CURVE SMOOTH",
"32 192 OFFCURVE",
"267 174 OFFCURVE",
"267 103 CURVE SMOOTH",
"267 93 OFFCURVE",
"262 80 OFFCURVE",
"252 72 CURVE",
"193 98 OFFCURVE",
"134 135 OFFCURVE",
"78 180 CURVE",
"15 34 LINE",
"89 -4 OFFCURVE",
"168 -20 OFFCURVE",
"234 -20 CURVE SMOOTH"
);
},
{
closed = 1;
nodes = (
"412 326 LINE",
"427 373 OFFCURVE",
"432 422 OFFCURVE",
"427 470 CURVE",
"250 480 LINE",
"313 326 LINE"
);
}
);
width = 472;
}
);
leftKerningGroup = s;
rightKerningGroup = s;
unicode = 0073;
},
{
color = 3;
glyphname = t;
lastChange = "2019-02-26 16:52:46 +0000";
layers = (
{
anchors = (
{
name = bottom;
position = "{199, 0}";
},
{
name = center;
position = "{219, 234}";
},
{
name = topright;
position = "{417, 468}";
}
);
layerId = "E25E64E2-9639-43F9-BB85-44020EE7B81E";
paths = (
{
closed = 1;
nodes = (
"395 76 LINE",
"391 129 LINE",
"368 127 OFFCURVE",
"338 125 OFFCURVE",
"315 125 CURVE SMOOTH",
"289 125 OFFCURVE",
"276 134 OFFCURVE",
"276 164 CURVE SMOOTH",
"276 443 LINE",
"236 613 LINE",
"146 613 LINE",
"75 450 LINE",
"75 99 LINE SMOOTH",
"75 35 OFFCURVE",
"144 -20 OFFCURVE",
"218 -17 CURVE"
);
},
{
closed = 1;
nodes = (
"218 351 LINE",
"222 426 LINE",
"194 540 LINE",
"112 496 OFFCURVE",
"46 452 OFFCURVE",
"-4 406 CURVE",
"-3 350 LINE"
);
},
{
closed = 1;
nodes = (
"354 349 LINE",
"405 417 LINE",
"405 474 LINE",
"232 474 LINE",
"232 349 LINE"
);
}
);
width = 421;
}
);
leftKerningGroup = t;
rightKerningGroup = t;
unicode = 0074;
},
{
color = 3;
glyphname = u;
lastChange = "2019-02-26 16:52:46 +0000";
layers = (
{
anchors = (
{
name = ogonek;
position = "{590, 10}";
},
{
name = top;
position = "{307, 468}";
}
);
layerId = "E25E64E2-9639-43F9-BB85-44020EE7B81E";
paths = (
{
closed = 1;
nodes = (
"330 13 OFFCURVE",
"421 78 OFFCURVE",
"498 167 CURVE",
"497 188 LINE",
"448 153 OFFCURVE",
"397 119 OFFCURVE",
"349 116 CURVE SMOOTH",
"300 112 OFFCURVE",
"278 140 OFFCURVE",
"278 194 CURVE SMOOTH",
"278 450 LINE",
"219 503 LINE",
"77 449 LINE",
"77 191 LINE SMOOTH",
"77 102 OFFCURVE",
"79 77 OFFCURVE",
"90 60 CURVE SMOOTH",
"131 -4 OFFCURVE",
"204 -21 OFFCURVE",
"243 -17 CURVE"
);
},
{
closed = 1;
nodes = (
"214 417 LINE",
"219 503 LINE",
"139 500 OFFCURVE",
"64 487 OFFCURVE",
"0 464 CURVE",
"2 415 LINE",
"127 383 LINE"
);
},
{
closed = 1;
nodes = (
"654 65 LINE",
"651 110 LINE",
"627 109 OFFCURVE",
"614 108 OFFCURVE",
"598 108 CURVE SMOOTH",
"582 108 OFFCURVE",
"574 120 OFFCURVE",
"574 134 CURVE",
"574 450 LINE",
"515 503 LINE",
"373 449 LINE",
"373 77 LINE",
"392 74 LINE",
"419 18 OFFCURVE",
"464 -16 OFFCURVE",
"510 -17 CURVE"
);
},
{
closed = 1;
nodes = (
"510 417 LINE",
"515 503 LINE",
"443 501 OFFCURVE",
"376 489 OFFCURVE",
"320 468 CURVE",
"322 419 LINE",
"423 383 LINE"
);
}
);
width = 656;
}
);
leftKerningGroup = u;
rightKerningGroup = u;
rightMetricsKey = d;
unicode = 0075;
},
{
color = 9;
glyphname = v;
lastChange = "2019-02-26 16:52:46 +0000";
layers = (
{
layerId = "E25E64E2-9639-43F9-BB85-44020EE7B81E";
paths = (
{
closed = 1;
nodes = (
"220 -12 OFFCURVE",
"311 -11 OFFCURVE",
"359 3 CURVE",
"430 158 OFFCURVE",
"492 326 OFFCURVE",
"561 482 CURVE",
"344 482 LINE",
"337 385 OFFCURVE",
"326 275 OFFCURVE",
"313 178 CURVE",
"302 178 LINE",
"288 244 LINE",
"214 482 LINE",
"8 451 LINE",
"179 -4 LINE"
);
},
{
closed = 1;
nodes = (
"213 482 LINE",
"-31 482 LINE",
"-31 426 LINE",
"160 296 LINE"
);
},
{
closed = 1;
nodes = (
"532 401 OFFCURVE",
"551 414 OFFCURVE",
"569 429 CURVE",
"568 482 LINE",
"390 482 LINE",
"510 392 LINE"
);
}
);
width = 565;
}
);
leftKerningGroup = v;
rightKerningGroup = v;
unicode = 0076;
},
{
color = 9;
glyphname = w;
lastChange = "2019-02-26 16:52:46 +0000";
layers = (
{
anchors = (
{
name = top;
position = "{76, 100}";
}
);
layerId = "E25E64E2-9639-43F9-BB85-44020EE7B81E";
paths = (
{
closed = 1;
nodes = (
"488 -12 OFFCURVE",
"571 -11 OFFCURVE",
"620 4 CURVE",
"795 482 LINE",
"575 482 LINE",
"576 161 LINE",
"565 161 LINE",
"477 480 LINE",
"274 476 LINE",
"447 -4 LINE"
);
},
{
closed = 1;
nodes = (
"206 -12 OFFCURVE",
"297 -11 OFFCURVE",
"346 4 CURVE",
"421 176 LINE",
"440 273 LINE",
"363 298 LINE",
"314 161 LINE",
"302 161 LINE",
"202 482 LINE",
"0 451 LINE",
"165 -4 LINE"
);
},
{
closed = 1;
nodes = (
"201 482 LINE",
"-31 482 LINE",
"-31 426 LINE",
"152 296 LINE"
);
},
{
closed = 1;
nodes = (
"769 401 OFFCURVE",
"788 414 OFFCURVE",
"806 429 CURVE",
"805 482 LINE",
"627 482 LINE",
"747 392 LINE"
);
}
);
width = 802;
}
);
leftKerningGroup = v;
leftMetricsKey = v;
rightKerningGroup = v;
rightMetricsKey = v;
unicode = 0077;
},
{
color = 9;
glyphname = x;
lastChange = "2019-02-26 16:52:46 +0000";
layers = (
{
layerId = "E25E64E2-9639-43F9-BB85-44020EE7B81E";
paths = (
{
closed = 1;
nodes = (
"580 0 LINE",
"248 482 LINE",
"46 445 LINE",
"365 0 LINE"
);
},
{
closed = 1;
nodes = (
"127 0 LINE",
"135 88 LINE",
"3 44 LINE",
"4 0 LINE"
);
},
{
closed = 1;
nodes = (
"234 0 LINE",
"266 174 LINE",
"223 259 LINE",
"7 38 LINE",
"33 0 LINE"
);
},
{
closed = 1;
nodes = (
"248 482 LINE",
"13 482 LINE",
"13 426 LINE",
"211 296 LINE"
);
},
{
closed = 1;
nodes = (
"595 0 LINE",
"596 49 LINE",
"554 80 OFFCURVE",
"509 102 OFFCURVE",
"465 115 CURVE",
"430 0 LINE"
);
},
{
closed = 1;
nodes = (
"570 434 LINE",
"552 482 LINE",
"365 482 LINE",
"334 314 LINE",
"363 218 LINE"
);
},
{
closed = 1;
nodes = (
"581 437 LINE",
"580 482 LINE",
"402 482 LINE",
"502 408 LINE"
);
}
);
width = 602;
}
);
leftKerningGroup = x;
rightKerningGroup = x;
unicode = 0078;
},
{
color = 9;
glyphname = y;
lastChange = "2019-02-26 16:52:46 +0000";
layers = (
{
anchors = (
{
name = top;
position = "{307, 468}";
}
);
layerId = "E25E64E2-9639-43F9-BB85-44020EE7B81E";
paths = (
{
closed = 1;
nodes = (
"316 -145 OFFCURVE",
"395 -47 OFFCURVE",
"450 92 CURVE SMOOTH",
"499 220 OFFCURVE",
"531 361 OFFCURVE",
"566 482 CURVE",
"358 482 LINE",
"344 385 OFFCURVE",
"324 281 OFFCURVE",
"305 186 CURVE",
"289 186 LINE",
"284 254 LINE",
"223 482 LINE",
"23 449 LINE",
"169 50 LINE",
"208 40 OFFCURVE",
"242 31 OFFCURVE",
"282 22 CURVE",
"206 -8 OFFCURVE",
"127 -34 OFFCURVE",
"46 -56 CURVE",
"149 -234 LINE"
);
},
{
closed = 1;
nodes = (
"222 482 LINE",
"-31 482 LINE",
"-31 426 LINE",
"169 296 LINE"
);
},
{
closed = 1;
nodes = (
"543 401 OFFCURVE",
"570 414 OFFCURVE",
"588 429 CURVE",
"587 482 LINE",
"401 482 LINE",
"521 392 LINE"
);
}
);
width = 584;
}
);
leftKerningGroup = v;
leftMetricsKey = v;
rightKerningGroup = y;
rightMetricsKey = v;
unicode = 0079;
},
{
color = 9;
glyphname = z;
lastChange = "2019-02-26 16:52:46 +0000";
layers = (
{
anchors = (
{
name = top;
position = "{275, 468}";
}
);
layerId = "E25E64E2-9639-43F9-BB85-44020EE7B81E";
paths = (
{
closed = 1;
nodes = (
"154 36 LINE",
"227 38 LINE",
"526 442 LINE",
"463 503 LINE",
"403 465 LINE",
"323 473 LINE",
"10 37 LINE",
"76 -18 LINE"
);
},
{
closed = 1;
nodes = (
"488 45 OFFCURVE",
"501 109 OFFCURVE",
"514 177 CURVE",
"456 160 LINE",
"402 144 LINE",
"125 76 LINE",
"98 33 LINE",
"474 -21 LINE"
);
},
{
closed = 1;
nodes = (
"153 297 LINE",
"225 450 LINE",
"44 482 LINE",
"35 428 OFFCURVE",
"36 350 OFFCURVE",
"46 297 CURVE"
);
},
{
closed = 1;
nodes = (
"423 436 LINE",
"462 482 LINE",
"43 482 LINE",
"44 367 LINE"
);
}
);
width = 537;
}
);
leftKerningGroup = z;
rightKerningGroup = z;
unicode = 007A;
},
{
color = 3;
glyphname = braceleft;
lastChange = "2019-02-26 16:52:46 +0000";
layers = (
{
layerId = "E25E64E2-9639-43F9-BB85-44020EE7B81E";
paths = (
{
closed = 1;
nodes = (
"481 -24 LINE",
"359 -12 LINE",
"375 149 LINE SMOOTH",
"381 202 OFFCURVE",
"357 254 OFFCURVE",
"317 295 CURVE",
"317 304 LINE",
"357 344 OFFCURVE",
"381 397 OFFCURVE",
"375 449 CURVE SMOOTH",
"359 608 LINE",
"484 608 LINE",
"478 729 LINE",
"253 715 OFFCURVE",
"161 616 OFFCURVE",
"161 537 CURVE SMOOTH",
"161 443 LINE SMOOTH",
"161 374 OFFCURVE",
"154 333 OFFCURVE",
"68 327 CURVE",
"62 268 LINE",
"156 262 OFFCURVE",
"161 223 OFFCURVE",
"161 142 CURVE SMOOTH",
"161 34 LINE SMOOTH",
"161 -36 OFFCURVE",
"267 -135 OFFCURVE",
"471 -145 CURVE"
);
}
);
width = 565;
}
);
rightKerningGroup = space;
unicode = 007B;
},
{
color = 3;
glyphname = bar;
lastChange = "2019-02-26 16:52:46 +0000";
layers = (
{
layerId = "E25E64E2-9639-43F9-BB85-44020EE7B81E";
paths = (
{
closed = 1;
nodes = (
"239 -225 LINE",
"238 735 LINE",
"93 735 LINE",
"93 -225 LINE"
);
}
);
width = 333;
}
);
rightKerningGroup = space;
unicode = 007C;
},
{
color = 3;
glyphname = braceright;
lastChange = "2019-02-26 16:52:46 +0000";
layers = (
{
layerId = "E25E64E2-9639-43F9-BB85-44020EE7B81E";
paths = (
{
closed = 1;
nodes = (
"299 -135 OFFCURVE",
"405 -36 OFFCURVE",
"405 34 CURVE SMOOTH",
"405 142 LINE SMOOTH",
"405 223 OFFCURVE",
"410 262 OFFCURVE",
"504 268 CURVE",
"498 327 LINE",
"412 333 OFFCURVE",
"405 374 OFFCURVE",
"405 443 CURVE SMOOTH",
"405 537 LINE SMOOTH",
"405 616 OFFCURVE",
"313 715 OFFCURVE",
"88 729 CURVE",
"82 608 LINE",
"207 608 LINE",
"191 449 LINE SMOOTH",
"185 397 OFFCURVE",
"210 344 OFFCURVE",
"249 304 CURVE",
"249 295 LINE",
"210 254 OFFCURVE",
"185 202 OFFCURVE",
"191 149 CURVE SMOOTH",
"207 -12 LINE",
"85 -24 LINE",
"95 -145 LINE"
);
}
);
width = 567;
}
);
rightKerningGroup = space;
unicode = 007D;
},
{
color = 3;
glyphname = cent;
lastChange = "2018-12-16 01:01:00 +0000";
layers = (
{
components = (
{
name = c;
transform = "{1, 0, 0, 0.945, 0, 15}";
}
);
layerId = "E25E64E2-9639-43F9-BB85-44020EE7B81E";
paths = (
{
closed = 1;
nodes = (
"328 469 LINE",
"328 597 LINE",
"218 597 LINE",
"218 469 LINE"
);
},
{
closed = 1;
nodes = (
"328 -117 LINE",
"328 11 LINE",
"218 11 LINE",
"218 -117 LINE"
);
}
);
width = 479;
}
);
leftMetricsKey = c;
rightMetricsKey = c;
unicode = 00A2;
},
{
color = 3;
glyphname = sterling;
lastChange = "2018-12-16 01:01:00 +0000";
layers = (
{
layerId = "E25E64E2-9639-43F9-BB85-44020EE7B81E";
paths = (
{
closed = 1;
nodes = (
"173 0 LINE",
"414 179 OFFCURVE",
"281 365 OFFCURVE",
"281 485 CURVE SMOOTH",
"281 518 OFFCURVE",
"290 546 OFFCURVE",
"325 565 CURVE",
"392 552 OFFCURVE",
"444 529 OFFCURVE",
"502 473 CURVE",
"565 615 LINE",
"508 647 OFFCURVE",
"422 670 OFFCURVE",
"344 670 CURVE SMOOTH",
"167 670 OFFCURVE",
"67 555 OFFCURVE",
"67 449 CURVE SMOOTH",
"67 317 OFFCURVE",
"221 211 OFFCURVE",
"56 0 CURVE"
);
},
{
closed = 1;
nodes = (
"118 0 LINE",
"117 91 LINE",
"79 73 OFFCURVE",
"46 54 OFFCURVE",
"18 32 CURVE",
"24 0 LINE"
);
},
{
closed = 1;
nodes = (
"584 0 LINE",
"567 127 LINE",
"259 106 LINE",
"139 0 LINE"
);
},
{
closed = 1;
nodes = (
"224 239 LINE",
"262 257 LINE",
"398 257 LINE",
"441 298 LINE",
"435 335 LINE",
"280 335 LINE",
"243 317 LINE",
"55 317 LINE",
"12 276 LINE",
"18 239 LINE"
);
},
{
closed = 1;
nodes = (
"589 48 OFFCURVE",
"585 189 OFFCURVE",
"573 241 CURVE",
"482 249 LINE",
"366 8 LINE",
"583 0 LINE"
);
},
{
closed = 1;
nodes = (
"552 415 LINE",
"566 466 OFFCURVE",
"570 569 OFFCURVE",
"566 615 CURVE",
"341 617 LINE",
"453 415 LINE"
);
}
);
width = 617;
}
);
unicode = 00A3;
},
{
color = 3;
glyphname = currency;
lastChange = "2018-12-16 01:01:00 +0000";
layers = (
{
layerId = "E25E64E2-9639-43F9-BB85-44020EE7B81E";
paths = (
{
closed = 1;
nodes = (
"346 156 OFFCURVE",
"443 227 OFFCURVE",
"443 357 CURVE SMOOTH",
"443 487 OFFCURVE",
"355 554 OFFCURVE",
"257 554 CURVE SMOOTH",
"163 554 OFFCURVE",
"65 478 OFFCURVE",
"65 357 CURVE SMOOTH",
"65 244 OFFCURVE",
"144 156 OFFCURVE",
"255 156 CURVE SMOOTH"
);
},
{
closed = 1;
nodes = (
"181 213 LINE",
"132 259 LINE",
"50 170 LINE",
"104 121 LINE"
);
},
{
closed = 1;
nodes = (
"464 174 LINE",
"382 263 LINE",
"330 212 LINE",
"412 123 LINE"
);
},
{
closed = 1;
nodes = (
"206 259 OFFCURVE",
"177 312 OFFCURVE",
"177 364 CURVE SMOOTH",
"177 397 OFFCURVE",
"189 429 OFFCURVE",
"208 447 CURVE",
"220 449 OFFCURVE",
"229 450 OFFCURVE",
"239 450 CURVE SMOOTH",
"306 450 OFFCURVE",
"331 399 OFFCURVE",
"331 348 CURVE SMOOTH",
"331 314 OFFCURVE",
"319 281 OFFCURVE",
"302 263 CURVE",
"291 260 OFFCURVE",
"278 259 OFFCURVE",
"270 259 CURVE SMOOTH"
);
},
{
closed = 1;
nodes = (
"177 500 LINE",
"99 587 LINE",
"44 538 LINE",
"125 447 LINE"
);
},
{
closed = 1;
nodes = (
"466 539 LINE",
"410 586 LINE",
"333 495 LINE",
"380 446 LINE"
);
}
);
width = 510;
}
);
unicode = 00A4;
},
{
color = 3;
glyphname = yen;
lastChange = "2018-12-16 01:01:00 +0000";
layers = (
{
components = (
{
name = Y;
transform = "{1, 0, 0, 1, -27, 0}";
}
);
layerId = "E25E64E2-9639-43F9-BB85-44020EE7B81E";
paths = (
{
closed = 1;
nodes = (
"517 235 LINE",
"560 274 LINE",
"554 311 LINE",
"132 311 LINE",
"89 272 LINE",
"95 235 LINE"
);
},
{
closed = 1;
nodes = (
"517 117 LINE",
"560 156 LINE",
"554 193 LINE",
"132 193 LINE",
"89 154 LINE",
"95 117 LINE"
);
}
);
width = 675;
}
);
leftMetricsKey = y;
rightMetricsKey = Y;
unicode = 00A5;
},
{
color = 3;
glyphname = brokenbar;
lastChange = "2019-02-26 16:52:46 +0000";
layers = (
{
layerId = "E25E64E2-9639-43F9-BB85-44020EE7B81E";
paths = (
{
closed = 1;
nodes = (
"238 358 LINE",
"238 616 LINE",
"93 616 LINE",
"93 358 LINE"
);
},
{
closed = 1;
nodes = (
"238 -76 LINE",
"238 182 LINE",
"93 182 LINE",
"93 -76 LINE"
);
}
);
width = 332;
}
);
leftMetricsKey = bar;
rightKerningGroup = space;
rightMetricsKey = bar;
unicode = 00A6;
},
{
color = 3;
glyphname = section;
lastChange = "2019-02-26 16:52:46 +0000";
layers = (
{
layerId = "E25E64E2-9639-43F9-BB85-44020EE7B81E";
paths = (
{
closed = 1;
nodes = (
"445 146 OFFCURVE",
"490 198 OFFCURVE",
"490 265 CURVE SMOOTH",
"490 356 OFFCURVE",
"407 403 OFFCURVE",
"327 443 CURVE SMOOTH",
"263 475 OFFCURVE",
"221 493 OFFCURVE",
"221 532 CURVE SMOOTH",
"221 557 OFFCURVE",
"240 580 OFFCURVE",
"268 588 CURVE",
"322 585 OFFCURVE",
"382 563 OFFCURVE",
"418 535 CURVE",
"459 636 LINE",
"408 660 OFFCURVE",
"340 671 OFFCURVE",
"288 671 CURVE SMOOTH",
"154 671 OFFCURVE",
"58 602 OFFCURVE",
"58 502 CURVE SMOOTH",
"58 431 OFFCURVE",
"108 379 OFFCURVE",
"206 331 CURVE SMOOTH",
"265 302 OFFCURVE",
"347 274 OFFCURVE",
"347 217 CURVE SMOOTH",
"347 197 OFFCURVE",
"336 179 OFFCURVE",
"307 159 CURVE",
"365 116 LINE"
);
},
{
closed = 1;
nodes = (
"379 -150 OFFCURVE",
"464 -83 OFFCURVE",
"464 9 CURVE SMOOTH",
"464 84 OFFCURVE",
"408 138 OFFCURVE",
"339 171 CURVE SMOOTH",
"276 201 OFFCURVE",
"191 221 OFFCURVE",
"191 277 CURVE SMOOTH",
"191 307 OFFCURVE",
"215 329 OFFCURVE",
"249 350 CURVE",
"223 408 LINE",
"112 380 OFFCURVE",
"49 321 OFFCURVE",
"49 243 CURVE SMOOTH",
"49 157 OFFCURVE",
"127 113 OFFCURVE",
"222 65 CURVE SMOOTH",
"274 40 OFFCURVE",
"319 24 OFFCURVE",
"319 -11 CURVE SMOOTH",
"319 -28 OFFCURVE",
"307 -46 OFFCURVE",
"288 -56 CURVE",
"231 -28 OFFCURVE",
"178 0 OFFCURVE",
"127 48 CURVE",
"48 -89 LINE",
"120 -132 OFFCURVE",
"201 -150 OFFCURVE",
"262 -150 CURVE SMOOTH"
);
},
{
closed = 1;
nodes = (
"445 484 LINE",
"459 535 OFFCURVE",
"463 590 OFFCURVE",
"459 636 CURVE",
"282 638 LINE",
"346 484 LINE"
);
}
);
width = 523;
}
);
leftMetricsKey = S;
rightKerningGroup = space;
rightMetricsKey = S;
unicode = 00A7;
},
{
color = 3;
glyphname = copyright;
lastChange = "2018-12-16 01:01:00 +0000";
layers = (
{
layerId = "E25E64E2-9639-43F9-BB85-44020EE7B81E";
paths = (
{
closed = 1;
nodes = (
"584 -26 OFFCURVE",
"745 129 OFFCURVE",
"745 330 CURVE SMOOTH",
"745 533 OFFCURVE",
"580 692 OFFCURVE",
"381 692 CURVE SMOOTH",
"182 692 OFFCURVE",
"24 533 OFFCURVE",
"24 332 CURVE SMOOTH",
"24 129 OFFCURVE",
"185 -26 OFFCURVE",
"385 -26 CURVE SMOOTH"
);
},
{
closed = 1;
nodes = (
"556 208 LINE",
"538 255 LINE",
"513 247 OFFCURVE",
"495 242 OFFCURVE",
"468 242 CURVE SMOOTH",
"384 242 OFFCURVE",
"339 289 OFFCURVE",
"339 351 CURVE SMOOTH",
"339 383 OFFCURVE",
"351 426 OFFCURVE",
"376 453 CURVE",
"411 427 OFFCURVE",
"426 395 OFFCURVE",
"441 346 CURVE",
"568 407 LINE",
"533 501 OFFCURVE",
"469 529 OFFCURVE",
"398 529 CURVE SMOOTH",
"283 529 OFFCURVE",
"190 454 OFFCURVE",
"190 330 CURVE SMOOTH",
"190 189 OFFCURVE",
"310 122 OFFCURVE",
"431 137 CURVE"
);
},
{
closed = 1;
nodes = (
"226 57 OFFCURVE",
"109 175 OFFCURVE",
"109 329 CURVE SMOOTH",
"109 487 OFFCURVE",
"233 609 OFFCURVE",
"385 609 CURVE SMOOTH",
"537 609 OFFCURVE",
"661 486 OFFCURVE",
"661 332 CURVE SMOOTH",
"661 181 OFFCURVE",
"542 57 OFFCURVE",
"382 57 CURVE SMOOTH"
);
}
);
width = 769;
}
);
unicode = 00A9;
},
{
color = 3;
glyphname = ordfeminine;
lastChange = "2018-12-16 01:01:00 +0000";
layers = (
{
layerId = "E25E64E2-9639-43F9-BB85-44020EE7B81E";
paths = (
{
closed = 1;
nodes = (
"413 354 LINE",
"412 383 LINE",
"396 383 OFFCURVE",
"387 382 OFFCURVE",
"376 382 CURVE SMOOTH",
"365 382 OFFCURVE",
"360 391 OFFCURVE",
"360 400 CURVE",
"360 513 LINE SMOOTH",
"360 548 OFFCURVE",
"359 566 OFFCURVE",
"353 577 CURVE SMOOTH",
"331 608 OFFCURVE",
"300 625 OFFCURVE",
"256 628 CURVE SMOOTH",
"193 628 OFFCURVE",
"118 617 OFFCURVE",
"55 596 CURVE",
"52 563 OFFCURVE",
"55 520 OFFCURVE",
"61 487 CURVE",
"144 488 LINE",
"165 564 LINE",
"172 565 OFFCURVE",
"183 567 OFFCURVE",
"193 567 CURVE",
"207 561 OFFCURVE",
"224 546 OFFCURVE",
"224 506 CURVE SMOOTH",
"224 353 LINE",
"231 353 LINE",
"250 315 OFFCURVE",
"281 297 OFFCURVE",
"314 296 CURVE"
);
},
{
closed = 1;
nodes = (
"423 188 LINE",
"423 255 LINE",
"31 255 LINE",
"31 188 LINE"
);
},
{
closed = 1;
nodes = (
"249 359 LINE",
"236 380 LINE",
"220 376 OFFCURVE",
"190 370 OFFCURVE",
"171 369 CURVE",
"164 374 OFFCURVE",
"160 382 OFFCURVE",
"160 391 CURVE SMOOTH",
"160 411 OFFCURVE",
"183 421 OFFCURVE",
"209 419 CURVE SMOOTH",
"240 416 LINE",
"239 461 LINE",
"88 460 LINE",
"50 440 OFFCURVE",
"34 408 OFFCURVE",
"34 380 CURVE SMOOTH",
"34 331 OFFCURVE",
"80 286 OFFCURVE",
"165 300 CURVE"
);
}
);
width = 453;
}
);
unicode = 00AA;
},
{
color = 3;
glyphname = guillemetleft;
lastChange = "2019-02-26 16:52:46 +0000";
layers = (
{
layerId = "E25E64E2-9639-43F9-BB85-44020EE7B81E";
paths = (
{
closed = 1;
nodes = (
"605 99 LINE",
"511 253 LINE",
"598 415 LINE",
"506 480 LINE",
"330 299 LINE",
"330 207 LINE",
"506 29 LINE"
);
},
{
closed = 1;
nodes = (
"327 99 LINE",
"233 253 LINE",
"320 415 LINE",
"228 480 LINE",
"52 299 LINE",
"52 207 LINE",
"228 29 LINE"
);
}
);
width = 657;
}
);
leftMetricsKey = guilsinglleft;
rightKerningGroup = space;
rightMetricsKey = guilsinglleft;
unicode = 00AB;
},
{
color = 3;
glyphname = logicalnot;
lastChange = "2018-12-16 01:01:00 +0000";
layers = (
{
layerId = "E25E64E2-9639-43F9-BB85-44020EE7B81E";
paths = (
{
closed = 1;
nodes = (
"540 172 LINE",
"540 282 LINE",
"52 282 LINE",
"52 172 LINE"
);
},
{
closed = 1;
nodes = (
"540 0 LINE",
"540 282 LINE",
"423 282 LINE",
"423 0 LINE"
);
}
);
width = 592;
}
);
leftMetricsKey = minus;
rightMetricsKey = minus;
unicode = 00AC;
},
{
color = 3;
glyphname = softhyphen;
layers = (
{
layerId = "E25E64E2-9639-43F9-BB85-44020EE7B81E";
paths = (
{
closed = 1;
nodes = (
"419 213 LINE",
"444 262 LINE",
"379 365 LINE",
"59 365 LINE",
"34 316 LINE",
"99 213 LINE"
);
}
);
width = 500;
}
);
unicode = 00AD;
},
{
color = 3;
glyphname = registered;
lastChange = "2018-12-16 01:01:00 +0000";
layers = (
{
layerId = "E25E64E2-9639-43F9-BB85-44020EE7B81E";
paths = (
{
closed = 1;
nodes = (
"452 229 OFFCURVE",
"563 352 OFFCURVE",
"563 505 CURVE SMOOTH",
"563 663 OFFCURVE",
"447 778 OFFCURVE",
"290 778 CURVE SMOOTH",
"131 778 OFFCURVE",
"11 662 OFFCURVE",
"11 503 CURVE SMOOTH",
"11 348 OFFCURVE",
"124 229 OFFCURVE",
"287 229 CURVE SMOOTH"
);
},
{
closed = 1;
nodes = (
"184 379 LINE",
"186 418 LINE",
"174 412 OFFCURVE",
"154 403 OFFCURVE",
"142 394 CURVE",
"145 379 LINE"
);
},
{
closed = 1;
nodes = (
"292 379 LINE",
"293 403 LINE",
"236 412 LINE",
"235 379 LINE"
);
},
{
closed = 1;
nodes = (
"261 379 LINE",
"261 640 LINE",
"178 640 LINE",
"178 379 LINE"
);
},
{
closed = 1;
nodes = (
"425 379 LINE",
"351 499 LINE",
"269 495 LINE",
"330 379 LINE"
);
},
{
closed = 1;
nodes = (
"163 291 OFFCURVE",
"77 370 OFFCURVE",
"77 498 CURVE SMOOTH",
"77 628 OFFCURVE",
"167 717 OFFCURVE",
"287 717 CURVE SMOOTH",
"408 717 OFFCURVE",
"497 629 OFFCURVE",
"497 503 CURVE SMOOTH",
"497 379 OFFCURVE",
"409 291 OFFCURVE",
"282 291 CURVE SMOOTH"
);
},
{
closed = 1;
nodes = (
"201 640 LINE",
"146 640 LINE",
"146 614 LINE",
"200 606 LINE"
);
},
{
closed = 1;
nodes = (
"435 379 LINE",
"435 403 LINE",
"378 412 LINE",
"377 379 LINE"
);
},
{
closed = 1;
nodes = (
"311 477 LINE SMOOTH",
"377 477 OFFCURVE",
"414 516 OFFCURVE",
"414 558 CURVE SMOOTH",
"414 604 OFFCURVE",
"370 640 OFFCURVE",
"297 640 CURVE",
"210 640 LINE",
"255 595 LINE",
"300 602 LINE",
"315 592 OFFCURVE",
"324 575 OFFCURVE",
"324 555 CURVE SMOOTH",
"324 530 OFFCURVE",
"311 514 OFFCURVE",
"280 514 CURVE SMOOTH",
"271 514 OFFCURVE",
"259 516 OFFCURVE",
"248 518 CURVE",
"248 477 LINE"
);
}
);
width = 575;
}
);
unicode = 00AE;
},
{
color = 3;
glyphname = degree;
lastChange = "2018-12-16 01:01:00 +0000";
layers = (
{
layerId = "E25E64E2-9639-43F9-BB85-44020EE7B81E";
paths = (
{
closed = 1;
nodes = (
"256 380 OFFCURVE",
"314 435 OFFCURVE",
"314 521 CURVE SMOOTH",
"314 601 OFFCURVE",
"252 663 OFFCURVE",
"170 663 CURVE SMOOTH",
"91 663 OFFCURVE",
"30 601 OFFCURVE",
"30 521 CURVE SMOOTH",
"30 436 OFFCURVE",
"97 380 OFFCURVE",
"174 380 CURVE SMOOTH"
);
},
{
closed = 1;
nodes = (
"142 466 OFFCURVE",
"126 496 OFFCURVE",
"126 525 CURVE SMOOTH",
"126 541 OFFCURVE",
"131 557 OFFCURVE",
"139 569 CURVE",
"148 573 OFFCURVE",
"157 575 OFFCURVE",
"165 575 CURVE SMOOTH",
"198 575 OFFCURVE",
"215 544 OFFCURVE",
"215 514 CURVE SMOOTH",
"215 497 OFFCURVE",
"210 481 OFFCURVE",
"200 469 CURVE",
"192 467 OFFCURVE",
"184 466 OFFCURVE",
"177 466 CURVE SMOOTH"
);
}
);
width = 374;
}
);
unicode = 00B0;
},
{
color = 3;
glyphname = plusminus;
lastChange = "2018-12-16 01:01:00 +0000";
layers = (
{
layerId = "E25E64E2-9639-43F9-BB85-44020EE7B81E";
paths = (
{
closed = 1;
nodes = (
"339 167 LINE",
"339 342 LINE",
"509 342 LINE",
"509 451 LINE",
"339 451 LINE",
"339 626 LINE",
"222 626 LINE",
"222 451 LINE",
"52 451 LINE",
"52 342 LINE",
"222 342 LINE",
"222 167 LINE"
);
},
{
closed = 1;
nodes = (
"506 0 LINE",
"506 109 LINE",
"53 109 LINE",
"53 0 LINE"
);
}
);
width = 561;
}
);
leftMetricsKey = minus;
rightMetricsKey = minus;
unicode = 00B1;
},
{
color = 3;
glyphname = twosuperior;
lastChange = "2019-02-26 16:52:46 +0000";
layers = (
{
layerId = "E25E64E2-9639-43F9-BB85-44020EE7B81E";
paths = (
{
closed = 1;
nodes = (
"291 415 LINE",
"309 524 LINE",
"177 489 LINE",
"173 496 LINE",
"254 544 OFFCURVE",
"297 595 OFFCURVE",
"297 645 CURVE SMOOTH",
"297 703 OFFCURVE",
"244 751 OFFCURVE",
"166 751 CURVE SMOOTH",
"124 751 OFFCURVE",
"74 737 OFFCURVE",
"33 707 CURVE",
"92 687 LINE",
"105 695 OFFCURVE",
"120 699 OFFCURVE",
"131 699 CURVE SMOOTH",
"160 699 OFFCURVE",
"180 673 OFFCURVE",
"180 644 CURVE SMOOTH",
"180 614 OFFCURVE",
"157 579 OFFCURVE",
"98 527 CURVE SMOOTH",
"30 468 LINE",
"50 415 LINE"
);
},
{
closed = 1;
nodes = (
"110 593 LINE",
"149 706 LINE",
"33 707 LINE",
"30 682 OFFCURVE",
"38 617 OFFCURVE",
"45 593 CURVE"
);
}
);
width = 336;
}
);
rightKerningGroup = space;
unicode = 00B2;
},
{
color = 3;
glyphname = threesuperior;
lastChange = "2019-02-26 16:52:46 +0000";
layers = (
{
layerId = "E25E64E2-9639-43F9-BB85-44020EE7B81E";
paths = (
{
closed = 1;
nodes = (
"254 581 LINE",
"254 585 LINE",
"286 600 OFFCURVE",
"301 627 OFFCURVE",
"301 654 CURVE SMOOTH",
"301 703 OFFCURVE",
"251 751 OFFCURVE",
"172 751 CURVE SMOOTH",
"126 751 OFFCURVE",
"70 735 OFFCURVE",
"42 717 CURVE",
"61 678 LINE",
"81 692 OFFCURVE",
"113 696 OFFCURVE",
"129 696 CURVE SMOOTH",
"167 696 OFFCURVE",
"189 671 OFFCURVE",
"189 643 CURVE SMOOTH",
"189 619 OFFCURVE",
"171 592 OFFCURVE",
"126 592 CURVE SMOOTH",
"114 592 LINE",
"118 540 LINE"
);
},
{
closed = 1;
nodes = (
"241 405 OFFCURVE",
"316 435 OFFCURVE",
"316 503 CURVE SMOOTH",
"316 557 OFFCURVE",
"267 593 OFFCURVE",
"213 584 CURVE",
"215 594 LINE",
"114 592 LINE",
"107 592 LINE",
"110 538 LINE",
"143 538 LINE SMOOTH",
"177 538 OFFCURVE",
"195 517 OFFCURVE",
"195 495 CURVE SMOOTH",
"195 481 OFFCURVE",
"187 466 OFFCURVE",
"169 458 CURVE",
"136 475 OFFCURVE",
"93 508 OFFCURVE",
"56 541 CURVE",
"30 432 LINE",
"71 413 OFFCURVE",
"124 405 OFFCURVE",
"165 405 CURVE SMOOTH"
);
},
{
closed = 1;
nodes = (
"105 614 LINE",
"163 725 LINE",
"42 717 LINE",
"40 694 OFFCURVE",
"43 638 OFFCURVE",
"50 614 CURVE"
);
}
);
width = 345;
}
);
rightKerningGroup = space;
unicode = 00B3;
},
{
color = 3;
glyphname = foursuperior;
lastChange = "2019-02-26 16:52:46 +0000";
layers = (
{
layerId = "E25E64E2-9639-43F9-BB85-44020EE7B81E";
paths = (
{
closed = 1;
nodes = (
"304 485 LINE",
"324 507 LINE",
"324 547 LINE",
"60 544 LINE",
"82 528 LINE",
"205 692 LINE",
"230 693 LINE",
"207 738 LINE",
"169 751 LINE",
"-4 540 LINE",
"20 485 LINE"
);
},
{
closed = 1;
nodes = (
"166 415 LINE",
"164 464 LINE",
"140 458 OFFCURVE",
"104 443 OFFCURVE",
"85 430 CURVE",
"88 415 LINE"
);
},
{
closed = 1;
nodes = (
"303 415 LINE",
"303 445 LINE",
"244 459 LINE",
"242 415 LINE"
);
},
{
closed = 1;
nodes = (
"267 415 LINE",
"267 734 LINE",
"168 751 LINE",
"178 684 LINE",
"158 566 LINE",
"158 415 LINE"
);
}
);
width = 344;
}
);
rightKerningGroup = space;
unicode = 2074;
},
{
color = 3;
glyphname = micro;
lastChange = "2018-12-16 01:01:57 +0000";
layers = (
{
layerId = "E25E64E2-9639-43F9-BB85-44020EE7B81E";
paths = (
{
closed = 1;
nodes = (
"119 -249 OFFCURVE",
"227 -212 OFFCURVE",
"248 -183 CURVE",
"148 28 LINE",
"172 1 OFFCURVE",
"193 -12 OFFCURVE",
"218 -13 CURVE",
"295 17 OFFCURVE",
"386 76 OFFCURVE",
"467 167 CURVE",
"466 188 LINE",
"415 151 OFFCURVE",
"364 119 OFFCURVE",
"317 116 CURVE SMOOTH",
"269 113 OFFCURVE",
"245 140 OFFCURVE",
"245 194 CURVE SMOOTH",
"245 494 LINE",
"176 496 OFFCURVE",
"83 483 OFFCURVE",
"44 474 CURVE",
"45 -227 LINE"
);
},
{
closed = 1;
nodes = (
"184 17 LINE",
"184 49 LINE",
"124 49 LINE",
"124 17 LINE"
);
},
{
closed = 1;
nodes = (
"621 65 LINE",
"618 110 LINE",
"594 109 OFFCURVE",
"581 108 OFFCURVE",
"565 108 CURVE SMOOTH",
"549 108 OFFCURVE",
"541 120 OFFCURVE",
"541 134 CURVE",
"541 494 LINE",
"472 496 OFFCURVE",
"379 483 OFFCURVE",
"340 474 CURVE",
"340 77 LINE",
"359 74 LINE",
"386 18 OFFCURVE",
"431 -17 OFFCURVE",
"477 -17 CURVE"
);
}
);
width = 623;
}
);
rightMetricsKey = u;
unicode = 00B5;
},
{
color = 3;
glyphname = paragraph;
lastChange = "2019-02-26 16:52:46 +0000";
layers = (
{
layerId = "E25E64E2-9639-43F9-BB85-44020EE7B81E";
paths = (
{
closed = 1;
nodes = (
"226 278 LINE",
"206 318 OFFCURVE",
"193 358 OFFCURVE",
"193 403 CURVE SMOOTH",
"193 518 OFFCURVE",
"278 594 OFFCURVE",
"384 588 CURVE SMOOTH",
"696 573 LINE",
"703 646 LINE",
"337 692 LINE",
"98 706 OFFCURVE",
"0 585 OFFCURVE",
"0 470 CURVE SMOOTH",
"0 372 OFFCURVE",
"72 273 OFFCURVE",
"188 241 CURVE"
);
},
{
closed = 1;
nodes = (
"318 -165 LINE",
"318 -82 LINE",
"318 -82 OFFCURVE",
"236 -99 OFFCURVE",
"188 -121 CURVE",
"194 -165 LINE"
);
},
{
closed = 1;
nodes = (
"692 -165 LINE",
"693 -112 LINE",
"555 -96 LINE",
"552 -165 LINE"
);
},
{
closed = 1;
nodes = (
"419 -166 LINE",
"419 609 LINE",
"295 609 LINE",
"295 -166 LINE"
);
},
{
closed = 1;
nodes = (
"614 -166 LINE",
"614 609 LINE",
"490 609 LINE",
"490 -166 LINE"
);
}
);
width = 718;
}
);
rightKerningGroup = space;
rightMetricsKey = l;
unicode = 00B6;
},
{
color = 3;
glyphname = periodcentered;
lastChange = "2019-02-26 16:52:46 +0000";
layers = (
{
layerId = "E25E64E2-9639-43F9-BB85-44020EE7B81E";
paths = (
{
closed = 1;
nodes = (
"192 205 OFFCURVE",
"232 257 OFFCURVE",
"249 301 CURVE",
"225 333 OFFCURVE",
"174 379 OFFCURVE",
"130 397 CURVE",
"92 375 OFFCURVE",
"54 323 OFFCURVE",
"30 275 CURVE",
"56 239 OFFCURVE",
"115 195 OFFCURVE",
"154 179 CURVE"
);
}
);
width = 309;
}
);
rightKerningGroup = space;
unicode = 00B7;
},
{
color = 3;
glyphname = onesuperior;
lastChange = "2019-02-26 16:52:46 +0000";
layers = (
{
layerId = "E25E64E2-9639-43F9-BB85-44020EE7B81E";
paths = (
{
closed = 1;
nodes = (
"215 415 LINE",
"215 711 LINE",
"94 700 LINE",
"94 415 LINE"
);
},
{
closed = 1;
nodes = (
"102 415 LINE",
"101 466 LINE",
"77 461 OFFCURVE",
"42 443 OFFCURVE",
"28 430 CURVE",
"31 415 LINE"
);
},
{
closed = 1;
nodes = (
"271 415 LINE",
"271 444 LINE",
"204 466 LINE",
"202 415 LINE"
);
},
{
closed = 1;
nodes = (
"169 670 LINE",
"176 719 LINE",
"165 743 LINE",
"16 662 LINE",
"36 620 LINE"
);
},
{
closed = 1;
nodes = (
"215 711 LINE",
"164 743 LINE",
"161 702 LINE"
);
}
);
width = 286;
}
);
rightKerningGroup = space;
unicode = 00B9;
},
{
color = 3;
glyphname = ordmasculine;
lastChange = "2018-12-16 01:01:00 +0000";
layers = (
{
layerId = "E25E64E2-9639-43F9-BB85-44020EE7B81E";
paths = (
{
closed = 1;
nodes = (
"301 284 OFFCURVE",
"386 346 OFFCURVE",
"386 456 CURVE SMOOTH",
"386 565 OFFCURVE",
"302 631 OFFCURVE",
"211 631 CURVE SMOOTH",
"124 631 OFFCURVE",
"28 570 OFFCURVE",
"28 457 CURVE SMOOTH",
"28 349 OFFCURVE",
"114 284 OFFCURVE",
"208 284 CURVE SMOOTH"
);
},
{
closed = 1;
nodes = (
"400 188 LINE",
"400 255 LINE",
"16 255 LINE",
"16 188 LINE"
);
},
{
closed = 1;
nodes = (
"187 362 OFFCURVE",
"169 387 OFFCURVE",
"169 455 CURVE SMOOTH",
"169 499 OFFCURVE",
"177 533 OFFCURVE",
"187 539 CURVE",
"192 540 OFFCURVE",
"196 542 OFFCURVE",
"202 542 CURVE SMOOTH",
"231 542 OFFCURVE",
"246 509 OFFCURVE",
"246 441 CURVE SMOOTH",
"246 394 OFFCURVE",
"237 367 OFFCURVE",
"229 363 CURVE",
"225 363 OFFCURVE",
"222 362 OFFCURVE",
"216 362 CURVE SMOOTH"
);
}
);
width = 442;
}
);
unicode = 00BA;
},
{
color = 3;
glyphname = guillemetright;
lastChange = "2019-02-26 16:52:46 +0000";
layers = (
{
layerId = "E25E64E2-9639-43F9-BB85-44020EE7B81E";
paths = (
{
closed = 1;
nodes = (
"605 207 LINE",
"605 299 LINE",
"429 480 LINE",
"337 415 LINE",
"424 253 LINE",
"330 99 LINE",
"429 29 LINE"
);
},
{
closed = 1;
nodes = (
"327 207 LINE",
"327 299 LINE",
"151 480 LINE",
"59 415 LINE",
"146 253 LINE",
"52 99 LINE",
"151 29 LINE"
);
}
);
width = 657;
}
);
leftMetricsKey = "=|";
rightKerningGroup = space;
rightMetricsKey = "=|guillemetleft";
unicode = 00BB;
},
{
color = 3;
glyphname = AE;
lastChange = "2019-02-26 16:52:46 +0000";
layers = (
{
anchors = (
{
name = top;
position = "{526, 650}";
}
);
layerId = "E25E64E2-9639-43F9-BB85-44020EE7B81E";
paths = (
{
closed = 1;
nodes = (
"160 0 LINE",
"474 630 LINE",
"366 655 LINE",
"30 0 LINE"
);
},
{
closed = 1;
nodes = (
"80 0 LINE",
"79 92 LINE",
"48 76 OFFCURVE",
"7 55 OFFCURVE",
"-20 33 CURVE",
"-14 0 LINE"
);
},
{
closed = 1;
nodes = (
"273 0 LINE",
"274 55 LINE",
"136 79 LINE",
"133 0 LINE"
);
},
{
closed = 1;
nodes = (
"433 0 LINE",
"432 92 LINE",
"401 76 OFFCURVE",
"360 55 OFFCURVE",
"333 33 CURVE",
"339 0 LINE"
);
},
{
closed = 1;
nodes = (
"526 162 LINE",
"526 254 LINE",
"193 254 LINE",
"193 162 LINE"
);
},
{
closed = 1;
nodes = (
"903 0 LINE",
"914 127 LINE",
"593 106 LINE",
"518 0 LINE"
);
},
{
closed = 1;
nodes = (
"620 0 LINE",
"620 666 LINE",
"418 666 LINE",
"418 0 LINE"
);
},
{
closed = 1;
nodes = (
"928 64 OFFCURVE",
"934 159 OFFCURVE",
"932 218 CURVE",
"817 227 LINE",
"741 8 LINE",
"920 0 LINE"
);
},
{
closed = 1;
nodes = (
"452 666 LINE",
"261 666 LINE",
"260 611 LINE",
"390 589 LINE"
);
},
{
closed = 1;
nodes = (
"831 393 LINE",
"591 373 LINE",
"591 288 LINE",
"831 278 LINE"
);
},
{
closed = 1;
nodes = (
"928 666 LINE",
"511 666 LINE",
"586 568 LINE",
"915 547 LINE"
);
},
{
closed = 1;
nodes = (
"907 451 LINE",
"922 520 OFFCURVE",
"930 620 OFFCURVE",
"928 666 CURVE",
"753 657 LINE",
"792 451 LINE"
);
}
);
width = 982;
}
);
leftKerningGroup = A;
leftMetricsKey = A;
rightKerningGroup = E;
rightMetricsKey = E;
unicode = 00C6;
},
{
color = 3;
glyphname = multiply;
lastChange = "2018-12-16 01:01:00 +0000";
layers = (
{
layerId = "E25E64E2-9639-43F9-BB85-44020EE7B81E";
paths = (
{
closed = 1;
nodes = (
"498 99 LINE",
"356 241 LINE",
"497 383 LINE",
"417 461 LINE",
"279 319 LINE",
"137 463 LINE",
"55 382 LINE",
"197 238 LINE",
"57 96 LINE",
"136 18 LINE",
"275 160 LINE",
"416 17 LINE"
);
}
);
width = 553;
}
);
unicode = 00D7;
},
{
color = 3;
glyphname = Oslash;
lastChange = "2019-02-26 16:52:46 +0000";
layers = (
{
components = (
{
name = O;
}
);
layerId = "E25E64E2-9639-43F9-BB85-44020EE7B81E";
paths = (
{
closed = 1;
nodes = (
"623 706 LINE",
"544 751 LINE",
"96 -50 LINE",
"175 -93 LINE"
);
}
);
width = 698;
}
);
leftKerningGroup = O;
leftMetricsKey = O;
rightKerningGroup = O;
rightMetricsKey = O;
unicode = 00D8;
},
{
color = 3;
glyphname = Thorn;
lastChange = "2019-02-26 16:52:46 +0000";
layers = (
{
layerId = "E25E64E2-9639-43F9-BB85-44020EE7B81E";
paths = (
{
closed = 1;
nodes = (
"404 140 LINE SMOOTH",
"565 141 OFFCURVE",
"645 234 OFFCURVE",
"645 329 CURVE SMOOTH",
"645 427 OFFCURVE",
"559 526 OFFCURVE",
"392 526 CURVE SMOOTH",
"182 526 LINE",
"301 411 LINE",
"392 422 LINE",
"426 394 OFFCURVE",
"442 358 OFFCURVE",
"442 324 CURVE SMOOTH",
"442 273 OFFCURVE",
"408 231 OFFCURVE",
"353 231 CURVE SMOOTH",
"330 231 OFFCURVE",
"308 238 OFFCURVE",
"285 251 CURVE",
"282 139 LINE"
);
},
{
closed = 1;
nodes = (
"122 0 LINE",
"121 92 LINE",
"90 76 OFFCURVE",
"49 55 OFFCURVE",
"22 33 CURVE",
"28 0 LINE"
);
},
{
closed = 1;
nodes = (
"406 0 LINE",
"407 55 LINE",
"269 79 LINE",
"266 0 LINE"
);
},
{
closed = 1;
nodes = (
"318 0 LINE",
"318 650 LINE",
"108 650 LINE",
"108 0 LINE"
);
},
{
closed = 1;
nodes = (
"171 650 LINE",
"31 650 LINE",
"30 595 LINE",
"168 571 LINE"
);
},
{
closed = 1;
nodes = (
"328 574 OFFCURVE",
"369 595 OFFCURVE",
"396 617 CURVE",
"390 650 LINE",
"296 650 LINE",
"297 558 LINE"
);
}
);
width = 654;
}
);
leftKerningGroup = I;
leftMetricsKey = I;
rightMetricsKey = P;
unicode = 00DE;
},
{
color = 3;
glyphname = germandbls;
lastChange = "2019-02-26 16:52:46 +0000";
layers = (
{
layerId = "E25E64E2-9639-43F9-BB85-44020EE7B81E";
paths = (
{
closed = 1;
nodes = (
"591 -19 OFFCURVE",
"679 40 OFFCURVE",
"679 142 CURVE SMOOTH",
"679 277 OFFCURVE",
"523 315 OFFCURVE",
"509 381 CURVE",
"558 422 OFFCURVE",
"580 462 OFFCURVE",
"580 506 CURVE SMOOTH",
"580 600 OFFCURVE",
"482 687 OFFCURVE",
"346 687 CURVE SMOOTH",
"271 687 OFFCURVE",
"93 645 OFFCURVE",
"93 477 CURVE SMOOTH",
"93 0 LINE",
"294 0 LINE",
"294 437 LINE",
"290 561 LINE",
"311 573 OFFCURVE",
"345 576 OFFCURVE",
"365 573 CURVE",
"422 511 OFFCURVE",
"386 411 OFFCURVE",
"335 343 CURVE",
"351 219 OFFCURVE",
"489 212 OFFCURVE",
"489 139 CURVE SMOOTH",
"489 126 OFFCURVE",
"484 115 OFFCURVE",
"473 102 CURVE",
"437 112 OFFCURVE",
"399 138 OFFCURVE",
"370 167 CURVE",
"328 4 LINE",
"375 -10 OFFCURVE",
"431 -19 OFFCURVE",
"476 -19 CURVE SMOOTH"
);
},
{
closed = 1;
nodes = (
"143 0 LINE",
"151 88 LINE",
"109 79 OFFCURVE",
"61 61 OFFCURVE",
"19 35 CURVE",
"20 0 LINE"
);
},
{
closed = 1;
nodes = (
"228 343 LINE",
"231 418 LINE",
"149 491 LINE",
"94 469 OFFCURVE",
"46 439 OFFCURVE",
"6 398 CURVE",
"7 342 LINE"
);
}
);
width = 692;
}
);
leftKerningGroup = f;
leftMetricsKey = f;
unicode = 00DF;
},
{
color = 3;
glyphname = ae;
lastChange = "2019-02-26 16:52:46 +0000";
layers = (
{
anchors = (
{
name = bottom;
position = "{105, 0}";
},
{
name = ogonek;
position = "{141, 10}";
},
{
name = top;
position = "{105, 94}";
}
);
layerId = "E25E64E2-9639-43F9-BB85-44020EE7B81E";
paths = (
{
closed = 1;
nodes = (
"782 85 LINE",
"754 147 LINE",
"706 121 OFFCURVE",
"670 108 OFFCURVE",
"626 108 CURVE SMOOTH",
"544 108 OFFCURVE",
"484 155 OFFCURVE",
"484 258 CURVE SMOOTH",
"484 316 OFFCURVE",
"503 385 OFFCURVE",
"545 413 CURVE",
"596 407 OFFCURVE",
"626 331 OFFCURVE",
"616 271 CURVE",
"796 278 LINE",
"797 448 OFFCURVE",
"663 504 OFFCURVE",
"565 504 CURVE SMOOTH",
"510 504 OFFCURVE",
"455 486 OFFCURVE",
"410 453 CURVE",
"369 239 LINE",
"301 236 LINE",
"301 55 OFFCURVE",
"460 -42 OFFCURVE",
"624 -11 CURVE"
);
},
{
closed = 1;
nodes = (
"369 73 LINE",
"353 121 LINE",
"328 114 OFFCURVE",
"266 94 OFFCURVE",
"235 90 CURVE",
"225 101 OFFCURVE",
"220 119 OFFCURVE",
"220 132 CURVE SMOOTH",
"220 167 OFFCURVE",
"258 178 OFFCURVE",
"299 178 CURVE",
"331 178 LINE",
"331 244 LINE",
"109 239 LINE",
"49 209 OFFCURVE",
"24 159 OFFCURVE",
"24 117 CURVE SMOOTH",
"24 46 OFFCURVE",
"96 -32 OFFCURVE",
"219 -12 CURVE"
);
},
{
closed = 1;
nodes = (
"463 415 LINE",
"433 459 OFFCURVE",
"395 497 OFFCURVE",
"351 500 CURVE SMOOTH",
"261 500 OFFCURVE",
"154 480 OFFCURVE",
"60 447 CURVE",
"52 396 OFFCURVE",
"54 343 OFFCURVE",
"65 293 CURVE",
"187 287 LINE",
"216 399 LINE",
"225 405 OFFCURVE",
"240 408 OFFCURVE",
"253 409 CURVE",
"274 398 OFFCURVE",
"297 375 OFFCURVE",
"298 312 CURVE SMOOTH",
"299 201 LINE",
"426 151 LINE"
);
},
{
closed = 1;
nodes = (
"788 278 LINE",
"680 318 LINE",
"403 299 LINE",
"419 220 LINE",
"729 219 LINE"
);
}
);
width = 809;
}
);
leftKerningGroup = a;
leftMetricsKey = a;
rightKerningGroup = e;
rightMetricsKey = e;
unicode = 00E6;
},
{
color = 3;
glyphname = eth;
lastChange = "2019-02-26 16:52:46 +0000";
layers = (
{
layerId = "E25E64E2-9639-43F9-BB85-44020EE7B81E";
paths = (
{
closed = 1;
nodes = (
"427 -28 OFFCURVE",
"544 76 OFFCURVE",
"544 255 CURVE SMOOTH",
"544 420 OFFCURVE",
"444 636 OFFCURVE",
"324 779 CURVE",
"186 711 LINE",
"260 597 OFFCURVE",
"296 503 OFFCURVE",
"322 428 CURVE",
"368 422 LINE",
"330 456 OFFCURVE",
"280 475 OFFCURVE",
"228 475 CURVE SMOOTH",
"118 475 OFFCURVE",
"8 394 OFFCURVE",
"8 240 CURVE SMOOTH",
"8 63 OFFCURVE",
"151 -28 OFFCURVE",
"285 -28 CURVE SMOOTH"
);
},
{
closed = 1;
nodes = (
"245 75 OFFCURVE",
"215 150 OFFCURVE",
"215 225 CURVE SMOOTH",
"215 285 OFFCURVE",
"234 348 OFFCURVE",
"263 376 CURVE",
"315 365 OFFCURVE",
"340 342 OFFCURVE",
"390 294 CURVE",
"324 396 LINE",
"372 301 OFFCURVE",
"361 133 OFFCURVE",
"312 74 CURVE"
);
},
{
closed = 1;
nodes = (
"515 627 LINE",
"458 741 LINE",
"140 609 LINE",
"146 564 LINE",
"222 513 LINE"
);
}
);
width = 549;
}
);
leftKerningGroup = o;
leftMetricsKey = d;
unicode = 00F0;
},
{
color = 3;
glyphname = divide;
lastChange = "2018-12-16 01:01:00 +0000";
layers = (
{
layerId = "E25E64E2-9639-43F9-BB85-44020EE7B81E";
paths = (
{
closed = 1;
nodes = (
"542 210 LINE",
"542 320 LINE",
"52 320 LINE",
"52 210 LINE"
);
},
{
closed = 1;
nodes = (
"354 3 OFFCURVE",
"379 42 OFFCURVE",
"391 78 CURVE",
"379 116 OFFCURVE",
"344 155 OFFCURVE",
"292 178 CURVE",
"253 156 OFFCURVE",
"213 120 OFFCURVE",
"205 63 CURVE",
"224 28 OFFCURVE",
"256 -4 OFFCURVE",
"308 -20 CURVE"
);
},
{
closed = 1;
nodes = (
"354 372 OFFCURVE",
"379 410 OFFCURVE",
"391 447 CURVE",
"379 485 OFFCURVE",
"344 524 OFFCURVE",
"292 547 CURVE",
"253 525 OFFCURVE",
"213 488 OFFCURVE",
"205 432 CURVE",
"224 397 OFFCURVE",
"256 365 OFFCURVE",
"308 349 CURVE"
);
}
);
width = 594;
}
);
leftMetricsKey = minus;
rightMetricsKey = minus;
unicode = 00F7;
},
{
color = 9;
glyphname = oslash;
lastChange = "2019-02-26 16:52:46 +0000";
layers = (
{
anchors = (
{
name = top;
position = "{267, 468}";
}
);
layerId = "E25E64E2-9639-43F9-BB85-44020EE7B81E";
paths = (
{
closed = 1;
nodes = (
"407 -20 OFFCURVE",
"526 74 OFFCURVE",
"526 241 CURVE SMOOTH",
"526 413 OFFCURVE",
"399 504 OFFCURVE",
"267 504 CURVE SMOOTH",
"133 504 OFFCURVE",
"8 412 OFFCURVE",
"8 245 CURVE SMOOTH",
"8 76 OFFCURVE",
"137 -20 OFFCURVE",
"272 -20 CURVE SMOOTH"
);
},
{
closed = 1;
nodes = (
"218 33 LINE",
"114 102 LINE",
"23 -28 LINE",
"128 -97 LINE"
);
},
{
closed = 1;
nodes = (
"227 78 OFFCURVE",
"210 148 OFFCURVE",
"210 239 CURVE SMOOTH",
"210 309 OFFCURVE",
"219 366 OFFCURVE",
"234 389 CURVE",
"241 394 OFFCURVE",
"251 396 OFFCURVE",
"261 396 CURVE SMOOTH",
"307 396 OFFCURVE",
"324 322 OFFCURVE",
"324 229 CURVE SMOOTH",
"324 158 OFFCURVE",
"316 99 OFFCURVE",
"296 82 CURVE",
"288 79 OFFCURVE",
"282 78 OFFCURVE",
"275 78 CURVE SMOOTH"
);
},
{
closed = 1;
nodes = (
"524 498 LINE",
"417 566 LINE",
"337 446 LINE",
"444 376 LINE"
);
}
);
width = 539;
}
);
leftKerningGroup = o;
leftMetricsKey = o;
rightKerningGroup = o;
rightMetricsKey = o;
unicode = 00F8;
},
{
color = 3;
glyphname = thorn;
lastChange = "2019-02-26 16:52:46 +0000";
layers = (
{
layerId = "E25E64E2-9639-43F9-BB85-44020EE7B81E";
paths = (
{
closed = 1;
nodes = (
"500 -18 OFFCURVE",
"592 125 OFFCURVE",
"592 266 CURVE SMOOTH",
"592 398 OFFCURVE",
"512 516 OFFCURVE",
"372 494 CURVE",
"194 360 LINE",
"203 328 LINE",
"238 349 OFFCURVE",
"267 363 OFFCURVE",
"294 363 CURVE SMOOTH",
"353 363 OFFCURVE",
"385 302 OFFCURVE",
"385 232 CURVE SMOOTH",
"385 177 OFFCURVE",
"366 119 OFFCURVE",
"332 84 CURVE",
"272 76 OFFCURVE",
"219 96 OFFCURVE",
"176 145 CURVE",
"68 19 LINE",
"141 -4 OFFCURVE",
"224 -18 OFFCURVE",
"290 -18 CURVE SMOOTH"
);
},
{
closed = 1;
nodes = (
"124 -201 LINE",
"132 -113 LINE",
"90 -130 OFFCURVE",
"42 -148 OFFCURVE",
"0 -165 CURVE",
"1 -201 LINE"
);
},
{
closed = 1;
nodes = (
"364 -201 LINE",
"365 -152 LINE",
"323 -129 OFFCURVE",
"278 -107 OFFCURVE",
"234 -86 CURVE",
"201 -201 LINE"
);
},
{
closed = 1;
nodes = (
"267 -201 LINE",
"267 442 LINE",
"208 495 LINE",
"66 437 LINE",
"66 -201 LINE"
);
},
{
closed = 1;
nodes = (
"269 40 LINE",
"269 683 LINE",
"210 737 LINE",
"67 679 LINE",
"67 11 LINE"
);
},
{
closed = 1;
nodes = (
"204 651 LINE",
"210 737 LINE",
"124 732 OFFCURVE",
"45 719 OFFCURVE",
"-24 695 CURVE",
"-22 646 LINE",
"118 598 LINE"
);
}
);
width = 605;
}
);
leftKerningGroup = b;
leftMetricsKey = b;
rightKerningGroup = o;
rightMetricsKey = p;
unicode = 00FE;
},
{
color = 3;
glyphname = Dcroat;
lastChange = "2019-02-26 16:52:46 +0000";
layers = (
{
components = (
{
name = D;
}
);
layerId = "E25E64E2-9639-43F9-BB85-44020EE7B81E";
paths = (
{
closed = 1;
nodes = (
"400 262 LINE",
"443 305 LINE",
"437 342 LINE",
"55 342 LINE",
"12 299 LINE",
"18 262 LINE"
);
}
);
width = 757;
}
);
leftKerningGroup = I;
rightKerningGroup = O;
rightMetricsKey = D;
unicode = 0110;
},
{
color = 3;
glyphname = dcroat;
lastChange = "2019-02-26 16:52:46 +0000";
layers = (
{
components = (
{
name = d;
}
);
layerId = "E25E64E2-9639-43F9-BB85-44020EE7B81E";
paths = (
{
closed = 1;
nodes = (
"574 526 LINE",
"617 566 LINE",
"611 603 LINE",
"259 603 LINE",
"216 563 LINE",
"222 526 LINE"
);
}
);
width = 626;
}
);
leftKerningGroup = o;
leftMetricsKey = d;
rightKerningGroup = l;
unicode = 0111;
},
{
color = 3;
glyphname = eogonek;
lastChange = "2019-02-26 16:52:46 +0000";
layers = (
{
components = (
{
name = e;
}
);
layerId = "E25E64E2-9639-43F9-BB85-44020EE7B81E";
paths = (
{
closed = 1;
nodes = (
"469 -165 LINE",
"443 -111 LINE",
"368 -155 OFFCURVE",
"313 -137 OFFCURVE",
"313 -84 CURVE SMOOTH",
"313 -31 OFFCURVE",
"370 10 OFFCURVE",
"449 60 CURVE SMOOTH",
"489 85 LINE",
"437 86 LINE",
"265 40 OFFCURVE",
"179 -42 OFFCURVE",
"179 -120 CURVE SMOOTH",
"179 -188 OFFCURVE",
"244 -248 OFFCURVE",
"339 -236 CURVE"
);
}
);
width = 530;
}
);
leftKerningGroup = o;
leftMetricsKey = e;
rightKerningGroup = e;
unicode = 0119;
},
{
color = 3;
glyphname = Imacron;
lastChange = "2019-02-26 16:52:46 +0000";
layers = (
{
components = (
{
name = I;
}
);
layerId = "E25E64E2-9639-43F9-BB85-44020EE7B81E";
paths = (
{
closed = 1;
nodes = (
"365 737 LINE",
"412 787 LINE",
"407 846 LINE",
"144 846 LINE",
"113 846 OFFCURVE",
"70 841 OFFCURVE",
"31 821 CURVE",
"37 737 LINE"
);
}
);
width = 434;
}
);
leftKerningGroup = I;
leftMetricsKey = I;
rightKerningGroup = I;
rightMetricsKey = I;
unicode = 012A;
},
{
color = 3;
glyphname = imacron;
lastChange = "2019-02-26 16:52:46 +0000";
layers = (
{
components = (
{
name = dotlessi;
}
);
layerId = "E25E64E2-9639-43F9-BB85-44020EE7B81E";
paths = (
{
closed = 1;
nodes = (
"301 564 LINE",
"348 614 LINE",
"343 673 LINE",
"121 673 LINE",
"90 673 OFFCURVE",
"47 667 OFFCURVE",
"8 648 CURVE",
"14 564 LINE"
);
}
);
width = 359;
}
);
leftKerningGroup = n;
leftMetricsKey = i;
rightKerningGroup = i;
rightMetricsKey = i;
unicode = 012B;
},
{
color = 3;
glyphname = dotlessi;
lastChange = "2019-02-26 16:52:46 +0000";
layers = (
{
anchors = (
{
name = ogonek;
position = "{340, 10}";
},
{
name = top;
position = "{171, 468}";
}
);
layerId = "E25E64E2-9639-43F9-BB85-44020EE7B81E";
paths = (
{
closed = 1;
nodes = (
"284 0 LINE",
"284 442 LINE",
"225 495 LINE",
"83 437 LINE",
"83 0 LINE"
);
},
{
closed = 1;
nodes = (
"132 0 LINE",
"140 88 LINE",
"98 79 OFFCURVE",
"50 61 OFFCURVE",
"8 35 CURVE",
"9 0 LINE"
);
},
{
closed = 1;
nodes = (
"338 0 LINE",
"339 49 LINE",
"297 80 OFFCURVE",
"252 102 OFFCURVE",
"208 115 CURVE",
"175 0 LINE"
);
},
{
closed = 1;
nodes = (
"220 409 LINE",
"225 495 LINE",
"145 492 OFFCURVE",
"70 479 OFFCURVE",
"6 456 CURVE",
"8 407 LINE",
"133 375 LINE"
);
}
);
width = 350;
}
);
leftKerningGroup = n;
leftMetricsKey = i;
rightKerningGroup = i;
rightMetricsKey = i;
unicode = 0131;
},
{
color = 3;
glyphname = Lslash;
lastChange = "2019-02-26 16:52:46 +0000";
layers = (
{
components = (
{
name = L;
transform = "{1, 0, 0, 1, 15, 0}";
}
);
layerId = "E25E64E2-9639-43F9-BB85-44020EE7B81E";
paths = (
{
closed = 1;
nodes = (
"432 388 LINE",
"449 439 LINE",
"433 464 LINE",
"22 283 LINE",
"49 221 LINE"
);
}
);
width = 658;
}
);
leftKerningGroup = I;
leftMetricsKey = L;
rightKerningGroup = L;
rightMetricsKey = L;
unicode = 0141;
},
{
color = 3;
glyphname = lslash;
lastChange = "2019-02-26 16:52:46 +0000";
layers = (
{
components = (
{
name = l;
transform = "{1, 0, 0, 1, 27, 0}";
}
);
layerId = "E25E64E2-9639-43F9-BB85-44020EE7B81E";
paths = (
{
closed = 1;
nodes = (
"397 429 LINE",
"397 490 LINE",
"370 506 LINE",
"6 327 LINE",
"42 255 LINE"
);
}
);
width = 459;
}
);
leftKerningGroup = l;
leftMetricsKey = l;
rightKerningGroup = l;
unicode = 0142;
},
{
color = 3;
glyphname = OE;
lastChange = "2019-02-26 16:52:46 +0000";
layers = (
{
layerId = "E25E64E2-9639-43F9-BB85-44020EE7B81E";
paths = (
{
closed = 1;
nodes = (
"426 -18 OFFCURVE",
"489 -6 OFFCURVE",
"542 25 CURVE",
"493 150 LINE",
"476 112 OFFCURVE",
"419 87 OFFCURVE",
"371 87 CURVE SMOOTH",
"264 87 OFFCURVE",
"215 209 OFFCURVE",
"215 340 CURVE SMOOTH",
"215 436 OFFCURVE",
"241 526 OFFCURVE",
"287 566 CURVE",
"308 573 OFFCURVE",
"329 575 OFFCURVE",
"351 575 CURVE SMOOTH",
"395 575 OFFCURVE",
"452 564 OFFCURVE",
"475 520 CURVE",
"531 645 LINE",
"482 671 OFFCURVE",
"427 685 OFFCURVE",
"366 685 CURVE SMOOTH",
"178 685 OFFCURVE",
"8 554 OFFCURVE",
"8 330 CURVE SMOOTH",
"8 91 OFFCURVE",
"194 -18 OFFCURVE",
"365 -18 CURVE SMOOTH"
);
},
{
closed = 1;
nodes = (
"952 0 LINE",
"939 127 LINE",
"610 106 LINE",
"534 0 LINE"
);
},
{
closed = 1;
nodes = (
"646 0 LINE",
"646 666 LINE",
"436 666 LINE",
"436 0 LINE"
);
},
{
closed = 1;
nodes = (
"960 64 OFFCURVE",
"966 159 OFFCURVE",
"964 218 CURVE",
"849 227 LINE",
"773 8 LINE",
"952 0 LINE"
);
},
{
closed = 1;
nodes = (
"848 393 LINE",
"608 373 LINE",
"608 288 LINE",
"848 278 LINE"
);
},
{
closed = 1;
nodes = (
"960 666 LINE",
"528 666 LINE",
"603 568 LINE",
"932 547 LINE"
);
},
{
closed = 1;
nodes = (
"939 451 LINE",
"954 520 OFFCURVE",
"962 620 OFFCURVE",
"960 666 CURVE",
"785 657 LINE",
"824 451 LINE"
);
}
);
width = 1014;
}
);
leftKerningGroup = O;
leftMetricsKey = O;
rightKerningGroup = E;
rightMetricsKey = E;
unicode = 0152;
},
{
color = 3;
glyphname = oe;
lastChange = "2019-02-26 16:52:46 +0000";
layers = (
{
anchors = (
{
name = bottom;
position = "{604, 0}";
},
{
name = ogonek;
position = "{814, 18}";
},
{
name = top;
position = "{600, 468}";
}
);
layerId = "E25E64E2-9639-43F9-BB85-44020EE7B81E";
paths = (
{
closed = 1;
nodes = (
"343 -20 OFFCURVE",
"411 7 OFFCURVE",
"458 58 CURVE",
"458 423 LINE",
"409 477 OFFCURVE",
"339 504 OFFCURVE",
"267 504 CURVE SMOOTH",
"133 504 OFFCURVE",
"8 412 OFFCURVE",
"8 245 CURVE SMOOTH",
"8 76 OFFCURVE",
"137 -20 OFFCURVE",
"272 -20 CURVE SMOOTH"
);
},
{
closed = 1;
nodes = (
"227 78 OFFCURVE",
"210 148 OFFCURVE",
"210 238 CURVE SMOOTH",
"210 309 OFFCURVE",
"219 366 OFFCURVE",
"234 389 CURVE",
"241 394 OFFCURVE",
"251 396 OFFCURVE",
"260 396 CURVE SMOOTH",
"307 396 OFFCURVE",
"324 323 OFFCURVE",
"324 229 CURVE SMOOTH",
"324 158 OFFCURVE",
"316 99 OFFCURVE",
"296 82 CURVE",
"288 79 OFFCURVE",
"282 78 OFFCURVE",
"275 78 CURVE SMOOTH"
);
},
{
closed = 1;
nodes = (
"812 85 LINE",
"784 147 LINE",
"736 121 OFFCURVE",
"701 108 OFFCURVE",
"655 108 CURVE SMOOTH",
"568 108 OFFCURVE",
"511 158 OFFCURVE",
"511 253 CURVE SMOOTH",
"511 314 OFFCURVE",
"534 385 OFFCURVE",
"575 413 CURVE",
"626 407 OFFCURVE",
"656 331 OFFCURVE",
"646 271 CURVE",
"826 278 LINE",
"827 448 OFFCURVE",
"693 504 OFFCURVE",
"595 504 CURVE SMOOTH",
"510 504 OFFCURVE",
"428 462 OFFCURVE",
"378 390 CURVE",
"378 95 LINE",
"437 14 OFFCURVE",
"543 -32 OFFCURVE",
"655 -11 CURVE"
);
},
{
closed = 1;
nodes = (
"826 278 LINE",
"718 318 LINE",
"441 299 LINE",
"457 220 LINE",
"767 219 LINE"
);
}
);
width = 839;
}
);
leftKerningGroup = o;
leftMetricsKey = o;
rightKerningGroup = e;
rightMetricsKey = e;
unicode = 0153;
},
{
color = 3;
glyphname = pi;
lastChange = "2018-12-16 01:01:00 +0000";
layers = (
{
layerId = "E25E64E2-9639-43F9-BB85-44020EE7B81E";
paths = (
{
closed = 1;
nodes = (
"385 -19 OFFCURVE",
"410 89 OFFCURVE",
"414 231 CURVE SMOOTH",
"420 448 LINE",
"226 450 LINE",
"216 192 LINE SMOOTH",
"214 140 OFFCURVE",
"211 88 OFFCURVE",
"198 70 CURVE",
"163 99 OFFCURVE",
"128 131 OFFCURVE",
"98 162 CURVE",
"41 20 LINE",
"114 -8 OFFCURVE",
"185 -19 OFFCURVE",
"233 -19 CURVE SMOOTH"
);
},
{
closed = 1;
nodes = (
"169 378 LINE",
"756 341 LINE",
"795 370 LINE",
"791 474 LINE",
"167 474 LINE",
"127 463 OFFCURVE",
"55 405 OFFCURVE",
"30 372 CURVE",
"68 310 LINE"
);
},
{
closed = 1;
nodes = (
"696 0 LINE",
"654 442 LINE",
"484 439 LINE",
"488 34 LINE",
"546 -1 LINE"
);
}
);
width = 817;
}
);
unicode = 03C0;
},
{
color = 3;
glyphname = endash;
lastChange = "2019-02-26 16:52:46 +0000";
layers = (
{
layerId = "E25E64E2-9639-43F9-BB85-44020EE7B81E";
paths = (
{
closed = 1;
nodes = (
"485 217 LINE",
"532 270 LINE",
"527 328 LINE",
"147 328 LINE",
"116 328 OFFCURVE",
"73 321 OFFCURVE",
"34 302 CURVE",
"40 217 LINE"
);
}
);
width = 588;
}
);
leftMetricsKey = hyphen;
rightKerningGroup = space;
rightMetricsKey = hyphen;
unicode = 2013;
},
{
color = 3;
glyphname = emdash;
lastChange = "2019-02-26 16:52:46 +0000";
layers = (
{
layerId = "E25E64E2-9639-43F9-BB85-44020EE7B81E";
paths = (
{
closed = 1;
nodes = (
"946 217 LINE",
"993 270 LINE",
"988 328 LINE",
"147 328 LINE",
"116 328 OFFCURVE",
"73 321 OFFCURVE",
"34 302 CURVE",
"40 217 LINE"
);
}
);
width = 1049;
}
);
leftMetricsKey = hyphen;
rightKerningGroup = space;
rightMetricsKey = hyphen;
unicode = 2014;
},
{
color = 3;
glyphname = quoteleft;
lastChange = "2019-02-26 16:52:46 +0000";
layers = (
{
layerId = "E25E64E2-9639-43F9-BB85-44020EE7B81E";
paths = (
{
closed = 1;
nodes = (
"169 439 OFFCURVE",
"211 492 OFFCURVE",
"221 533 CURVE",
"162 589 LINE",
"171 638 OFFCURVE",
"195 672 OFFCURVE",
"230 704 CURVE",
"189 754 LINE",
"92 710 OFFCURVE",
"22 631 OFFCURVE",
"22 553 CURVE SMOOTH",
"22 515 OFFCURVE",
"40 456 OFFCURVE",
"119 426 CURVE"
);
}
);
width = 270;
}
);
rightKerningGroup = quoteleft;
unicode = 2018;
},
{
color = 3;
glyphname = quoteright;
lastChange = "2019-02-26 16:52:46 +0000";
layers = (
{
layerId = "E25E64E2-9639-43F9-BB85-44020EE7B81E";
paths = (
{
closed = 1;
nodes = (
"178 470 OFFCURVE",
"248 549 OFFCURVE",
"248 627 CURVE SMOOTH",
"248 664 OFFCURVE",
"230 725 OFFCURVE",
"151 754 CURVE",
"101 742 OFFCURVE",
"59 688 OFFCURVE",
"49 648 CURVE",
"108 592 LINE",
"99 543 OFFCURVE",
"75 508 OFFCURVE",
"40 476 CURVE",
"81 426 LINE"
);
}
);
width = 270;
}
);
leftKerningGroup = quotesright;
unicode = 2019;
},
{
color = 3;
glyphname = dagger;
lastChange = "2019-02-26 16:52:46 +0000";
layers = (
{
layerId = "E25E64E2-9639-43F9-BB85-44020EE7B81E";
paths = (
{
closed = 1;
nodes = (
"354 -180 LINE",
"400 685 LINE",
"220 689 LINE",
"178 641 LINE",
"213 -180 LINE"
);
},
{
closed = 1;
nodes = (
"502 371 LINE",
"545 432 LINE",
"539 469 LINE",
"77 469 LINE",
"34 408 LINE",
"40 371 LINE"
);
}
);
width = 579;
}
);
rightKerningGroup = space;
unicode = 2020;
},
{
color = 3;
glyphname = daggerdbl;
lastChange = "2019-02-26 16:52:46 +0000";
layers = (
{
layerId = "E25E64E2-9639-43F9-BB85-44020EE7B81E";
paths = (
{
closed = 1;
nodes = (
"356 -180 LINE",
"402 685 LINE",
"222 689 LINE",
"180 641 LINE",
"215 -180 LINE"
);
},
{
closed = 1;
nodes = (
"502 140 LINE",
"545 200 LINE",
"539 237 LINE",
"77 237 LINE",
"34 177 LINE",
"40 140 LINE"
);
},
{
closed = 1;
nodes = (
"504 371 LINE",
"547 432 LINE",
"541 469 LINE",
"79 469 LINE",
"36 408 LINE",
"42 371 LINE"
);
}
);
width = 581;
}
);
leftMetricsKey = dagger;
rightKerningGroup = space;
rightMetricsKey = dagger;
unicode = 2021;
},
{
color = 3;
glyphname = bullet;
lastChange = "2019-02-26 16:52:46 +0000";
layers = (
{
layerId = "E25E64E2-9639-43F9-BB85-44020EE7B81E";
paths = (
{
closed = 1;
nodes = (
"299 119 OFFCURVE",
"346 177 OFFCURVE",
"370 251 CURVE",
"344 328 OFFCURVE",
"277 388 OFFCURVE",
"199 422 CURVE",
"121 378 OFFCURVE",
"63 315 OFFCURVE",
"49 224 CURVE",
"86 155 OFFCURVE",
"145 109 OFFCURVE",
"226 81 CURVE"
);
}
);
width = 419;
}
);
rightKerningGroup = space;
unicode = 2022;
},
{
color = 3;
glyphname = ellipsis;
lastChange = "2019-02-26 16:52:46 +0000";
layers = (
{
layerId = "E25E64E2-9639-43F9-BB85-44020EE7B81E";
paths = (
{
closed = 1;
nodes = (
"879 5 OFFCURVE",
"910 42 OFFCURVE",
"925 91 CURVE",
"910 140 OFFCURVE",
"866 179 OFFCURVE",
"815 202 CURVE",
"763 174 OFFCURVE",
"725 132 OFFCURVE",
"717 73 CURVE",
"741 28 OFFCURVE",
"779 -2 OFFCURVE",
"832 -20 CURVE"
);
},
{
closed = 1;
nodes = (
"263 5 OFFCURVE",
"294 42 OFFCURVE",
"309 91 CURVE",
"294 140 OFFCURVE",
"250 179 OFFCURVE",
"199 202 CURVE",
"147 174 OFFCURVE",
"109 132 OFFCURVE",
"101 73 CURVE",
"125 28 OFFCURVE",
"163 -2 OFFCURVE",
"216 -20 CURVE"
);
},
{
closed = 1;
nodes = (
"571 5 OFFCURVE",
"602 42 OFFCURVE",
"617 91 CURVE",
"602 140 OFFCURVE",
"558 179 OFFCURVE",
"507 202 CURVE",
"455 174 OFFCURVE",
"417 132 OFFCURVE",
"409 73 CURVE",
"433 28 OFFCURVE",
"471 -2 OFFCURVE",
"524 -20 CURVE"
);
}
);
width = 925;
}
);
leftMetricsKey = period;
rightKerningGroup = space;
rightMetricsKey = period;
unicode = 2026;
},
{
color = 3;
glyphname = perthousand;
lastChange = "2019-02-26 16:52:46 +0000";
layers = (
{
layerId = "E25E64E2-9639-43F9-BB85-44020EE7B81E";
paths = (
{
closed = 1;
nodes = (
"645 538 LINE",
"570 596 LINE",
"162 22 LINE",
"236 -38 LINE"
);
},
{
closed = 1;
nodes = (
"299 258 OFFCURVE",
"367 335 OFFCURVE",
"367 435 CURVE SMOOTH",
"367 527 OFFCURVE",
"293 613 OFFCURVE",
"200 613 CURVE SMOOTH",
"108 613 OFFCURVE",
"36 527 OFFCURVE",
"36 435 CURVE SMOOTH",
"36 336 OFFCURVE",
"114 258 OFFCURVE",
"205 258 CURVE SMOOTH"
);
},
{
closed = 1;
nodes = (
"168 356 OFFCURVE",
"149 410 OFFCURVE",
"149 450 CURVE SMOOTH",
"149 471 OFFCURVE",
"156 491 OFFCURVE",
"167 507 CURVE",
"175 510 OFFCURVE",
"182 512 OFFCURVE",
"188 512 CURVE SMOOTH",
"224 512 OFFCURVE",
"252 472 OFFCURVE",
"252 422 CURVE SMOOTH",
"252 403 OFFCURVE",
"248 378 OFFCURVE",
"230 358 CURVE",
"225 357 OFFCURVE",
"220 356 OFFCURVE",
"214 356 CURVE SMOOTH"
);
},
{
closed = 1;
nodes = (
"729 -21 OFFCURVE",
"797 55 OFFCURVE",
"797 155 CURVE SMOOTH",
"797 247 OFFCURVE",
"723 333 OFFCURVE",
"630 333 CURVE SMOOTH",
"538 333 OFFCURVE",
"466 247 OFFCURVE",
"466 155 CURVE SMOOTH",
"466 56 OFFCURVE",
"544 -21 OFFCURVE",
"635 -21 CURVE SMOOTH"
);
},
{
closed = 1;
nodes = (
"604 76 OFFCURVE",
"579 122 OFFCURVE",
"579 167 CURVE SMOOTH",
"579 184 OFFCURVE",
"583 207 OFFCURVE",
"597 227 CURVE",
"605 230 OFFCURVE",
"612 232 OFFCURVE",
"618 232 CURVE SMOOTH",
"656 232 OFFCURVE",
"682 187 OFFCURVE",
"682 142 CURVE SMOOTH",
"682 121 OFFCURVE",
"678 98 OFFCURVE",
"660 78 CURVE",
"655 77 OFFCURVE",
"651 76 OFFCURVE",
"646 76 CURVE SMOOTH"
);
},
{
closed = 1;
nodes = (
"1096 -21 OFFCURVE",
"1164 55 OFFCURVE",
"1164 155 CURVE SMOOTH",
"1164 247 OFFCURVE",
"1090 333 OFFCURVE",
"997 333 CURVE SMOOTH",
"905 333 OFFCURVE",
"833 247 OFFCURVE",
"833 155 CURVE SMOOTH",
"833 56 OFFCURVE",
"911 -21 OFFCURVE",
"1002 -21 CURVE SMOOTH"
);
},
{
closed = 1;
nodes = (
"971 76 OFFCURVE",
"946 122 OFFCURVE",
"946 167 CURVE SMOOTH",
"946 182 OFFCURVE",
"950 207 OFFCURVE",
"964 227 CURVE",
"972 230 OFFCURVE",
"979 232 OFFCURVE",
"985 232 CURVE SMOOTH",
"1023 232 OFFCURVE",
"1049 187 OFFCURVE",
"1049 142 CURVE SMOOTH",
"1049 123 OFFCURVE",
"1045 98 OFFCURVE",
"1027 78 CURVE",
"1022 77 OFFCURVE",
"1018 76 OFFCURVE",
"1013 76 CURVE SMOOTH"
);
}
);
width = 1200;
}
);
leftMetricsKey = percent;
rightKerningGroup = space;
rightMetricsKey = percent;
unicode = 2030;
},
{
color = 3;
glyphname = guilsinglleft;
lastChange = "2019-02-26 16:52:46 +0000";
layers = (
{
layerId = "E25E64E2-9639-43F9-BB85-44020EE7B81E";
paths = (
{
closed = 1;
nodes = (
"327 99 LINE",
"231 253 LINE",
"320 415 LINE",
"228 480 LINE",
"52 299 LINE",
"52 207 LINE",
"228 29 LINE"
);
}
);
width = 379;
}
);
rightKerningGroup = space;
unicode = 2039;
},
{
color = 3;
glyphname = guilsinglright;
lastChange = "2019-02-26 16:52:46 +0000";
layers = (
{
layerId = "E25E64E2-9639-43F9-BB85-44020EE7B81E";
paths = (
{
closed = 1;
nodes = (
"327 207 LINE",
"327 299 LINE",
"151 480 LINE",
"59 415 LINE",
"148 253 LINE",
"52 99 LINE",
"151 29 LINE"
);
}
);
width = 379;
}
);
leftMetricsKey = "=|";
rightKerningGroup = space;
rightMetricsKey = "=|guilsinglleft";
unicode = 203A;
},
{
color = 3;
glyphname = fraction;
lastChange = "2019-02-26 16:52:46 +0000";
layers = (
{
layerId = "E25E64E2-9639-43F9-BB85-44020EE7B81E";
paths = (
{
closed = 1;
nodes = (
"458 628 LINE",
"387 698 LINE",
"-205 78 LINE",
"-133 10 LINE"
);
}
);
width = 204;
}
);
rightKerningGroup = space;
unicode = 2044;
},
{
color = 3;
glyphname = euro;
lastChange = "2018-12-16 01:01:00 +0000";
layers = (
{
anchors = (
{
name = bottom;
position = "{424, 0}";
},
{
name = top;
position = "{424, 650}";
}
);
layerId = "E25E64E2-9639-43F9-BB85-44020EE7B81E";
paths = (
{
closed = 1;
nodes = (
"652 51 LINE",
"622 141 LINE",
"476 103 LINE",
"341 113 OFFCURVE",
"285 196 OFFCURVE",
"285 325 CURVE SMOOTH",
"285 422 OFFCURVE",
"317 502 OFFCURVE",
"374 553 CURVE",
"450 558 OFFCURVE",
"523 533 OFFCURVE",
"596 472 CURVE",
"655 607 LINE",
"603 647 OFFCURVE",
"526 670 OFFCURVE",
"442 670 CURVE SMOOTH",
"204 670 OFFCURVE",
"86 485 OFFCURVE",
"86 310 CURVE SMOOTH",
"86 164 OFFCURVE",
"168 -32 OFFCURVE",
"468 -22 CURVE"
);
},
{
closed = 1;
nodes = (
"508 198 LINE",
"549 247 LINE",
"543 274 LINE",
"18 274 LINE",
"-23 225 LINE",
"-17 198 LINE"
);
},
{
closed = 1;
nodes = (
"548 329 LINE",
"589 378 LINE",
"583 405 LINE",
"40 405 LINE",
"-1 356 LINE",
"5 329 LINE"
);
},
{
closed = 1;
nodes = (
"616 442 LINE",
"633 487 OFFCURVE",
"646 540 OFFCURVE",
"656 607 CURVE",
"494 613 LINE",
"526 442 LINE"
);
}
);
width = 660;
}
);
rightMetricsKey = C;
unicode = 20AC;
},
{
color = 3;
glyphname = ruble;
lastChange = "2019-02-26 16:52:46 +0000";
layers = (
{
layerId = "E25E64E2-9639-43F9-BB85-44020EE7B81E";
paths = (
{
closed = 1;
nodes = (
"410 229 LINE SMOOTH",
"568 229 OFFCURVE",
"681 321 OFFCURVE",
"681 446 CURVE SMOOTH",
"681 563 OFFCURVE",
"584 676 OFFCURVE",
"401 674 CURVE SMOOTH",
"34 666 LINE",
"309 563 LINE",
"426 578 LINE",
"455 556 OFFCURVE",
"470 486 OFFCURVE",
"470 440 CURVE SMOOTH",
"470 379 OFFCURVE",
"440 325 OFFCURVE",
"373 325 CURVE SMOOTH",
"295 325 LINE",
"292 229 LINE"
);
},
{
closed = 1;
nodes = (
"132 0 LINE",
"131 91 LINE",
"93 73 OFFCURVE",
"60 54 OFFCURVE",
"32 32 CURVE",
"38 0 LINE"
);
},
{
closed = 1;
nodes = (
"382 116 LINE",
"425 155 LINE",
"419 196 LINE",
"65 196 LINE",
"22 153 LINE",
"28 116 LINE"
);
},
{
closed = 1;
nodes = (
"442 0 LINE",
"443 55 LINE",
"305 79 LINE",
"302 0 LINE"
);
},
{
closed = 1;
nodes = (
"382 237 LINE",
"425 276 LINE",
"419 322 LINE",
"65 322 LINE",
"22 274 LINE",
"28 237 LINE"
);
},
{
closed = 1;
nodes = (
"319 0 LINE",
"319 666 LINE",
"109 666 LINE",
"109 0 LINE"
);
},
{
closed = 1;
nodes = (
"165 666 LINE",
"34 666 LINE",
"33 611 LINE",
"163 589 LINE"
);
}
);
width = 690;
}
);
leftKerningGroup = I;
leftMetricsKey = P;
rightMetricsKey = P;
unicode = 20BD;
},
{
color = 3;
glyphname = trademark;
lastChange = "2018-12-16 01:01:00 +0000";
layers = (
{
anchors = (
{
name = bottom;
position = "{176, 359}";
},
{
name = center;
position = "{223, 502}";
},
{
name = top;
position = "{176, 645}";
}
);
layerId = "E25E64E2-9639-43F9-BB85-44020EE7B81E";
paths = (
{
closed = 1;
nodes = (
"693 456 LINE",
"696 526 LINE",
"607 735 LINE",
"499 715 LINE",
"612 446 LINE"
);
},
{
closed = 1;
nodes = (
"146 448 LINE",
"145 495 LINE",
"126 484 OFFCURVE",
"103 474 OFFCURVE",
"90 462 CURVE",
"93 448 LINE"
);
},
{
closed = 1;
nodes = (
"89 598 LINE",
"111 732 LINE",
"7 737 LINE",
"4 713 OFFCURVE",
"12 618 OFFCURVE",
"20 598 CURVE"
);
},
{
closed = 1;
nodes = (
"312 448 LINE",
"313 474 LINE",
"246 487 LINE",
"244 448 LINE"
);
},
{
closed = 1;
nodes = (
"265 448 LINE",
"265 726 LINE",
"139 726 LINE",
"139 448 LINE"
);
},
{
closed = 1;
nodes = (
"459 449 LINE",
"459 496 LINE",
"439 485 OFFCURVE",
"423 475 OFFCURVE",
"410 463 CURVE",
"413 449 LINE"
);
},
{
closed = 1;
nodes = (
"201 688 LINE",
"363 677 LINE",
"396 737 LINE",
"216 734 OFFCURVE",
"189 734 OFFCURVE",
"7 737 CURVE",
"39 677 LINE"
);
},
{
closed = 1;
nodes = (
"576 449 LINE",
"576 475 LINE SMOOTH",
"509 488 LINE",
"508 449 LINE"
);
},
{
closed = 1;
nodes = (
"382 598 LINE",
"390 618 OFFCURVE",
"398 713 OFFCURVE",
"396 737 CURVE",
"291 732 LINE",
"314 598 LINE SMOOTH"
);
},
{
closed = 1;
nodes = (
"529 449 LINE",
"535 589 LINE",
"528 675 LINE",
"607 735 LINE",
"464 735 LINE",
"451 449 LINE"
);
},
{
closed = 1;
nodes = (
"497 735 LINE",
"429 735 LINE",
"428 709 LINE",
"495 696 LINE"
);
},
{
closed = 1;
nodes = (
"779 449 LINE",
"779 496 LINE",
"759 485 OFFCURVE",
"743 475 OFFCURVE",
"730 463 CURVE",
"733 449 LINE"
);
},
{
closed = 1;
nodes = (
"802 719 LINE",
"755 735 LINE",
"644 465 LINE",
"693 456 LINE"
);
},
{
closed = 1;
nodes = (
"922 449 LINE",
"922 475 LINE",
"855 488 LINE",
"854 449 LINE"
);
},
{
closed = 1;
nodes = (
"884 449 LINE",
"869 735 LINE",
"755 735 LINE",
"770 671 LINE",
"763 585 LINE",
"772 449 LINE"
);
},
{
closed = 1;
nodes = (
"879 699 OFFCURVE",
"895 709 OFFCURVE",
"908 721 CURVE",
"905 735 LINE",
"859 735 LINE",
"859 688 LINE"
);
}
);
width = 944;
}
);
leftMetricsKey = T;
rightMetricsKey = M;
unicode = 2122;
},
{
color = 3;
glyphname = Ohm;
lastChange = "2018-12-16 01:01:00 +0000";
layers = (
{
layerId = "E25E64E2-9639-43F9-BB85-44020EE7B81E";
paths = (
{
closed = 1;
nodes = (
"572 77 OFFCURVE",
"696 208 OFFCURVE",
"696 367 CURVE SMOOTH",
"696 551 OFFCURVE",
"528 670 OFFCURVE",
"357 670 CURVE SMOOTH",
"182 670 OFFCURVE",
"8 545 OFFCURVE",
"8 358 CURVE SMOOTH",
"8 195 OFFCURVE",
"138 83 OFFCURVE",
"301 18 CURVE",
"338 91 LINE",
"252 185 OFFCURVE",
"220 297 OFFCURVE",
"220 384 CURVE SMOOTH",
"220 498 OFFCURVE",
"273 573 OFFCURVE",
"363 573 CURVE SMOOTH",
"454 573 OFFCURVE",
"505 499 OFFCURVE",
"505 387 CURVE SMOOTH",
"505 303 OFFCURVE",
"474 190 OFFCURVE",
"391 87 CURVE",
"422 12 LINE"
);
},
{
closed = 1;
nodes = (
"338 0 LINE",
"338 91 LINE",
"233 86 OFFCURVE",
"96 63 OFFCURVE",
"38 32 CURVE",
"44 0 LINE"
);
},
{
closed = 1;
nodes = (
"671 0 LINE",
"672 55 LINE",
"391 87 LINE",
"391 0 LINE"
);
}
);
width = 704;
}
);
leftMetricsKey = O;
rightMetricsKey = O;
unicode = 2126;
},
{
color = 3;
glyphname = partialdiff;
lastChange = "2018-12-16 01:01:00 +0000";
layers = (
{
layerId = "E25E64E2-9639-43F9-BB85-44020EE7B81E";
paths = (
{
closed = 1;
nodes = (
"443 -33 OFFCURVE",
"561 81 OFFCURVE",
"561 289 CURVE SMOOTH",
"561 480 OFFCURVE",
"463 677 OFFCURVE",
"197 761 CURVE",
"156 676 LINE",
"298 625 OFFCURVE",
"375 478 OFFCURVE",
"375 319 CURVE SMOOTH",
"375 218 OFFCURVE",
"347 119 OFFCURVE",
"294 70 CURVE",
"244 79 OFFCURVE",
"226 137 OFFCURVE",
"229 193 CURVE SMOOTH",
"234 276 OFFCURVE",
"293 365 OFFCURVE",
"413 357 CURVE",
"413 405 LINE",
"263 476 LINE",
"142 476 OFFCURVE",
"43 355 OFFCURVE",
"43 217 CURVE SMOOTH",
"43 74 OFFCURVE",
"141 -33 OFFCURVE",
"294 -33 CURVE SMOOTH"
);
}
);
width = 600;
}
);
unicode = 2202;
},
{
color = 3;
glyphname = increment;
lastChange = "2018-12-16 01:01:00 +0000";
layers = (
{
layerId = "E25E64E2-9639-43F9-BB85-44020EE7B81E";
paths = (
{
closed = 1;
nodes = (
"705 76 LINE",
"446 674 LINE",
"264 629 LINE",
"517 0 LINE"
);
},
{
closed = 1;
nodes = (
"669 0 LINE",
"711 38 LINE",
"706 76 LINE",
"89 76 LINE",
"40 37 LINE",
"46 0 LINE"
);
},
{
closed = 1;
nodes = (
"371 604 LINE",
"264 629 LINE",
"40 37 LINE",
"167 31 LINE"
);
}
);
width = 743;
}
);
unicode = 2206;
},
{
color = 9;
glyphname = product;
lastChange = "2018-12-16 01:01:00 +0000";
layers = (
{
layerId = "E25E64E2-9639-43F9-BB85-44020EE7B81E";
paths = (
{
closed = 1;
nodes = (
"699 -100 LINE",
"699 680 LINE",
"489 680 LINE",
"489 -100 LINE"
);
},
{
closed = 1;
nodes = (
"149 -100 LINE",
"148 -9 LINE",
"110 -27 OFFCURVE",
"77 -46 OFFCURVE",
"49 -68 CURVE",
"55 -100 LINE"
);
},
{
closed = 1;
nodes = (
"432 -100 LINE",
"433 -45 LINE",
"295 -21 LINE",
"292 -100 LINE"
);
},
{
closed = 1;
nodes = (
"344 -100 LINE",
"344 680 LINE",
"134 680 LINE",
"134 -100 LINE"
);
},
{
closed = 1;
nodes = (
"787 -100 LINE",
"788 -45 LINE",
"650 -21 LINE",
"647 -100 LINE"
);
},
{
closed = 1;
nodes = (
"775 627 LINE",
"820 676 LINE",
"816 735 LINE",
"131 735 LINE",
"100 735 OFFCURVE",
"60 727 OFFCURVE",
"22 708 CURVE",
"36 627 LINE"
);
}
);
width = 842;
}
);
leftMetricsKey = H;
rightMetricsKey = H;
unicode = 220F;
},
{
color = 3;
glyphname = summation;
lastChange = "2018-12-16 01:01:00 +0000";
layers = (
{
layerId = "E25E64E2-9639-43F9-BB85-44020EE7B81E";
paths = (
{
closed = 1;
nodes = (
"392 308 LINE",
"201 724 LINE",
"30 655 LINE",
"229 236 LINE"
);
},
{
closed = 1;
nodes = (
"657 -100 LINE",
"640 27 LINE",
"275 14 LINE",
"46 -28 LINE",
"46 -100 LINE"
);
},
{
closed = 1;
nodes = (
"392 308 LINE",
"307 377 LINE",
"46 -27 LINE",
"133 -92 LINE"
);
},
{
closed = 1;
nodes = (
"660 -54 OFFCURVE",
"648 102 OFFCURVE",
"634 153 CURVE",
"511 153 LINE",
"430 -91 LINE",
"656 -100 LINE"
);
},
{
closed = 1;
nodes = (
"629 735 LINE",
"30 735 LINE",
"30 655 LINE",
"299 613 LINE",
"612 600 LINE"
);
},
{
closed = 1;
nodes = (
"606 482 LINE",
"620 533 OFFCURVE",
"632 689 OFFCURVE",
"628 735 CURVE",
"402 726 LINE",
"483 482 LINE"
);
}
);
width = 719;
}
);
unicode = 2211;
},
{
color = 3;
glyphname = minus;
lastChange = "2018-12-16 01:01:00 +0000";
layers = (
{
layerId = "E25E64E2-9639-43F9-BB85-44020EE7B81E";
paths = (
{
closed = 1;
nodes = (
"542 210 LINE",
"542 320 LINE",
"52 320 LINE",
"52 210 LINE"
);
}
);
width = 594;
}
);
unicode = 2212;
},
{
color = 3;
glyphname = bulletoperator;
layers = (
{
layerId = "E25E64E2-9639-43F9-BB85-44020EE7B81E";
paths = (
{
closed = 1;
nodes = (
"192 192 OFFCURVE",
"232 244 OFFCURVE",
"249 288 CURVE",
"225 320 OFFCURVE",
"174 366 OFFCURVE",
"130 384 CURVE",
"92 362 OFFCURVE",
"54 310 OFFCURVE",
"30 262 CURVE",
"56 226 OFFCURVE",
"115 182 OFFCURVE",
"154 166 CURVE"
);
}
);
width = 309;
}
);
unicode = 2219;
},
{
color = 3;
glyphname = radical;
lastChange = "2018-12-16 01:01:00 +0000";
layers = (
{
layerId = "E25E64E2-9639-43F9-BB85-44020EE7B81E";
paths = (
{
closed = 1;
nodes = (
"360 -103 OFFCURVE",
"453 -98 OFFCURVE",
"493 -84 CURVE",
"739 703 LINE",
"598 751 LINE",
"347 -56 LINE",
"451 -57 LINE",
"317 474 LINE",
"195 474 LINE",
"41 334 LINE",
"112 233 LINE",
"270 336 LINE",
"177 388 LINE",
"316 -101 LINE"
);
}
);
width = 805;
}
);
unicode = 221A;
},
{
color = 3;
glyphname = infinity;
lastChange = "2018-12-16 01:01:00 +0000";
layers = (
{
layerId = "E25E64E2-9639-43F9-BB85-44020EE7B81E";
paths = (
{
closed = 1;
nodes = (
"648 131 OFFCURVE",
"753 197 OFFCURVE",
"753 338 CURVE SMOOTH",
"753 460 OFFCURVE",
"674 534 OFFCURVE",
"588 534 CURVE SMOOTH",
"496 534 OFFCURVE",
"431 446 OFFCURVE",
"382 366 CURVE",
"419 319 LINE",
"457 367 OFFCURVE",
"515 398 OFFCURVE",
"555 398 CURVE SMOOTH",
"600 398 OFFCURVE",
"626 357 OFFCURVE",
"626 323 CURVE SMOOTH",
"626 310 OFFCURVE",
"623 293 OFFCURVE",
"613 280 CURVE",
"556 250 OFFCURVE",
"504 326 OFFCURVE",
"447 394 CURVE SMOOTH",
"392 458 OFFCURVE",
"323 536 OFFCURVE",
"227 536 CURVE SMOOTH",
"130 536 OFFCURVE",
"30 454 OFFCURVE",
"30 322 CURVE SMOOTH",
"30 192 OFFCURVE",
"128 132 OFFCURVE",
"208 132 CURVE SMOOTH",
"298 132 OFFCURVE",
"365 209 OFFCURVE",
"411 301 CURVE",
"367 353 LINE",
"338 304 OFFCURVE",
"298 279 OFFCURVE",
"258 279 CURVE SMOOTH",
"207 279 OFFCURVE",
"167 318 OFFCURVE",
"167 375 CURVE SMOOTH",
"167 387 OFFCURVE",
"171 394 OFFCURVE",
"175 402 CURVE",
"232 434 OFFCURVE",
"291 357 OFFCURVE",
"352 275 CURVE",
"409 202 OFFCURVE",
"469 131 OFFCURVE",
"560 131 CURVE SMOOTH"
);
}
);
width = 775;
}
);
unicode = 221E;
},
{
color = 3;
glyphname = integral;
lastChange = "2018-12-16 01:01:00 +0000";
layers = (
{
layerId = "E25E64E2-9639-43F9-BB85-44020EE7B81E";
paths = (
{
closed = 1;
nodes = (
"281 -179 OFFCURVE",
"434 -39 OFFCURVE",
"434 118 CURVE",
"249 642 LINE",
"314 621 OFFCURVE",
"365 577 OFFCURVE",
"414 527 CURVE",
"508 702 LINE",
"432 737 OFFCURVE",
"385 751 OFFCURVE",
"330 751 CURVE SMOOTH",
"194 750 OFFCURVE",
"42 611 OFFCURVE",
"42 454 CURVE",
"227 -70 LINE",
"162 -50 OFFCURVE",
"111 -5 OFFCURVE",
"61 45 CURVE",
"-33 -130 LINE",
"45 -162 OFFCURVE",
"98 -180 OFFCURVE",
"146 -179 CURVE SMOOTH"
);
}
);
width = 475;
}
);
unicode = 222B;
},
{
color = 3;
glyphname = notequal;
lastChange = "2018-12-16 01:01:00 +0000";
layers = (
{
components = (
{
name = equal;
}
);
layerId = "E25E64E2-9639-43F9-BB85-44020EE7B81E";
paths = (
{
closed = 1;
nodes = (
"478 496 LINE",
"428 524 LINE",
"118 23 LINE",
"168 -6 LINE"
);
}
);
width = 576;
}
);
leftMetricsKey = minus;
rightMetricsKey = minus;
unicode = 2260;
},
{
color = 3;
glyphname = lessequal;
lastChange = "2018-12-16 01:01:00 +0000";
layers = (
{
layerId = "E25E64E2-9639-43F9-BB85-44020EE7B81E";
paths = (
{
closed = 1;
nodes = (
"526 235 LINE",
"217 374 LINE",
"216 380 LINE",
"526 532 LINE",
"478 615 LINE",
"62 407 LINE",
"70 337 LINE",
"479 149 LINE"
);
},
{
closed = 1;
nodes = (
"542 0 LINE",
"542 97 LINE",
"52 97 LINE",
"52 0 LINE"
);
}
);
width = 594;
}
);
leftMetricsKey = minus;
rightMetricsKey = minus;
unicode = 2264;
},
{
color = 3;
glyphname = greaterequal;
lastChange = "2018-12-16 01:01:00 +0000";
layers = (
{
layerId = "E25E64E2-9639-43F9-BB85-44020EE7B81E";
paths = (
{
closed = 1;
nodes = (
"524 337 LINE",
"532 407 LINE",
"117 615 LINE",
"68 532 LINE",
"378 380 LINE",
"377 374 LINE",
"68 235 LINE",
"115 149 LINE"
);
},
{
closed = 1;
nodes = (
"542 0 LINE",
"542 97 LINE",
"52 97 LINE",
"52 0 LINE"
);
}
);
width = 594;
}
);
leftMetricsKey = minus;
rightMetricsKey = minus;
unicode = 2265;
},
{
color = 3;
glyphname = lozenge;
lastChange = "2018-12-16 01:01:00 +0000";
layers = (
{
layerId = "E25E64E2-9639-43F9-BB85-44020EE7B81E";
paths = (
{
closed = 1;
nodes = (
"516 367 LINE",
"316 743 LINE",
"214 735 LINE",
"34 368 LINE",
"152 325 LINE",
"265 576 LINE",
"271 577 LINE",
"402 322 LINE"
);
},
{
closed = 1;
nodes = (
"336 0 LINE",
"516 367 LINE",
"398 410 LINE",
"285 159 LINE",
"279 158 LINE",
"148 413 LINE",
"34 368 LINE",
"234 -8 LINE"
);
}
);
width = 550;
}
);
unicode = 25CA;
},
{
color = 3;
glyphname = f_b.liga;
lastChange = "2019-02-26 16:52:46 +0000";
layers = (
{
components = (
{
name = b;
transform = "{1, 0, 0, 1, 405, 0}";
}
);
layerId = "E25E64E2-9639-43F9-BB85-44020EE7B81E";
paths = (
{
closed = 1;
nodes = (
"287 0 LINE",
"287 437 LINE",
"288 467 LINE",
"233 613 LINE",
"543 573 LINE",
"600 737 LINE",
"307 737 LINE SMOOTH",
"185 737 OFFCURVE",
"85 650 OFFCURVE",
"85 523 CURVE SMOOTH",
"85 0 LINE"
);
},
{
closed = 1;
nodes = (
"143 0 LINE",
"151 88 LINE",
"109 79 OFFCURVE",
"61 61 OFFCURVE",
"19 35 CURVE",
"20 0 LINE"
);
},
{
closed = 1;
nodes = (
"369 0 LINE",
"370 49 LINE",
"328 80 OFFCURVE",
"283 102 OFFCURVE",
"239 115 CURVE",
"206 0 LINE"
);
},
{
closed = 1;
nodes = (
"228 351 LINE",
"231 426 LINE",
"149 499 LINE",
"102 469 OFFCURVE",
"54 439 OFFCURVE",
"6 406 CURVE",
"7 350 LINE SMOOTH"
);
},
{
closed = 1;
nodes = (
"340 349 LINE",
"392 418 LINE",
"391 474 LINE",
"230 474 LINE",
"230 349 LINE"
);
}
);
width = 994;
}
);
leftKerningGroup = f;
leftMetricsKey = f;
rightKerningGroup = o;
rightMetricsKey = b;
},
{
color = 3;
glyphname = f_h.liga;
lastChange = "2019-02-26 16:52:46 +0000";
layers = (
{
components = (
{
name = h;
transform = "{1, 0, 0, 1, 407, 0}";
}
);
layerId = "E25E64E2-9639-43F9-BB85-44020EE7B81E";
paths = (
{
closed = 1;
nodes = (
"287 0 LINE",
"287 437 LINE",
"288 467 LINE",
"233 613 LINE",
"546 573 LINE",
"629 737 LINE",
"307 737 LINE SMOOTH",
"185 737 OFFCURVE",
"85 650 OFFCURVE",
"85 523 CURVE SMOOTH",
"85 0 LINE"
);
},
{
closed = 1;
nodes = (
"143 0 LINE",
"151 88 LINE",
"109 79 OFFCURVE",
"61 61 OFFCURVE",
"19 35 CURVE",
"20 0 LINE"
);
},
{
closed = 1;
nodes = (
"369 0 LINE",
"370 49 LINE",
"328 80 OFFCURVE",
"283 102 OFFCURVE",
"239 115 CURVE",
"206 0 LINE"
);
},
{
closed = 1;
nodes = (
"228 351 LINE",
"231 426 LINE",
"149 499 LINE",
"102 469 OFFCURVE",
"54 439 OFFCURVE",
"6 406 CURVE",
"7 350 LINE"
);
},
{
closed = 1;
nodes = (
"340 349 LINE",
"392 418 LINE",
"391 474 LINE",
"230 474 LINE",
"230 349 LINE"
);
}
);
width = 1064;
}
);
leftKerningGroup = f;
leftMetricsKey = f;
rightKerningGroup = n;
rightMetricsKey = h;
},
{
color = 3;
glyphname = f_k.liga;
lastChange = "2019-02-26 16:52:46 +0000";
layers = (
{
components = (
{
name = k;
transform = "{1, 0, 0, 1, 406, 0}";
}
);
layerId = "E25E64E2-9639-43F9-BB85-44020EE7B81E";
paths = (
{
closed = 1;
nodes = (
"287 0 LINE",
"287 437 LINE",
"288 467 LINE",
"233 613 LINE",
"546 573 LINE",
"629 737 LINE",
"307 737 LINE SMOOTH",
"185 737 OFFCURVE",
"85 650 OFFCURVE",
"85 523 CURVE SMOOTH",
"85 0 LINE"
);
},
{
closed = 1;
nodes = (
"143 0 LINE",
"151 88 LINE",
"109 79 OFFCURVE",
"61 61 OFFCURVE",
"19 35 CURVE",
"20 0 LINE"
);
},
{
closed = 1;
nodes = (
"369 0 LINE",
"370 49 LINE",
"328 80 OFFCURVE",
"283 102 OFFCURVE",
"239 115 CURVE",
"206 0 LINE"
);
},
{
closed = 1;
nodes = (
"228 351 LINE",
"231 426 LINE",
"149 499 LINE",
"102 469 OFFCURVE",
"54 439 OFFCURVE",
"6 406 CURVE",
"7 350 LINE"
);
},
{
closed = 1;
nodes = (
"340 349 LINE",
"392 418 LINE",
"391 474 LINE",
"230 474 LINE",
"230 349 LINE"
);
}
);
width = 1051;
}
);
leftKerningGroup = f;
leftMetricsKey = f;
rightKerningGroup = k;
rightMetricsKey = k;
},
{
color = 3;
glyphname = f_l.liga;
lastChange = "2019-02-26 16:52:46 +0000";
layers = (
{
components = (
{
name = l;
transform = "{1, 0, 0, 1, 407, 0}";
}
);
layerId = "E25E64E2-9639-43F9-BB85-44020EE7B81E";
paths = (
{
closed = 1;
nodes = (
"287 0 LINE",
"287 437 LINE",
"288 467 LINE",
"233 613 LINE",
"546 573 LINE",
"629 737 LINE",
"307 737 LINE SMOOTH",
"185 737 OFFCURVE",
"85 650 OFFCURVE",
"85 523 CURVE SMOOTH",
"85 0 LINE"
);
},
{
closed = 1;
nodes = (
"143 0 LINE",
"151 88 LINE",
"109 79 OFFCURVE",
"61 61 OFFCURVE",
"19 35 CURVE",
"20 0 LINE"
);
},
{
closed = 1;
nodes = (
"369 0 LINE",
"370 49 LINE",
"328 80 OFFCURVE",
"283 102 OFFCURVE",
"239 115 CURVE",
"206 0 LINE"
);
},
{
closed = 1;
nodes = (
"228 351 LINE",
"231 426 LINE",
"149 499 LINE",
"102 469 OFFCURVE",
"54 439 OFFCURVE",
"6 406 CURVE",
"7 350 LINE"
);
},
{
closed = 1;
nodes = (
"340 349 LINE",
"392 418 LINE",
"391 474 LINE",
"230 474 LINE",
"230 349 LINE"
);
}
);
width = 778;
}
);
leftKerningGroup = f;
leftMetricsKey = f;
rightKerningGroup = l;
rightMetricsKey = l;
},
{
color = 3;
glyphname = acutecomb;
layers = (
{
anchors = (
{
name = _top;
position = "{0, 474}";
}
);
layerId = "E25E64E2-9639-43F9-BB85-44020EE7B81E";
paths = (
{
closed = 1;
nodes = (
"50 589 OFFCURVE",
"113 654 OFFCURVE",
"173 702 CURVE",
"53 808 LINE",
"-104 611 LINE",
"-6 535 LINE"
);
}
);
width = 0;
}
);
unicode = 0301;
},
{
color = 3;
glyphname = brevecomb;
lastChange = "2018-12-16 01:01:00 +0000";
layers = (
{
anchors = (
{
name = _top;
position = "{0, 474}";
}
);
layerId = "E25E64E2-9639-43F9-BB85-44020EE7B81E";
paths = (
{
closed = 1;
nodes = (
"92 549 OFFCURVE",
"176 606 OFFCURVE",
"178 719 CURVE",
"55 721 LINE",
"55 675 OFFCURVE",
"27 651 OFFCURVE",
"-4 651 CURVE SMOOTH",
"-34 651 OFFCURVE",
"-64 673 OFFCURVE",
"-67 721 CURVE",
"-176 719 LINE",
"-170 604 OFFCURVE",
"-83 549 OFFCURVE",
"3 549 CURVE SMOOTH"
);
}
);
width = 0;
}
);
unicode = 0306;
},
{
color = 3;
glyphname = caroncomb;
lastChange = "2018-12-16 01:01:00 +0000";
layers = (
{
anchors = (
{
name = _top;
position = "{0, 474}";
}
);
layerId = "E25E64E2-9639-43F9-BB85-44020EE7B81E";
paths = (
{
closed = 1;
nodes = (
"72 543 LINE",
"209 715 LINE",
"128 785 LINE",
"5 642 LINE",
"-121 784 LINE",
"-217 698 LINE",
"-67 541 LINE"
);
}
);
width = 0;
}
);
unicode = 030C;
},
{
color = 3;
glyphname = acutecomb.case;
lastChange = "2018-12-16 01:01:00 +0000";
layers = (
{
anchors = (
{
name = _top;
position = "{1, 650}";
}
);
layerId = "E25E64E2-9639-43F9-BB85-44020EE7B81E";
paths = (
{
closed = 1;
nodes = (
"-16 719 OFFCURVE",
"81 752 OFFCURVE",
"165 784 CURVE",
"99 922 LINE",
"-150 773 LINE",
"-99 684 LINE"
);
}
);
width = 0;
}
);
},
{
color = 3;
glyphname = brevecomb.case;
lastChange = "2018-12-16 01:01:00 +0000";
layers = (
{
anchors = (
{
name = _top;
position = "{-1, 650}";
}
);
layerId = "E25E64E2-9639-43F9-BB85-44020EE7B81E";
paths = (
{
closed = 1;
nodes = (
"88 728 OFFCURVE",
"167 775 OFFCURVE",
"178 893 CURVE",
"55 894 LINE",
"51 847 OFFCURVE",
"25 827 OFFCURVE",
"-5 827 CURVE SMOOTH",
"-32 827 OFFCURVE",
"-61 844 OFFCURVE",
"-67 895 CURVE",
"-176 892 LINE",
"-167 784 OFFCURVE",
"-89 728 OFFCURVE",
"4 728 CURVE SMOOTH"
);
}
);
width = 0;
}
);
},
{
color = 3;
glyphname = caroncomb.case;
lastChange = "2018-12-16 01:01:00 +0000";
layers = (
{
anchors = (
{
name = _top;
position = "{0, 510}";
}
);
layerId = "E25E64E2-9639-43F9-BB85-44020EE7B81E";
paths = (
{
closed = 1;
nodes = (
"59 575 LINE",
"214 731 LINE",
"137 795 LINE",
"0 671 LINE",
"-135 797 LINE",
"-223 720 LINE",
"-72 573 LINE"
);
}
);
width = 0;
}
);
},
{
color = 3;
glyphname = circumflexcomb.case;
lastChange = "2018-12-16 01:01:00 +0000";
layers = (
{
anchors = (
{
name = _top;
position = "{0, 510}";
}
);
layerId = "E25E64E2-9639-43F9-BB85-44020EE7B81E";
paths = (
{
closed = 1;
nodes = (
"0 683 LINE",
"161 567 LINE",
"225 629 LINE",
"68 804 LINE",
"-63 804 LINE",
"-221 629 LINE",
"-153 567 LINE"
);
}
);
width = 0;
}
);
},
{
color = 3;
glyphname = gravecomb.case;
lastChange = "2018-12-16 01:01:00 +0000";
layers = (
{
anchors = (
{
name = _top;
position = "{0, 650}";
}
);
layerId = "E25E64E2-9639-43F9-BB85-44020EE7B81E";
paths = (
{
closed = 1;
nodes = (
"152 773 LINE",
"-97 922 LINE",
"-163 784 LINE",
"-79 752 OFFCURVE",
"18 719 OFFCURVE",
"101 684 CURVE"
);
}
);
width = 0;
}
);
},
{
color = 3;
glyphname = hungarumlautcomb.case;
lastChange = "2018-12-16 01:01:00 +0000";
layers = (
{
anchors = (
{
name = _top;
position = "{-1, 474}";
}
);
layerId = "E25E64E2-9639-43F9-BB85-44020EE7B81E";
paths = (
{
closed = 1;
nodes = (
"164 558 OFFCURVE",
"226 610 OFFCURVE",
"284 651 CURVE",
"185 747 LINE",
"30 585 LINE",
"110 514 LINE"
);
},
{
closed = 1;
nodes = (
"-55 575 OFFCURVE",
"7 628 OFFCURVE",
"65 669 CURVE",
"-34 765 LINE",
"-189 603 LINE",
"-109 532 LINE"
);
}
);
width = 0;
}
);
},
{
color = 3;
glyphname = macroncomb.case;
lastChange = "2018-12-16 01:01:00 +0000";
layers = (
{
anchors = (
{
name = _top;
position = "{1, 650}";
}
);
layerId = "E25E64E2-9639-43F9-BB85-44020EE7B81E";
paths = (
{
closed = 1;
nodes = (
"177 742 LINE",
"224 792 LINE",
"219 851 LINE",
"-89 851 LINE",
"-120 851 OFFCURVE",
"-163 846 OFFCURVE",
"-202 826 CURVE",
"-196 742 LINE"
);
}
);
width = 0;
}
);
},
{
color = 3;
glyphname = ogonekcomb.case;
lastChange = "2018-12-16 01:01:00 +0000";
layers = (
{
anchors = (
{
name = _ogonek;
position = "{0, 9}";
}
);
layerId = "E25E64E2-9639-43F9-BB85-44020EE7B81E";
paths = (
{
closed = 1;
nodes = (
"-10 -214 LINE",
"-36 -160 LINE",
"-110 -205 OFFCURVE",
"-166 -187 OFFCURVE",
"-166 -134 CURVE SMOOTH",
"-166 -81 OFFCURVE",
"-109 -39 OFFCURVE",
"-30 11 CURVE SMOOTH",
"-50 33 LINE",
"-217 -13 OFFCURVE",
"-300 -93 OFFCURVE",
"-300 -169 CURVE SMOOTH",
"-300 -238 OFFCURVE",
"-235 -297 OFFCURVE",
"-139 -285 CURVE"
);
}
);
width = 0;
}
);
},
{
color = 3;
glyphname = tildecomb.case;
lastChange = "2018-12-16 01:01:00 +0000";
layers = (
{
anchors = (
{
name = _top;
position = "{0, 650}";
}
);
layerId = "E25E64E2-9639-43F9-BB85-44020EE7B81E";
paths = (
{
closed = 1;
nodes = (
"157 700 OFFCURVE",
"194 758 OFFCURVE",
"251 855 CURVE",
"201 898 LINE",
"113 826 LINE",
"6 881 OFFCURVE",
"-65 915 OFFCURVE",
"-96 915 CURVE SMOOTH",
"-135 915 OFFCURVE",
"-172 860 OFFCURVE",
"-233 767 CURVE",
"-174 723 LINE",
"-140 758 OFFCURVE",
"-114 782 OFFCURVE",
"-95 782 CURVE SMOOTH",
"-59 782 OFFCURVE",
"58 700 OFFCURVE",
"112 700 CURVE SMOOTH"
);
}
);
width = 0;
}
);
},
{
color = 3;
glyphname = cedillacomb;
lastChange = "2018-12-16 01:01:00 +0000";
layers = (
{
anchors = (
{
name = _bottom;
position = "{0, 0}";
}
);
layerId = "E25E64E2-9639-43F9-BB85-44020EE7B81E";
paths = (
{
closed = 1;
nodes = (
"54 -277 OFFCURVE",
"128 -206 OFFCURVE",
"130 -142 CURVE SMOOTH",
"132 -97 OFFCURVE",
"73 -56 OFFCURVE",
"-5 -56 CURVE",
"29 6 LINE",
"-44 6 LINE",
"-107 -71 LINE",
"-80 -118 LINE",
"18 -109 OFFCURVE",
"15 -198 OFFCURVE",
"-103 -239 CURVE",
"-82 -273 LINE"
);
}
);
width = 0;
}
);
unicode = 0327;
},
{
color = 3;
glyphname = circumflexcomb;
lastChange = "2018-12-16 01:01:00 +0000";
layers = (
{
anchors = (
{
name = _top;
position = "{0, 474}";
}
);
layerId = "E25E64E2-9639-43F9-BB85-44020EE7B81E";
paths = (
{
closed = 1;
nodes = (
"1 642 LINE",
"142 532 LINE",
"202 589 LINE",
"69 751 LINE",
"-58 751 LINE",
"-194 581 LINE",
"-123 527 LINE"
);
}
);
width = 0;
}
);
unicode = 0302;
},
{
color = 3;
glyphname = commaaccentcomb;
lastChange = "2018-12-16 01:01:00 +0000";
layers = (
{
anchors = (
{
name = _bottom;
position = "{0, 0}";
}
);
layerId = "E25E64E2-9639-43F9-BB85-44020EE7B81E";
paths = (
{
closed = 1;
nodes = (
"61 -290 OFFCURVE",
"169 -126 OFFCURVE",
"39 -69 CURVE",
"-69 -115 LINE",
"-67 -156 LINE",
"-28 -184 OFFCURVE",
"-34 -240 OFFCURVE",
"-72 -290 CURVE",
"-16 -331 LINE"
);
}
);
width = 0;
}
);
unicode = 0326;
},
{
color = 3;
glyphname = dieresiscomb;
lastChange = "2018-12-16 01:01:00 +0000";
layers = (
{
anchors = (
{
name = _top;
position = "{0, 474}";
}
);
layerId = "E25E64E2-9639-43F9-BB85-44020EE7B81E";
paths = (
{
closed = 1;
nodes = (
"184 572 OFFCURVE",
"213 607 OFFCURVE",
"229 654 CURVE",
"215 701 OFFCURVE",
"171 739 OFFCURVE",
"122 760 CURVE",
"74 733 OFFCURVE",
"38 694 OFFCURVE",
"29 637 CURVE",
"53 594 OFFCURVE",
"88 565 OFFCURVE",
"139 548 CURVE"
);
},
{
closed = 1;
nodes = (
"-73 572 OFFCURVE",
"-44 607 OFFCURVE",
"-28 654 CURVE",
"-42 701 OFFCURVE",
"-86 739 OFFCURVE",
"-135 760 CURVE",
"-183 733 OFFCURVE",
"-219 694 OFFCURVE",
"-228 637 CURVE",
"-204 594 OFFCURVE",
"-169 565 OFFCURVE",
"-118 548 CURVE"
);
}
);
width = 0;
}
);
unicode = 0308;
},
{
color = 3;
glyphname = dotaccentcomb;
lastChange = "2018-12-16 01:01:00 +0000";
layers = (
{
anchors = (
{
name = _top;
position = "{0, 474}";
}
);
layerId = "E25E64E2-9639-43F9-BB85-44020EE7B81E";
paths = (
{
closed = 1;
nodes = (
"60 572 OFFCURVE",
"89 607 OFFCURVE",
"104 654 CURVE",
"91 700 OFFCURVE",
"47 739 OFFCURVE",
"-2 760 CURVE",
"-50 733 OFFCURVE",
"-87 694 OFFCURVE",
"-95 637 CURVE",
"-71 593 OFFCURVE",
"-36 565 OFFCURVE",
"15 548 CURVE"
);
}
);
width = 0;
}
);
unicode = 0307;
},
{
color = 3;
glyphname = dotbelowcomb;
lastChange = "2018-12-16 01:01:00 +0000";
layers = (
{
anchors = (
{
name = _bottom;
position = "{0, 0}";
}
);
layerId = "E25E64E2-9639-43F9-BB85-44020EE7B81E";
paths = (
{
closed = 1;
nodes = (
"60 -286 OFFCURVE",
"89 -250 OFFCURVE",
"104 -204 CURVE",
"91 -158 OFFCURVE",
"47 -119 OFFCURVE",
"-2 -97 CURVE",
"-50 -124 OFFCURVE",
"-87 -164 OFFCURVE",
"-95 -221 CURVE",
"-71 -264 OFFCURVE",
"-36 -292 OFFCURVE",
"15 -310 CURVE"
);
}
);
width = 0;
}
);
unicode = 0323;
},
{
color = 3;
glyphname = gravecomb;
layers = (
{
anchors = (
{
name = _top;
position = "{0, 474}";
}
);
layerId = "E25E64E2-9639-43F9-BB85-44020EE7B81E";
paths = (
{
closed = 1;
nodes = (
"104 611 LINE",
"-53 808 LINE",
"-173 702 LINE",
"-113 654 OFFCURVE",
"-50 589 OFFCURVE",
"6 535 CURVE"
);
}
);
width = 0;
}
);
unicode = 0300;
},
{
color = 3;
glyphname = hungarumlautcomb;
lastChange = "2018-12-16 01:01:00 +0000";
layers = (
{
anchors = (
{
name = _top;
position = "{0, 474}";
}
);
layerId = "E25E64E2-9639-43F9-BB85-44020EE7B81E";
paths = (
{
closed = 1;
nodes = (
"164 586 OFFCURVE",
"224 648 OFFCURVE",
"281 696 CURVE",
"171 784 LINE",
"25 599 LINE",
"111 535 LINE"
);
},
{
closed = 1;
nodes = (
"-56 586 OFFCURVE",
"4 648 OFFCURVE",
"61 696 CURVE",
"-49 784 LINE",
"-195 599 LINE",
"-109 535 LINE"
);
}
);
width = 0;
}
);
unicode = 030B;
},
{
color = 3;
glyphname = macronbelowcomb;
lastChange = "2018-12-16 01:01:00 +0000";
layers = (
{
anchors = (
{
name = _bottom;
position = "{0, 0}";
}
);
layerId = "E25E64E2-9639-43F9-BB85-44020EE7B81E";
paths = (
{
closed = 1;
nodes = (
"153 -237 LINE",
"200 -187 LINE",
"195 -128 LINE",
"-81 -128 LINE",
"-112 -128 OFFCURVE",
"-155 -135 OFFCURVE",
"-194 -153 CURVE",
"-188 -237 LINE"
);
}
);
width = 0;
}
);
unicode = 0331;
},
{
color = 3;
glyphname = macroncomb;
lastChange = "2018-12-16 01:01:00 +0000";
layers = (
{
anchors = (
{
name = _top;
position = "{1, 474}";
}
);
layerId = "E25E64E2-9639-43F9-BB85-44020EE7B81E";
paths = (
{
closed = 1;
nodes = (
"152 568 LINE",
"199 618 LINE",
"194 677 LINE",
"-55 677 LINE",
"-86 677 OFFCURVE",
"-129 671 OFFCURVE",
"-168 652 CURVE",
"-162 568 LINE"
);
}
);
width = 0;
}
);
unicode = 0304;
},
{
color = 3;
glyphname = ogonekcomb;
lastChange = "2018-12-16 01:01:00 +0000";
layers = (
{
anchors = (
{
name = _ogonek;
position = "{0, 9}";
}
);
layerId = "E25E64E2-9639-43F9-BB85-44020EE7B81E";
paths = (
{
closed = 1;
nodes = (
"33 -189 LINE",
"8 -134 LINE",
"-67 -179 OFFCURVE",
"-123 -161 OFFCURVE",
"-123 -108 CURVE SMOOTH",
"-123 -55 OFFCURVE",
"-66 -14 OFFCURVE",
"13 36 CURVE SMOOTH",
"-6 59 LINE",
"-174 12 OFFCURVE",
"-257 -67 OFFCURVE",
"-257 -144 CURVE SMOOTH",
"-257 -212 OFFCURVE",
"-192 -271 OFFCURVE",
"-96 -259 CURVE"
);
}
);
width = 0;
}
);
unicode = 0328;
},
{
color = 3;
glyphname = ringcomb;
lastChange = "2018-12-16 01:01:00 +0000";
layers = (
{
anchors = (
{
name = _top;
position = "{0, 650}";
}
);
layerId = "E25E64E2-9639-43F9-BB85-44020EE7B81E";
paths = (
{
closed = 1;
nodes = (
"77 709 OFFCURVE",
"128 760 OFFCURVE",
"128 833 CURVE SMOOTH",
"128 910 OFFCURVE",
"72 965 OFFCURVE",
"0 965 CURVE SMOOTH",
"-73 965 OFFCURVE",
"-127 909 OFFCURVE",
"-127 836 CURVE SMOOTH",
"-127 759 OFFCURVE",
"-68 709 OFFCURVE",
"4 709 CURVE SMOOTH"
);
},
{
closed = 1;
nodes = (
"-30 760 OFFCURVE",
"-58 782 OFFCURVE",
"-58 818 CURVE SMOOTH",
"-58 851 OFFCURVE",
"-33 876 OFFCURVE",
"0 876 CURVE SMOOTH",
"33 876 OFFCURVE",
"59 852 OFFCURVE",
"59 817 CURVE SMOOTH",
"59 783 OFFCURVE",
"35 760 OFFCURVE",
"2 760 CURVE SMOOTH"
);
}
);
width = 0;
}
);
unicode = 030A;
},
{
color = 3;
glyphname = tildecomb;
lastChange = "2018-12-16 01:01:00 +0000";
layers = (
{
anchors = (
{
name = _top;
position = "{0, 474}";
}
);
layerId = "E25E64E2-9639-43F9-BB85-44020EE7B81E";
paths = (
{
closed = 1;
nodes = (
"145 544 OFFCURVE",
"197 600 OFFCURVE",
"249 705 CURVE",
"188 749 LINE",
"104 663 LINE",
"53 701 OFFCURVE",
"-35 755 OFFCURVE",
"-68 755 CURVE",
"-122 755 OFFCURVE",
"-154 720 OFFCURVE",
"-225 597 CURVE",
"-161 548 LINE",
"-121 599 OFFCURVE",
"-97 628 OFFCURVE",
"-74 628 CURVE SMOOTH",
"-35 628 OFFCURVE",
"45 544 OFFCURVE",
"100 544 CURVE SMOOTH"
);
}
);
width = 0;
}
);
unicode = 0303;
},
{
color = 3;
glyphname = caroncomb.calt;
lastChange = "2018-12-16 01:01:00 +0000";
layers = (
{
anchors = (
{
name = _topright;
position = "{0, 585}";
}
);
layerId = "E25E64E2-9639-43F9-BB85-44020EE7B81E";
paths = (
{
closed = 1;
nodes = (
"161 509 OFFCURVE",
"219 646 OFFCURVE",
"143 755 CURVE",
"0 694 LINE",
"0 639 LINE",
"55 631 OFFCURVE",
"40 554 OFFCURVE",
"-20 461 CURVE",
"40 414 LINE"
);
}
);
width = 0;
}
);
},
{
glyphname = dvA;
lastChange = "2018-12-16 01:01:00 +0000";
layers = (
{
anchors = (
{
name = abvmBINDU;
position = "{728, 670}";
},
{
name = abvmCANDRABINDU;
position = "{708, 670}";
}
);
layerId = "E25E64E2-9639-43F9-BB85-44020EE7B81E";
paths = (
{
closed = 1;
nodes = (
"491 -19 OFFCURVE",
"550 75 OFFCURVE",
"550 163 CURVE SMOOTH",
"550 234 OFFCURVE",
"512 328 OFFCURVE",
"386 388 CURVE",
"337 433 LINE",
"283 442 OFFCURVE",
"205 413 OFFCURVE",
"162 374 CURVE",
"267 220 LINE",
"406 308 LINE",
"314 288 LINE",
"379 297 OFFCURVE",
"405 251 OFFCURVE",
"405 218 CURVE SMOOTH",
"405 183 OFFCURVE",
"374 140 OFFCURVE",
"309 140 CURVE SMOOTH",
"225 140 OFFCURVE",
"163 214 OFFCURVE",
"106 336 CURVE",
"15 277 LINE",
"126 29 OFFCURVE",
"266 -19 OFFCURVE",
"360 -19 CURVE SMOOTH"
);
},
{
closed = 1;
nodes = (
"480 366 OFFCURVE",
"514 434 OFFCURVE",
"514 485 CURVE SMOOTH",
"514 569 OFFCURVE",
"420 685 OFFCURVE",
"297 685 CURVE SMOOTH",
"218 685 OFFCURVE",
"143 637 OFFCURVE",
"92 582 CURVE",
"189 456 LINE",
"248 514 OFFCURVE",
"319 555 OFFCURVE",
"373 550 CURVE",
"374 546 OFFCURVE",
"374 542 OFFCURVE",
"374 537 CURVE SMOOTH",
"374 488 OFFCURVE",
"319 430 OFFCURVE",
"235 403 CURVE",
"418 325 LINE"
);
},
{
closed = 1;
nodes = (
"659 399 LINE",
"636 338 OFFCURVE",
"504 303 OFFCURVE",
"426 394 CURVE",
"417 302 LINE",
"519 203 OFFCURVE",
"601 180 OFFCURVE",
"649 204 CURVE"
);
},
{
closed = 1;
nodes = (
"828 -19 LINE",
"828 486 LINE",
"708 568 LINE",
"642 599 LINE",
"642 23 LINE",
"774 -46 LINE"
);
},
{
closed = 1;
nodes = (
"938 538 LINE",
"963 587 LINE",
"898 670 LINE",
"530 670 LINE",
"505 621 LINE",
"570 538 LINE"
);
}
);
width = 898;
}
);
unicode = 0905;
},
{
glyphname = dvI;
lastChange = "2019-02-26 16:52:46 +0000";
layers = (
{
anchors = (
{
name = abvmBINDU;
position = "{390, 670}";
},
{
name = abvmCANDRABINDU;
position = "{360, 670}";
}
);
layerId = "E25E64E2-9639-43F9-BB85-44020EE7B81E";
paths = (
{
closed = 1;
nodes = (
"370 -87 OFFCURVE",
"571 -56 OFFCURVE",
"571 104 CURVE SMOOTH",
"571 187 OFFCURVE",
"517 271 OFFCURVE",
"398 314 CURVE",
"194 276 LINE",
"187 283 OFFCURVE",
"183 292 OFFCURVE",
"183 301 CURVE SMOOTH",
"183 322 OFFCURVE",
"204 343 OFFCURVE",
"240 343 CURVE",
"508 343 LINE",
"411 486 LINE",
"220 486 LINE SMOOTH",
"91 486 OFFCURVE",
"27 423 OFFCURVE",
"27 349 CURVE SMOOTH",
"27 260 OFFCURVE",
"123 168 OFFCURVE",
"285 116 CURVE",
"443 158 LINE",
"423 90 OFFCURVE",
"287 24 OFFCURVE",
"195 73 CURVE",
"252 42 LINE",
"181 142 LINE",
"97 144 LINE",
"59 1 LINE",
"136 -54 OFFCURVE",
"206 -87 OFFCURVE",
"289 -87 CURVE SMOOTH"
);
},
{
closed = 1;
nodes = (
"475 -180 LINE",
"236 12 LINE",
"153 14 LINE",
"340 -277 LINE"
);
},
{
closed = 1;
nodes = (
"508 486 LINE",
"388 568 LINE",
"342 599 LINE",
"342 361 LINE",
"508 343 LINE"
);
},
{
closed = 1;
nodes = (
"640 538 LINE",
"665 587 LINE",
"600 670 LINE",
"-40 670 LINE",
"-65 621 LINE",
"0 538 LINE"
);
}
);
width = 600;
}
);
leftKerningGroup = Dda;
rightKerningGroup = Da;
unicode = 0907;
},
{
glyphname = dvU;
lastChange = "2018-12-16 01:01:00 +0000";
layers = (
{
anchors = (
{
name = abvmBINDU;
position = "{330, 670}";
},
{
name = abvmCANDRABINDU;
position = "{310, 670}";
}
);
layerId = "E25E64E2-9639-43F9-BB85-44020EE7B81E";
paths = (
{
closed = 1;
nodes = (
"479 -52 OFFCURVE",
"560 45 OFFCURVE",
"560 151 CURVE SMOOTH",
"560 240 OFFCURVE",
"502 335 OFFCURVE",
"381 377 CURVE",
"329 424 LINE",
"273 434 OFFCURVE",
"191 403 OFFCURVE",
"146 362 CURVE",
"256 200 LINE",
"402 293 LINE",
"305 272 LINE",
"363 280 OFFCURVE",
"394 237 OFFCURVE",
"394 198 CURVE SMOOTH",
"394 155 OFFCURVE",
"359 107 OFFCURVE",
"292 107 CURVE SMOOTH",
"203 107 OFFCURVE",
"144 191 OFFCURVE",
"87 312 CURVE",
"-9 260 LINE",
"102 11 OFFCURVE",
"229 -52 OFFCURVE",
"341 -52 CURVE SMOOTH"
);
},
{
closed = 1;
nodes = (
"470 338 OFFCURVE",
"491 391 OFFCURVE",
"491 434 CURVE SMOOTH",
"491 503 OFFCURVE",
"436 556 OFFCURVE",
"345 604 CURVE",
"250 565 LINE",
"303 536 OFFCURVE",
"326 511 OFFCURVE",
"326 479 CURVE SMOOTH",
"326 438 OFFCURVE",
"288 410 OFFCURVE",
"228 393 CURVE",
"418 305 LINE"
);
},
{
closed = 1;
nodes = (
"640 538 LINE",
"665 587 LINE",
"600 670 LINE",
"-40 670 LINE",
"-65 621 LINE",
"0 538 LINE"
);
}
);
width = 600;
}
);
unicode = 0909;
},
{
glyphname = dvUu;
lastChange = "2019-02-26 16:52:46 +0000";
layers = (
{
anchors = (
{
name = abvmBINDU;
position = "{395, 670}";
},
{
name = abvmCANDRABINDU;
position = "{415, 670}";
}
);
components = (
{
name = dvU;
}
);
layerId = "E25E64E2-9639-43F9-BB85-44020EE7B81E";
paths = (
{
closed = 1;
nodes = (
"819 44 OFFCURVE",
"874 120 OFFCURVE",
"874 202 CURVE SMOOTH",
"874 309 OFFCURVE",
"781 428 OFFCURVE",
"660 428 CURVE SMOOTH",
"584 428 OFFCURVE",
"514 381 OFFCURVE",
"442 287 CURVE",
"534 146 LINE",
"605 231 OFFCURVE",
"670 281 OFFCURVE",
"707 281 CURVE SMOOTH",
"723 281 OFFCURVE",
"732 272 OFFCURVE",
"732 259 CURVE SMOOTH",
"732 222 OFFCURVE",
"661 165 OFFCURVE",
"600 115 CURVE",
"724 -20 LINE"
);
},
{
closed = 1;
nodes = (
"935 538 LINE",
"960 587 LINE",
"895 670 LINE",
"450 670 LINE",
"425 621 LINE",
"490 538 LINE"
);
}
);
width = 895;
}
);
rightKerningGroup = Ka;
unicode = 090A;
},
{
glyphname = dvVocalicR;
lastChange = "2018-12-16 01:01:00 +0000";
layers = (
{
anchors = (
{
name = abvmBINDU;
position = "{515, 670}";
},
{
name = abvmCANDRABINDU;
position = "{525, 670}";
},
{
name = abvmTOP;
position = "{507, 475}";
},
{
name = blwmBOTTOM;
position = "{386, 0}";
}
);
components = (
{
name = dvTRa;
}
);
layerId = "E25E64E2-9639-43F9-BB85-44020EE7B81E";
paths = (
{
closed = 1;
nodes = (
"925 -36 OFFCURVE",
"975 45 OFFCURVE",
"975 115 CURVE SMOOTH",
"975 196 OFFCURVE",
"908 280 OFFCURVE",
"815 368 CURVE",
"758 294 LINE",
"794 258 OFFCURVE",
"819 221 OFFCURVE",
"819 187 CURVE SMOOTH",
"819 150 OFFCURVE",
"790 116 OFFCURVE",
"712 93 CURVE",
"702 41 LINE",
"799 -58 LINE"
);
},
{
closed = 1;
nodes = (
"721 142 OFFCURVE",
"831 216 OFFCURVE",
"848 296 CURVE",
"787 442 LINE",
"778 360 OFFCURVE",
"709 308 OFFCURVE",
"630 308 CURVE SMOOTH",
"592 308 OFFCURVE",
"553 320 OFFCURVE",
"516 345 CURVE",
"516 161 LINE",
"547 148 OFFCURVE",
"580 142 OFFCURVE",
"611 142 CURVE SMOOTH"
);
},
{
closed = 1;
nodes = (
"774 345 LINE",
"853 301 LINE",
"896 348 OFFCURVE",
"892 434 OFFCURVE",
"861 488 CURVE",
"695 492 LINE",
"665 435 LINE",
"785 249 LINE"
);
},
{
closed = 1;
nodes = (
"1013 538 LINE",
"1038 587 LINE",
"973 670 LINE",
"290 670 LINE",
"265 621 LINE",
"330 538 LINE"
);
}
);
width = 973;
}
);
unicode = 090B;
},
{
glyphname = dvVocalicR.ss06;
lastChange = "2018-12-16 01:01:00 +0000";
layers = (
{
anchors = (
{
name = abvmBINDU;
position = "{515, 670}";
},
{
name = abvmCANDRABINDU;
position = "{525, 670}";
},
{
name = abvmTOP;
position = "{507, 475}";
},
{
name = blwmBOTTOM;
position = "{386, 0}";
}
);
components = (
{
name = dvTRa;
}
);
layerId = "E25E64E2-9639-43F9-BB85-44020EE7B81E";
paths = (
{
closed = 1;
nodes = (
"950 -154 OFFCURVE",
"1009 -118 OFFCURVE",
"1046 -79 CURVE",
"962 63 LINE",
"927 27 OFFCURVE",
"848 -13 OFFCURVE",
"809 -13 CURVE SMOOTH",
"791 -13 OFFCURVE",
"784 -4 OFFCURVE",
"784 5 CURVE SMOOTH",
"784 36 OFFCURVE",
"876 61 OFFCURVE",
"928 71 CURVE",
"955 123 LINE",
"891 223 LINE",
"767 203 OFFCURVE",
"651 154 OFFCURVE",
"651 50 CURVE SMOOTH",
"651 -51 OFFCURVE",
"762 -154 OFFCURVE",
"880 -154 CURVE SMOOTH"
);
},
{
closed = 1;
nodes = (
"721 162 OFFCURVE",
"831 236 OFFCURVE",
"848 316 CURVE",
"787 442 LINE",
"778 360 OFFCURVE",
"709 308 OFFCURVE",
"630 308 CURVE SMOOTH",
"592 308 OFFCURVE",
"553 320 OFFCURVE",
"516 345 CURVE",
"516 181 LINE",
"547 168 OFFCURVE",
"580 162 OFFCURVE",
"611 162 CURVE SMOOTH"
);
},
{
closed = 1;
nodes = (
"825 368 LINE",
"758 294 LINE",
"838 155 LINE",
"955 123 LINE"
);
},
{
closed = 1;
nodes = (
"774 345 LINE",
"853 301 LINE",
"896 348 OFFCURVE",
"892 434 OFFCURVE",
"861 488 CURVE",
"695 492 LINE",
"665 435 LINE",
"785 249 LINE"
);
},
{
closed = 1;
nodes = (
"1013 538 LINE",
"1038 587 LINE",
"973 670 LINE",
"290 670 LINE",
"265 621 LINE",
"330 538 LINE"
);
}
);
width = 973;
}
);
},
{
glyphname = dvVocalicRr;
lastChange = "2018-12-16 01:01:00 +0000";
layers = (
{
anchors = (
{
name = abvmBINDU;
position = "{515, 670}";
},
{
name = abvmCANDRABINDU;
position = "{525, 670}";
},
{
name = abvmTOP;
position = "{506, 475}";
},
{
name = blwmBOTTOM;
position = "{386, 0}";
}
);
components = (
{
name = dvTRa;
}
);
layerId = "E25E64E2-9639-43F9-BB85-44020EE7B81E";
paths = (
{
closed = 1;
nodes = (
"1011 -294 OFFCURVE",
"1069 -258 OFFCURVE",
"1106 -219 CURVE",
"1022 -87 LINE",
"993 -124 OFFCURVE",
"917 -163 OFFCURVE",
"879 -163 CURVE SMOOTH",
"864 -163 OFFCURVE",
"856 -156 OFFCURVE",
"856 -148 CURVE SMOOTH",
"856 -128 OFFCURVE",
"902 -106 OFFCURVE",
"988 -89 CURVE",
"1015 -37 LINE",
"951 53 LINE",
"833 33 OFFCURVE",
"721 -14 OFFCURVE",
"721 -110 CURVE SMOOTH",
"721 -202 OFFCURVE",
"822 -294 OFFCURVE",
"938 -294 CURVE SMOOTH"
);
},
{
closed = 1;
nodes = (
"788 -19 LINE",
"773 -14 OFFCURVE",
"764 -4 OFFCURVE",
"764 6 CURVE SMOOTH",
"764 39 OFFCURVE",
"859 71 OFFCURVE",
"928 81 CURVE",
"955 133 LINE",
"891 223 LINE",
"772 204 OFFCURVE",
"631 165 OFFCURVE",
"631 61 CURVE SMOOTH",
"631 4 OFFCURVE",
"674 -45 OFFCURVE",
"742 -76 CURVE"
);
},
{
closed = 1;
nodes = (
"720 172 OFFCURVE",
"831 236 OFFCURVE",
"848 316 CURVE",
"787 442 LINE",
"778 360 OFFCURVE",
"708 318 OFFCURVE",
"632 318 CURVE SMOOTH",
"591 318 OFFCURVE",
"553 330 OFFCURVE",
"516 355 CURVE",
"516 191 LINE",
"547 178 OFFCURVE",
"579 172 OFFCURVE",
"612 172 CURVE SMOOTH"
);
},
{
closed = 1;
nodes = (
"955 133 LINE",
"825 368 LINE",
"758 294 LINE",
"862 119 LINE"
);
},
{
closed = 1;
nodes = (
"774 345 LINE",
"853 301 LINE",
"896 348 OFFCURVE",
"892 434 OFFCURVE",
"861 488 CURVE",
"695 492 LINE",
"665 435 LINE",
"785 249 LINE"
);
},
{
closed = 1;
nodes = (
"1033 538 LINE",
"1058 587 LINE",
"993 670 LINE",
"290 670 LINE",
"265 621 LINE",
"330 538 LINE"
);
}
);
width = 981;
}
);
unicode = 0960;
},
{
glyphname = dvVocalicL;
lastChange = "2019-02-26 16:52:46 +0000";
layers = (
{
anchors = (
{
name = abvmBINDU;
position = "{550, 670}";
},
{
name = abvmCANDRABINDU;
position = "{490, 670}";
},
{
name = abvmTOP;
position = "{515, 475}";
},
{
name = blwmBOTTOM;
position = "{370, 0}";
}
);
layerId = "E25E64E2-9639-43F9-BB85-44020EE7B81E";
paths = (
{
closed = 1;
nodes = (
"763 -193 OFFCURVE",
"822 -135 OFFCURVE",
"863 -46 CURVE",
"736 67 LINE",
"709 10 OFFCURVE",
"664 -60 OFFCURVE",
"625 -60 CURVE",
"613 -60 OFFCURVE",
"603 -52 OFFCURVE",
"603 -37 CURVE",
"603 5 OFFCURVE",
"766 121 OFFCURVE",
"766 260 CURVE SMOOTH",
"766 373 OFFCURVE",
"659 479 OFFCURVE",
"527 479 CURVE SMOOTH",
"399 479 OFFCURVE",
"278 379 OFFCURVE",
"285 204 CURVE",
"423 121 LINE",
"466 151 LINE",
"466 252 OFFCURVE",
"508 347 OFFCURVE",
"552 347 CURVE",
"583 347 OFFCURVE",
"593 325 OFFCURVE",
"593 300 CURVE SMOOTH",
"593 206 OFFCURVE",
"451 136 OFFCURVE",
"451 20 CURVE SMOOTH",
"451 -82 OFFCURVE",
"560 -193 OFFCURVE",
"678 -193 CURVE SMOOTH"
);
},
{
closed = 1;
nodes = (
"392 40 LINE",
"272 111 OFFCURVE",
"207 161 OFFCURVE",
"207 232 CURVE SMOOTH",
"207 287 OFFCURVE",
"245 318 OFFCURVE",
"288 318 CURVE SMOOTH",
"311 318 OFFCURVE",
"337 309 OFFCURVE",
"358 292 CURVE",
"384 261 LINE",
"418 338 LINE",
"254 472 LINE",
"236 479 OFFCURVE",
"215 482 OFFCURVE",
"195 482 CURVE SMOOTH",
"109 482 OFFCURVE",
"12 423 OFFCURVE",
"12 300 CURVE SMOOTH",
"12 178 OFFCURVE",
"106 58 OFFCURVE",
"321 -55 CURVE"
);
},
{
closed = 1;
nodes = (
"633 486 LINE",
"513 568 LINE",
"454 599 LINE",
"454 393 LINE",
"633 351 LINE"
);
},
{
closed = 1;
nodes = (
"880 538 LINE",
"905 587 LINE",
"840 670 LINE",
"-40 670 LINE",
"-65 621 LINE",
"0 538 LINE"
);
}
);
width = 840;
}
);
leftKerningGroup = La;
rightKerningGroup = LaMAR;
unicode = 090C;
},
{
glyphname = dvVocalicLl;
lastChange = "2019-02-26 16:52:46 +0000";
layers = (
{
anchors = (
{
name = abvmBINDU;
position = "{550, 670}";
},
{
name = abvmCANDRABINDU;
position = "{490, 670}";
},
{
name = abvmTOP;
position = "{515, 475}";
},
{
name = blwmBOTTOM;
position = "{370, 0}";
}
);
layerId = "E25E64E2-9639-43F9-BB85-44020EE7B81E";
paths = (
{
closed = 1;
nodes = (
"659 -88 LINE",
"615 -80 OFFCURVE",
"591 -67 OFFCURVE",
"591 -40 CURVE",
"591 3 OFFCURVE",
"766 119 OFFCURVE",
"766 261 CURVE SMOOTH",
"766 372 OFFCURVE",
"659 479 OFFCURVE",
"527 479 CURVE SMOOTH",
"399 479 OFFCURVE",
"278 379 OFFCURVE",
"285 204 CURVE",
"423 121 LINE",
"466 151 LINE",
"466 252 OFFCURVE",
"508 347 OFFCURVE",
"552 347 CURVE",
"583 347 OFFCURVE",
"593 325 OFFCURVE",
"593 300 CURVE SMOOTH",
"593 202 OFFCURVE",
"445 131 OFFCURVE",
"445 10 CURVE SMOOTH",
"445 -74 OFFCURVE",
"517 -146 OFFCURVE",
"619 -174 CURVE"
);
},
{
closed = 1;
nodes = (
"392 40 LINE",
"272 111 OFFCURVE",
"207 161 OFFCURVE",
"207 232 CURVE SMOOTH",
"207 287 OFFCURVE",
"245 318 OFFCURVE",
"288 318 CURVE SMOOTH",
"311 318 OFFCURVE",
"337 309 OFFCURVE",
"358 292 CURVE",
"384 261 LINE",
"418 338 LINE",
"254 472 LINE",
"236 479 OFFCURVE",
"215 482 OFFCURVE",
"195 482 CURVE SMOOTH",
"109 482 OFFCURVE",
"12 423 OFFCURVE",
"12 300 CURVE SMOOTH",
"12 178 OFFCURVE",
"106 58 OFFCURVE",
"321 -55 CURVE"
);
},
{
closed = 1;
nodes = (
"858 -317 OFFCURVE",
"915 -272 OFFCURVE",
"957 -203 CURVE",
"855 -101 LINE",
"824 -156 OFFCURVE",
"761 -196 OFFCURVE",
"735 -196 CURVE SMOOTH",
"725 -196 OFFCURVE",
"720 -190 OFFCURVE",
"720 -183 CURVE SMOOTH",
"720 -163 OFFCURVE",
"755 -131 OFFCURVE",
"828 -91 CURVE",
"838 -43 LINE",
"750 43 LINE",
"668 15 OFFCURVE",
"581 -52 OFFCURVE",
"581 -136 CURVE SMOOTH",
"581 -223 OFFCURVE",
"674 -317 OFFCURVE",
"782 -317 CURVE SMOOTH"
);
},
{
closed = 1;
nodes = (
"633 486 LINE",
"513 568 LINE",
"454 599 LINE",
"454 393 LINE",
"633 351 LINE"
);
},
{
closed = 1;
nodes = (
"880 538 LINE",
"905 587 LINE",
"840 670 LINE",
"-40 670 LINE",
"-65 621 LINE",
"0 538 LINE"
);
}
);
width = 840;
}
);
leftKerningGroup = La;
rightKerningGroup = LaMAR;
unicode = 0961;
},
{
glyphname = dvE;
lastChange = "2018-12-16 01:01:00 +0000";
layers = (
{
anchors = (
{
name = abvmBINDU;
position = "{305, 670}";
},
{
name = abvmCANDRABINDU;
position = "{320, 670}";
}
);
layerId = "E25E64E2-9639-43F9-BB85-44020EE7B81E";
paths = (
{
closed = 1;
nodes = (
"631 -215 OFFCURVE",
"649 -168 OFFCURVE",
"649 -127 CURVE SMOOTH",
"649 -47 OFFCURVE",
"582 5 OFFCURVE",
"411 87 CURVE SMOOTH",
"228 175 LINE",
"228 486 LINE",
"108 568 LINE",
"40 598 LINE",
"40 299 LINE SMOOTH",
"40 182 OFFCURVE",
"110 100 OFFCURVE",
"207 53 CURVE SMOOTH",
"405 -44 LINE SMOOTH",
"468 -75 OFFCURVE",
"480 -109 OFFCURVE",
"427 -177 CURVE",
"594 -250 LINE"
);
},
{
closed = 1;
nodes = (
"507 153 OFFCURVE",
"568 197 OFFCURVE",
"568 331 CURVE SMOOTH",
"568 486 LINE",
"448 568 LINE",
"382 599 LINE",
"382 283 LINE",
"324 232 LINE",
"416 109 LINE"
);
},
{
closed = 1;
nodes = (
"660 538 LINE",
"685 587 LINE",
"620 670 LINE",
"-40 670 LINE",
"-65 621 LINE",
"0 538 LINE"
);
}
);
width = 620;
}
);
unicode = 090F;
},
{
glyphname = dvOE;
lastChange = "2018-12-16 01:01:00 +0000";
layers = (
{
components = (
{
name = dvA;
}
);
layerId = "E25E64E2-9639-43F9-BB85-44020EE7B81E";
paths = (
{
closed = 1;
nodes = (
"788 584 LINE",
"788 855 LINE",
"660 855 LINE",
"660 611 LINE",
"757 564 LINE"
);
}
);
width = 898;
}
);
unicode = 0973;
},
{
glyphname = dvOOE;
lastChange = "2018-12-16 01:01:00 +0000";
layers = (
{
components = (
{
name = dvAa;
}
);
layerId = "E25E64E2-9639-43F9-BB85-44020EE7B81E";
paths = (
{
closed = 1;
nodes = (
"1101 584 LINE",
"1101 855 LINE",
"973 855 LINE",
"973 611 LINE",
"1070 564 LINE"
);
}
);
width = 1214;
}
);
unicode = 0974;
},
{
glyphname = dvKa;
lastChange = "2019-02-26 16:52:46 +0000";
layers = (
{
anchors = (
{
name = abvmBINDU;
position = "{415, 670}";
},
{
name = abvmCANDRABINDU;
position = "{465, 670}";
},
{
name = abvmCANDRABINDU2;
position = "{775, 670}";
},
{
name = abvmTOP;
position = "{450, 475}";
},
{
name = blwmBOTTOM;
position = "{308, 0}";
}
);
layerId = "E25E64E2-9639-43F9-BB85-44020EE7B81E";
paths = (
{
closed = 1;
nodes = (
"767 48 OFFCURVE",
"832 134 OFFCURVE",
"832 231 CURVE SMOOTH",
"832 349 OFFCURVE",
"736 459 OFFCURVE",
"620 459 CURVE SMOOTH",
"513 459 OFFCURVE",
"441 366 OFFCURVE",
"388 267 CURVE",
"466 128 LINE",
"518 210 OFFCURVE",
"604 289 OFFCURVE",
"649 289 CURVE SMOOTH",
"665 289 OFFCURVE",
"672 280 OFFCURVE",
"672 265 CURVE SMOOTH",
"672 220 OFFCURVE",
"610 171 OFFCURVE",
"531 110 CURVE",
"660 -22 LINE"
);
},
{
closed = 1;
nodes = (
"364 82 OFFCURVE",
"404 111 OFFCURVE",
"445 154 CURVE",
"357 322 LINE",
"324 251 OFFCURVE",
"261 217 OFFCURVE",
"216 208 CURVE",
"178 252 OFFCURVE",
"212 347 OFFCURVE",
"295 347 CURVE SMOOTH",
"331 347 OFFCURVE",
"371 329 OFFCURVE",
"420 294 CURVE",
"444 375 LINE",
"249 480 LINE",
"96 503 OFFCURVE",
"19 405 OFFCURVE",
"19 306 CURVE SMOOTH",
"19 161 OFFCURVE",
"187 82 OFFCURVE",
"297 82 CURVE SMOOTH"
);
},
{
closed = 1;
nodes = (
"518 -19 LINE",
"518 486 LINE",
"398 568 LINE",
"332 599 LINE",
"332 23 LINE",
"464 -46 LINE"
);
},
{
closed = 1;
nodes = (
"885 538 LINE",
"910 587 LINE",
"845 670 LINE",
"-40 670 LINE",
"-65 621 LINE",
"0 538 LINE"
);
}
);
width = 845;
}
);
leftKerningGroup = Ka;
rightKerningGroup = Ka;
unicode = 0915;
},
{
color = 5;
glyphname = dvKha;
lastChange = "2019-02-26 16:52:46 +0000";
layers = (
{
anchors = (
{
name = abvmBINDU;
position = "{530, 670}";
},
{
name = abvmCANDRABINDU;
position = "{550, 670}";
},
{
name = abvmCANDRABINDU2;
position = "{1050, 670}";
},
{
name = abvmTOP;
position = "{745, 475}";
},
{
name = blwmBOTTOM;
position = "{640, -90}";
}
);
layerId = "E25E64E2-9639-43F9-BB85-44020EE7B81E";
paths = (
{
closed = 1;
nodes = (
"585 -56 OFFCURVE",
"681 -29 OFFCURVE",
"738 24 CURVE",
"686 141 LINE",
"642 104 OFFCURVE",
"560 78 OFFCURVE",
"478 78 CURVE SMOOTH",
"356 78 OFFCURVE",
"241 136 OFFCURVE",
"211 255 CURVE",
"276 362 LINE",
"57 363 LINE",
"19 273 LINE",
"115 60 OFFCURVE",
"305 -56 OFFCURVE",
"494 -56 CURVE SMOOTH"
);
},
{
closed = 1;
nodes = (
"283 211 LINE SMOOTH",
"349 251 OFFCURVE",
"379 286 OFFCURVE",
"379 354 CURVE",
"379 486 LINE",
"259 568 LINE",
"196 599 LINE",
"196 361 LINE",
"196 324 OFFCURVE",
"139 298 OFFCURVE",
"86 271 CURVE",
"198 159 LINE"
);
},
{
closed = 1;
nodes = (
"545 538 LINE",
"570 587 LINE",
"505 670 LINE",
"-40 670 LINE",
"-65 621 LINE",
"0 538 LINE"
);
},
{
closed = 1;
nodes = (
"693 128 OFFCURVE",
"729 154 OFFCURVE",
"766 193 CURVE",
"686 335 LINE",
"656 271 OFFCURVE",
"594 237 OFFCURVE",
"541 244 CURVE",
"510 283 OFFCURVE",
"539 368 OFFCURVE",
"620 368 CURVE SMOOTH",
"655 368 OFFCURVE",
"699 352 OFFCURVE",
"743 320 CURVE",
"765 374 LINE",
"580 489 LINE",
"444 517 OFFCURVE",
"371 420 OFFCURVE",
"371 329 CURVE SMOOTH",
"371 197 OFFCURVE",
"525 128 OFFCURVE",
"629 128 CURVE SMOOTH"
);
},
{
closed = 1;
nodes = (
"850 -19 LINE",
"850 486 LINE",
"730 568 LINE",
"664 599 LINE",
"664 23 LINE",
"796 -46 LINE"
);
},
{
closed = 1;
nodes = (
"960 538 LINE",
"985 587 LINE",
"920 670 LINE",
"200 670 LINE",
"175 621 LINE",
"240 538 LINE"
);
}
);
width = 920;
}
);
leftKerningGroup = Ra;
unicode = 0916;
},
{
glyphname = dvGa;
lastChange = "2019-02-26 16:52:46 +0000";
layers = (
{
anchors = (
{
name = abvmBINDU;
position = "{370, 670}";
},
{
name = abvmCANDRABINDU;
position = "{400, 670}";
},
{
name = abvmCANDRABINDU2;
position = "{820, 670}";
},
{
name = abvmTOP;
position = "{515, 475}";
},
{
name = blwmBOTTOM;
position = "{410, 0}";
}
);
layerId = "E25E64E2-9639-43F9-BB85-44020EE7B81E";
paths = (
{
closed = 1;
nodes = (
"620 -19 LINE",
"620 486 LINE",
"500 568 LINE",
"434 599 LINE",
"434 23 LINE",
"566 -46 LINE"
);
},
{
closed = 1;
nodes = (
"304 125 LINE",
"304 315 LINE",
"237 357 LINE",
"44 357 LINE",
"8 299 LINE",
"36 213 OFFCURVE",
"153 113 OFFCURVE",
"239 88 CURVE"
);
},
{
closed = 1;
nodes = (
"304 486 LINE",
"184 568 LINE",
"118 599 LINE",
"126 237 LINE",
"304 195 LINE"
);
},
{
closed = 1;
nodes = (
"730 538 LINE",
"755 587 LINE",
"690 670 LINE",
"-40 670 LINE",
"-65 621 LINE",
"0 538 LINE"
);
}
);
width = 690;
}
);
leftKerningGroup = Ma;
unicode = 0917;
},
{
glyphname = dvGha;
lastChange = "2019-02-26 16:52:46 +0000";
layers = (
{
anchors = (
{
name = abvmBINDU;
position = "{388, 670}";
},
{
name = abvmCANDRABINDU;
position = "{418, 670}";
},
{
name = abvmCANDRABINDU2;
position = "{858, 670}";
},
{
name = abvmTOP;
position = "{553, 475}";
},
{
name = blwmBOTTOM;
position = "{448, 0}";
}
);
layerId = "E25E64E2-9639-43F9-BB85-44020EE7B81E";
paths = (
{
closed = 1;
nodes = (
"455 63 OFFCURVE",
"508 86 OFFCURVE",
"545 126 CURVE",
"474 309 LINE",
"440 245 OFFCURVE",
"339 190 OFFCURVE",
"273 205 CURVE",
"253 247 OFFCURVE",
"306 303 OFFCURVE",
"412 291 CURVE",
"437 340 LINE",
"365 459 LINE",
"207 494 OFFCURVE",
"96 398 OFFCURVE",
"96 293 CURVE SMOOTH",
"96 216 OFFCURVE",
"154 151 OFFCURVE",
"224 110 CURVE SMOOTH",
"277 79 OFFCURVE",
"334 63 OFFCURVE",
"389 63 CURVE SMOOTH"
);
},
{
closed = 1;
nodes = (
"262 378 LINE",
"213 400 OFFCURVE",
"190 438 OFFCURVE",
"190 473 CURVE SMOOTH",
"190 508 OFFCURVE",
"213 540 OFFCURVE",
"257 551 CURVE",
"23 595 LINE",
"9 571 OFFCURVE",
"3 548 OFFCURVE",
"3 525 CURVE SMOOTH",
"3 446 OFFCURVE",
"82 375 OFFCURVE",
"223 322 CURVE"
);
},
{
closed = 1;
nodes = (
"658 -19 LINE",
"658 486 LINE",
"538 568 LINE",
"472 599 LINE",
"472 23 LINE",
"604 -46 LINE"
);
},
{
closed = 1;
nodes = (
"768 538 LINE",
"793 587 LINE",
"728 670 LINE",
"-60 670 LINE",
"-85 621 LINE",
"-20 538 LINE"
);
}
);
width = 728;
}
);
leftKerningGroup = Gha;
unicode = 0918;
},
{
glyphname = dvNga;
lastChange = "2019-02-26 16:52:46 +0000";
layers = (
{
anchors = (
{
name = abvmBINDU;
position = "{430, 670}";
},
{
name = abvmCANDRABINDU;
position = "{420, 670}";
},
{
name = abvmCANDRABINDU2;
position = "{790, 670}";
},
{
name = abvmTOP;
position = "{435, 475}";
},
{
name = blwmBOTTOM;
position = "{290, -86}";
}
);
layerId = "E25E64E2-9639-43F9-BB85-44020EE7B81E";
paths = (
{
closed = 1;
nodes = (
"497 -86 OFFCURVE",
"581 5 OFFCURVE",
"581 110 CURVE SMOOTH",
"581 199 OFFCURVE",
"520 285 OFFCURVE",
"405 326 CURVE",
"228 276 LINE",
"218 286 OFFCURVE",
"213 297 OFFCURVE",
"213 306 CURVE SMOOTH",
"213 327 OFFCURVE",
"237 343 OFFCURVE",
"278 343 CURVE SMOOTH",
"523 343 LINE",
"424 492 LINE",
"247 492 LINE SMOOTH",
"114 492 OFFCURVE",
"54 426 OFFCURVE",
"54 355 CURVE SMOOTH",
"54 263 OFFCURVE",
"156 174 OFFCURVE",
"320 117 CURVE",
"451 167 LINE",
"441 115 OFFCURVE",
"383 74 OFFCURVE",
"309 74 CURVE SMOOTH",
"233 74 OFFCURVE",
"152 117 OFFCURVE",
"74 235 CURVE",
"-4 169 LINE",
"108 6 OFFCURVE",
"231 -86 OFFCURVE",
"364 -86 CURVE SMOOTH"
);
},
{
closed = 1;
nodes = (
"523 486 LINE",
"403 568 LINE",
"357 599 LINE",
"357 361 LINE",
"523 343 LINE"
);
},
{
closed = 1;
nodes = (
"705 206 OFFCURVE",
"744 255 OFFCURVE",
"760 297 CURVE",
"737 327 OFFCURVE",
"688 372 OFFCURVE",
"646 388 CURVE",
"611 367 OFFCURVE",
"574 318 OFFCURVE",
"551 273 CURVE",
"576 238 OFFCURVE",
"632 196 OFFCURVE",
"669 182 CURVE"
);
},
{
closed = 1;
nodes = (
"810 538 LINE",
"835 587 LINE",
"770 670 LINE",
"-40 670 LINE",
"-65 621 LINE",
"0 538 LINE"
);
}
);
width = 770;
}
);
leftKerningGroup = Dda;
rightKerningGroup = Nga;
unicode = 0919;
},
{
glyphname = dvCa;
lastChange = "2018-12-16 01:01:00 +0000";
layers = (
{
anchors = (
{
name = abvmBINDU;
position = "{568, 670}";
},
{
name = abvmCANDRABINDU;
position = "{548, 670}";
},
{
name = abvmCANDRABINDU2;
position = "{868, 670}";
},
{
name = abvmTOP;
position = "{563, 475}";
},
{
name = blwmBOTTOM;
position = "{458, 0}";
}
);
layerId = "E25E64E2-9639-43F9-BB85-44020EE7B81E";
paths = (
{
closed = 1;
nodes = (
"476 63 OFFCURVE",
"528 86 OFFCURVE",
"565 126 CURVE",
"494 324 LINE",
"466 260 OFFCURVE",
"371 189 OFFCURVE",
"283 205 CURVE",
"269 273 OFFCURVE",
"320 339 OFFCURVE",
"402 352 CURVE",
"243 445 LINE",
"163 414 OFFCURVE",
"106 361 OFFCURVE",
"106 289 CURVE SMOOTH",
"106 220 OFFCURVE",
"158 155 OFFCURVE",
"227 114 CURVE SMOOTH",
"280 82 OFFCURVE",
"345 63 OFFCURVE",
"408 63 CURVE SMOOTH"
);
},
{
closed = 1;
nodes = (
"426 328 LINE",
"451 377 LINE",
"379 480 LINE",
"3 480 LINE",
"-22 431 LINE",
"41 345 LINE",
"184 345 LINE",
"218 328 LINE"
);
},
{
closed = 1;
nodes = (
"668 -19 LINE",
"668 486 LINE",
"548 568 LINE",
"482 599 LINE",
"482 23 LINE",
"614 -46 LINE"
);
},
{
closed = 1;
nodes = (
"778 538 LINE",
"803 587 LINE",
"738 670 LINE",
"-40 670 LINE",
"-65 621 LINE",
"0 538 LINE"
);
}
);
width = 738;
}
);
unicode = 091A;
},
{
glyphname = dvCha;
lastChange = "2019-02-26 16:52:46 +0000";
layers = (
{
anchors = (
{
name = abvmBINDU;
position = "{405, 670}";
},
{
name = abvmCANDRABINDU;
position = "{425, 670}";
},
{
name = abvmCANDRABINDU2;
position = "{885, 670}";
},
{
name = abvmTOP;
position = "{590, 475}";
},
{
name = blwmBOTTOM;
position = "{365, -92}";
}
);
layerId = "E25E64E2-9639-43F9-BB85-44020EE7B81E";
paths = (
{
closed = 1;
nodes = (
"632 -92 OFFCURVE",
"779 71 OFFCURVE",
"779 236 CURVE SMOOTH",
"779 375 OFFCURVE",
"674 502 OFFCURVE",
"550 502 CURVE SMOOTH",
"462 502 OFFCURVE",
"387 437 OFFCURVE",
"387 358 CURVE SMOOTH",
"387 263 OFFCURVE",
"494 166 OFFCURVE",
"605 129 CURVE",
"640 193 LINE",
"568 217 OFFCURVE",
"548 277 OFFCURVE",
"548 317 CURVE SMOOTH",
"548 353 OFFCURVE",
"565 390 OFFCURVE",
"614 383 CURVE",
"627 368 OFFCURVE",
"633 332 OFFCURVE",
"633 304 CURVE SMOOTH",
"633 178 OFFCURVE",
"512 42 OFFCURVE",
"332 42 CURVE SMOOTH",
"317 42 OFFCURVE",
"308 43 OFFCURVE",
"295 46 CURVE",
"289 52 OFFCURVE",
"285 65 OFFCURVE",
"285 76 CURVE SMOOTH",
"285 116 OFFCURVE",
"339 145 OFFCURVE",
"408 116 CURVE",
"446 163 LINE",
"372 284 LINE",
"219 321 OFFCURVE",
"117 237 OFFCURVE",
"117 137 CURVE SMOOTH",
"117 21 OFFCURVE",
"255 -92 OFFCURVE",
"426 -92 CURVE SMOOTH"
);
},
{
closed = 1;
nodes = (
"240 238 LINE",
"188 266 OFFCURVE",
"172 283 OFFCURVE",
"172 303 CURVE SMOOTH",
"172 332 OFFCURVE",
"208 343 OFFCURVE",
"240 343 CURVE SMOOTH",
"325 343 LINE",
"350 392 LINE",
"276 500 LINE",
"171 500 LINE SMOOTH",
"59 500 OFFCURVE",
"11 434 OFFCURVE",
"11 369 CURVE SMOOTH",
"11 293 OFFCURVE",
"77 221 OFFCURVE",
"185 175 CURVE"
);
},
{
closed = 1;
nodes = (
"845 538 LINE",
"870 587 LINE",
"805 670 LINE",
"-40 670 LINE",
"-65 621 LINE",
"0 538 LINE"
);
},
{
closed = 1;
nodes = (
"679 486 LINE",
"559 568 LINE",
"513 599 LINE",
"513 411 LINE",
"679 370 LINE"
);
}
);
width = 805;
}
);
rightKerningGroup = Cha;
unicode = 091B;
},
{
glyphname = dvJa;
lastChange = "2019-02-26 16:52:46 +0000";
layers = (
{
anchors = (
{
name = abvmBINDU;
position = "{600, 670}";
},
{
name = abvmCANDRABINDU;
position = "{580, 670}";
},
{
name = abvmCANDRABINDU2;
position = "{900, 670}";
},
{
name = abvmTOP;
position = "{595, 475}";
},
{
name = blwmBOTTOM;
position = "{490, 0}";
}
);
layerId = "E25E64E2-9639-43F9-BB85-44020EE7B81E";
paths = (
{
closed = 1;
nodes = (
"417 22 OFFCURVE",
"469 100 OFFCURVE",
"469 177 CURVE SMOOTH",
"469 273 OFFCURVE",
"388 355 OFFCURVE",
"233 401 CURVE",
"196 411 LINE",
"196 366 LINE",
"265 344 LINE",
"334 308 OFFCURVE",
"329 208 OFFCURVE",
"254 208 CURVE SMOOTH",
"183 208 OFFCURVE",
"151 298 OFFCURVE",
"106 446 CURVE",
"-10 407 LINE",
"45 196 OFFCURVE",
"143 22 OFFCURVE",
"307 22 CURVE SMOOTH"
);
},
{
closed = 1;
nodes = (
"561 301 LINE",
"568 457 LINE",
"196 457 LINE",
"196 405 LINE",
"342 301 LINE"
);
},
{
closed = 1;
nodes = (
"700 -19 LINE",
"700 486 LINE",
"580 568 LINE",
"514 599 LINE",
"514 23 LINE",
"646 -46 LINE"
);
},
{
closed = 1;
nodes = (
"810 538 LINE",
"835 587 LINE",
"770 670 LINE",
"-40 670 LINE",
"-65 621 LINE",
"0 538 LINE"
);
}
);
width = 770;
}
);
leftKerningGroup = Ja;
unicode = 091C;
},
{
glyphname = dvJha;
lastChange = "2019-02-26 16:52:46 +0000";
layers = (
{
anchors = (
{
name = abvmBINDU;
position = "{578, 670}";
},
{
name = abvmCANDRABINDU;
position = "{598, 670}";
},
{
name = abvmCANDRABINDU2;
position = "{1018, 670}";
},
{
name = abvmTOP;
position = "{713, 475}";
},
{
name = blwmBOTTOM;
position = "{608, 0}";
}
);
components = (
{
name = dvI;
}
);
layerId = "E25E64E2-9639-43F9-BB85-44020EE7B81E";
paths = (
{
closed = 1;
nodes = (
"818 -19 LINE",
"818 486 LINE",
"698 568 LINE",
"632 599 LINE",
"632 23 LINE",
"764 -46 LINE"
);
},
{
closed = 1;
nodes = (
"646 327 LINE",
"596 268 OFFCURVE",
"484 280 OFFCURVE",
"398 314 CURVE",
"383 250 LINE",
"458 177 OFFCURVE",
"582 129 OFFCURVE",
"649 152 CURVE"
);
},
{
closed = 1;
nodes = (
"928 538 LINE",
"953 587 LINE",
"888 670 LINE",
"520 670 LINE",
"495 621 LINE",
"560 538 LINE"
);
}
);
width = 888;
}
);
leftKerningGroup = Dda;
unicode = 091D;
},
{
glyphname = dvJha.NEP;
lastChange = "2019-02-26 16:52:46 +0000";
layers = (
{
anchors = (
{
name = abvmBINDU;
position = "{535, 670}";
},
{
name = abvmCANDRABINDU;
position = "{515, 670}";
},
{
name = abvmCANDRABINDU2;
position = "{860, 670}";
},
{
name = abvmTOP;
position = "{522, 475}";
},
{
name = blwmBOTTOM;
position = "{417, 0}";
}
);
layerId = "E25E64E2-9639-43F9-BB85-44020EE7B81E";
paths = (
{
closed = 1;
nodes = (
"351 448 LINE SMOOTH",
"351 560 OFFCURVE",
"225 694 OFFCURVE",
"95 694 CURVE SMOOTH",
"2 694 OFFCURVE",
"-50 625 OFFCURVE",
"-50 559 CURVE SMOOTH",
"-50 505 OFFCURVE",
"-15 455 OFFCURVE",
"69 396 CURVE",
"136 447 LINE",
"64 506 OFFCURVE",
"106 565 OFFCURVE",
"161 563 CURVE",
"169 550 OFFCURVE",
"172 524 OFFCURVE",
"172 500 CURVE SMOOTH",
"173 227 LINE",
"351 211 LINE"
);
},
{
closed = 1;
nodes = (
"351 119 LINE",
"351 319 LINE",
"284 361 LINE",
"91 361 LINE",
"55 303 LINE",
"80 217 OFFCURVE",
"200 107 OFFCURVE",
"286 82 CURVE"
);
},
{
closed = 1;
nodes = (
"578 205 LINE",
"556 361 LINE",
"228 361 LINE",
"259 205 LINE"
);
},
{
closed = 1;
nodes = (
"627 -19 LINE",
"627 486 LINE",
"507 568 LINE",
"441 599 LINE",
"441 23 LINE",
"573 -46 LINE"
);
},
{
closed = 1;
nodes = (
"882 11 OFFCURVE",
"921 79 OFFCURVE",
"921 148 CURVE SMOOTH",
"921 270 OFFCURVE",
"800 388 OFFCURVE",
"675 388 CURVE",
"586 388 LINE",
"603 219 LINE",
"686 219 LINE",
"725 219 OFFCURVE",
"752 208 OFFCURVE",
"752 181 CURVE SMOOTH",
"752 149 OFFCURVE",
"715 106 OFFCURVE",
"656 62 CURVE",
"794 -58 LINE"
);
},
{
closed = 1;
nodes = (
"947 538 LINE",
"972 587 LINE",
"907 670 LINE",
"401 670 LINE",
"376 621 LINE",
"441 538 LINE"
);
}
);
width = 907;
}
);
leftKerningGroup = Ma;
rightKerningGroup = Ka;
},
{
glyphname = dvNya;
lastChange = "2018-12-16 01:01:00 +0000";
layers = (
{
anchors = (
{
name = abvmBINDU;
position = "{660, 670}";
},
{
name = abvmCANDRABINDU;
position = "{640, 670}";
},
{
name = abvmCANDRABINDU2;
position = "{960, 670}";
},
{
name = abvmTOP;
position = "{655, 475}";
},
{
name = blwmBOTTOM;
position = "{550, 0}";
}
);
layerId = "E25E64E2-9639-43F9-BB85-44020EE7B81E";
paths = (
{
closed = 1;
nodes = (
"450 49 OFFCURVE",
"532 148 OFFCURVE",
"532 259 CURVE SMOOTH",
"532 397 OFFCURVE",
"406 510 OFFCURVE",
"276 510 CURVE SMOOTH",
"229 510 OFFCURVE",
"170 495 OFFCURVE",
"118 434 CURVE",
"226 291 LINE",
"381 417 LINE",
"296 390 LINE",
"343 385 OFFCURVE",
"369 345 OFFCURVE",
"369 305 CURVE SMOOTH",
"369 259 OFFCURVE",
"336 212 OFFCURVE",
"268 212 CURVE SMOOTH",
"193 212 OFFCURVE",
"138 269 OFFCURVE",
"60 402 CURVE",
"-32 340 LINE",
"97 95 OFFCURVE",
"243 49 OFFCURVE",
"327 49 CURVE SMOOTH"
);
},
{
closed = 1;
nodes = (
"646 357 LINE",
"596 298 OFFCURVE",
"484 310 OFFCURVE",
"398 344 CURVE",
"383 280 LINE",
"458 207 OFFCURVE",
"582 159 OFFCURVE",
"649 182 CURVE"
);
},
{
closed = 1;
nodes = (
"760 -19 LINE",
"760 486 LINE",
"640 568 LINE",
"574 599 LINE",
"574 23 LINE",
"706 -46 LINE"
);
},
{
closed = 1;
nodes = (
"870 538 LINE",
"895 587 LINE",
"830 670 LINE",
"-40 670 LINE",
"-65 621 LINE",
"0 538 LINE"
);
}
);
width = 830;
}
);
unicode = 091E;
},
{
glyphname = dvTta;
lastChange = "2019-02-26 16:52:46 +0000";
layers = (
{
anchors = (
{
name = abvmBINDU;
position = "{368, 670}";
},
{
name = abvmCANDRABINDU;
position = "{348, 670}";
},
{
name = abvmCANDRABINDU2;
position = "{628, 670}";
},
{
name = abvmTOP;
position = "{398, 475}";
},
{
name = blwmBOTTOM;
position = "{298, -43}";
}
);
layerId = "E25E64E2-9639-43F9-BB85-44020EE7B81E";
paths = (
{
closed = 1;
nodes = (
"433 -43 OFFCURVE",
"525 -22 OFFCURVE",
"596 60 CURVE",
"495 213 LINE",
"423 140 OFFCURVE",
"287 100 OFFCURVE",
"213 138 CURVE",
"202 154 OFFCURVE",
"196 167 OFFCURVE",
"196 186 CURVE SMOOTH",
"196 232 OFFCURVE",
"232 271 OFFCURVE",
"312 271 CURVE SMOOTH",
"483 271 LINE",
"397 445 LINE",
"262 445 LINE SMOOTH",
"87 445 OFFCURVE",
"19 353 OFFCURVE",
"19 254 CURVE SMOOTH",
"19 88 OFFCURVE",
"210 -43 OFFCURVE",
"369 -43 CURVE SMOOTH"
);
},
{
closed = 1;
nodes = (
"483 486 LINE",
"363 568 LINE",
"304 599 LINE",
"304 313 LINE",
"483 271 LINE"
);
},
{
closed = 1;
nodes = (
"638 538 LINE",
"663 587 LINE",
"598 670 LINE",
"-40 670 LINE",
"-65 621 LINE",
"0 538 LINE"
);
}
);
width = 598;
}
);
leftKerningGroup = Da;
rightKerningGroup = Tta;
unicode = 091F;
},
